<?xml version="1.0" encoding="UTF-8"?>
<svg width="64px" height="64px" viewBox="0 0 64 64" version="1.1" xmlns="http://www.w3.org/2000/svg" xmlns:xlink="http://www.w3.org/1999/xlink">
    <title>Combined Shape</title>
    <g id="design" stroke="none" stroke-width="1" fill="none" fill-rule="evenodd">
        <g id="kaps-landing" transform="translate(-60.000000, -5083.000000)" fill="#FFFFFF">
            <path d="M92,5083 C109.673112,5083 124,5097.32689 124,5115 C124,5132.67311 109.673112,5147 92,5147 C74.326888,5147 60,5132.67311 60,5115 C60,5097.32689 74.326888,5083 92,5083 Z M82.2599556,5100.4461 C82.089563,5100.74679 82,5101.08651 82,5101.43213 L82,5127.66667 C82,5128.77124 82.8954305,5129.66667 84,5129.66667 C84.3282817,5129.66667 84.6515162,5129.58586 84.9411765,5129.43137 L108.79076,5116.71159 C109.76538,5116.1918 110.134086,5114.98033 109.614289,5114.00571 C109.435753,5113.67096 109.165685,5113.39389 108.835608,5113.20684 L84.9860251,5099.69208 C84.0250252,5099.14751 82.8045223,5099.4851 82.2599556,5100.4461 Z" id="Combined-Shape" transform="translate(92.000000, 5115.000000) scale(-1, 1) translate(-92.000000, -5115.000000) "></path>
        </g>
    </g>
</svg>