<?xml version="1.0" encoding="UTF-8"?>
<svg width="64px" height="64px" viewBox="0 0 64 64" version="1.1" xmlns="http://www.w3.org/2000/svg" xmlns:xlink="http://www.w3.org/1999/xlink">
    <title>Combined Shape</title>
    <g id="design" stroke="none" stroke-width="1" fill="none" fill-rule="evenodd">
        <g id="kaps-landing" transform="translate(-1316.000000, -5083.000000)" fill="#FFFFFF">
            <path d="M1348,5083 C1365.67311,5083 1380,5097.32689 1380,5115 C1380,5132.67311 1365.67311,5147 1348,5147 C1330.32689,5147 1316,5132.67311 1316,5115 C1316,5097.32689 1330.32689,5083 1348,5083 Z M1338.25996,5100.4461 C1338.08956,5100.74679 1338,5101.08651 1338,5101.43213 L1338,5127.66667 C1338,5128.77124 1338.89543,5129.66667 1340,5129.66667 C1340.32828,5129.66667 1340.65152,5129.58586 1340.94118,5129.43137 L1364.79076,5116.71159 C1365.76538,5116.1918 1366.13409,5114.98033 1365.61429,5114.00571 C1365.43575,5113.67096 1365.16569,5113.39389 1364.83561,5113.20684 L1340.98603,5099.69208 C1340.02503,5099.14751 1338.80452,5099.4851 1338.25996,5100.4461 Z" id="Combined-Shape"></path>
        </g>
    </g>
</svg>