<?xml version="1.0" encoding="utf-8"?>
<!-- Generator: Adobe Illustrator 16.0.0, SVG Export Plug-In . SVG Version: 6.00 Build 0)  -->
<!DOCTYPE svg PUBLIC "-//W3C//DTD SVG 1.1//EN" "http://www.w3.org/Graphics/SVG/1.1/DTD/svg11.dtd">
<svg version="1.1" id="Layer_1" xmlns="http://www.w3.org/2000/svg" xmlns:xlink="http://www.w3.org/1999/xlink" x="0px" y="0px"
	 width="773.296px" height="204.043px" viewBox="0 0 773.296 204.043" enable-background="new 0 0 773.296 204.043"
	 xml:space="preserve">
<image display="none" overflow="visible" width="1606" height="427" id="DO_NOT_USE:_Input_PNG" xlink:href=""  transform="matrix(0.48 0 0 0.48 0 -0.4453)">
</image>
<rect x="396.546" y="78.583" fill="none" width="395.834" height="109"/>
<text id="_x27_STORE_x27__Text" transform="matrix(1 0 0 1 396.5459 163.6821)" display="none" fill="#FFFFFF" font-family="'BentonSans-Medium'" font-size="115">STORE</text>
<g id="VECTOR_WHITE__x27_STORE_x27_">
	<path fill="#FFFFFF" d="M401.744,143.739l11.399-6.016c4.978,9.895,12.8,14.841,23.467,14.841c5.195,0,9.381-0.861,12.559-2.586
		c3.176-1.724,4.765-4.535,4.765-8.433c0-1.836-0.346-3.447-1.037-4.834s-1.804-2.661-3.336-3.822
		c-1.532-1.162-3.522-2.24-5.971-3.233c-2.447-0.993-5.428-2.033-8.941-3.12c-4.148-1.198-8.023-2.436-11.623-3.709
		c-3.601-1.274-6.751-2.849-9.45-4.723c-2.701-1.873-4.81-4.178-6.329-6.913c-1.519-2.736-2.277-6.127-2.277-10.175
		c0-3.593,0.702-6.869,2.107-9.826c1.405-2.957,3.392-5.493,5.959-7.609c2.567-2.114,5.64-3.743,9.219-4.885
		c3.579-1.142,7.523-1.713,11.833-1.713c4.188,0,7.946,0.478,11.275,1.432c3.329,0.955,6.302,2.274,8.92,3.959
		s4.88,3.622,6.787,5.812c1.907,2.19,3.516,4.54,4.824,7.047l-10.443,7.243c-2.542-4.268-5.616-7.402-9.224-9.405
		c-3.607-2.002-7.691-3.004-12.251-3.004c-4.746,0-8.409,0.824-10.988,2.471c-2.579,1.648-3.868,4.043-3.868,7.188
		c0,2.023,0.383,3.719,1.149,5.086c0.766,1.368,1.972,2.613,3.615,3.737c1.645,1.125,3.738,2.146,6.28,3.064
		c2.54,0.917,5.53,1.863,8.969,2.837c3.962,1.162,7.71,2.437,11.246,3.823c3.535,1.387,6.622,3.055,9.26,5.004
		c2.637,1.948,4.703,4.31,6.2,7.083s2.245,6.146,2.245,10.118c0,3.438-0.729,6.671-2.188,9.697
		c-1.459,3.027-3.544,5.672-6.256,7.933c-2.711,2.262-6.058,4.026-10.041,5.297s-8.519,1.906-13.604,1.906
		c-8.422,0-15.563-1.989-21.42-5.968C408.716,155.366,404.439,150.164,401.744,143.739z"/>
	<path fill="#FFFFFF" d="M473.138,91.92V78.556h66.822V91.92h-26.224v71.762h-14.375V91.92H473.138z"/>
	<path fill="#FFFFFF" d="M544.563,121.035c0-7.099,1.001-13.403,3.004-18.915c2.002-5.511,4.726-10.125,8.171-13.843
		c3.443-3.717,7.505-6.529,12.185-8.435c4.679-1.906,9.732-2.858,15.161-2.858c5.391,0,10.425,0.953,15.105,2.858
		c4.679,1.906,8.74,4.718,12.185,8.435c3.443,3.718,6.139,8.332,8.086,13.843c1.946,5.512,2.92,11.816,2.92,18.915
		c0,7.164-0.974,13.512-2.92,19.043c-1.947,5.533-4.643,10.155-8.086,13.868c-3.444,3.713-7.506,6.535-12.185,8.468
		c-4.681,1.931-9.715,2.897-15.105,2.897c-5.429,0-10.482-0.967-15.161-2.897c-4.68-1.933-8.741-4.755-12.185-8.468
		c-3.445-3.713-6.169-8.335-8.171-13.868C545.564,134.546,544.563,128.199,544.563,121.035z M559.051,121.035
		c0,10.079,2.189,17.798,6.57,23.155c4.379,5.358,10.2,8.037,17.463,8.037c3.556,0,6.803-0.684,9.742-2.052
		c2.938-1.366,5.447-3.381,7.524-6.041c2.078-2.66,3.687-5.93,4.829-9.808c1.142-3.878,1.713-8.309,1.713-13.292
		s-0.571-9.414-1.713-13.292c-1.143-3.878-2.751-7.119-4.829-9.724c-2.077-2.604-4.586-4.58-7.524-5.929
		c-2.939-1.349-6.187-2.023-9.742-2.023c-7.263,0-13.084,2.651-17.463,7.952C561.24,103.321,559.051,110.993,559.051,121.035z"/>
	<path fill="#FFFFFF" d="M636.598,163.682V78.556h30.49c10.183,0,18.054,2.076,23.612,6.226c5.56,4.151,8.339,10.582,8.339,19.294
		c0,6.875-1.647,12.287-4.941,16.234c-3.295,3.948-7.937,6.658-13.926,8.132l20.047,35.24h-15.442l-19.092-33.354h-14.937v33.354
		H636.598z M650.748,117.582h15.779c5.951,0,10.5-0.929,13.645-2.786c3.145-1.856,4.717-5.317,4.717-10.382
		c0-4.915-1.554-8.272-4.66-10.073c-3.108-1.801-7.731-2.702-13.87-2.702h-15.61V117.582z"/>
	<path fill="#FFFFFF" d="M716.053,163.682V78.556h54.973V91.92h-40.598v21.169h29.761v12.746h-29.761v24.763h42.9v13.084H716.053z"
		/>
</g>
<g id="VECTOR_BLACK___x27_STORE_x27_" display="none">
	<path display="inline" d="M401.744,143.739l11.399-6.016c4.978,9.895,12.8,14.841,23.467,14.841c5.195,0,9.381-0.861,12.559-2.586
		c3.176-1.724,4.765-4.535,4.765-8.433c0-1.836-0.346-3.447-1.037-4.834s-1.804-2.661-3.336-3.822
		c-1.532-1.162-3.522-2.24-5.971-3.233c-2.447-0.993-5.428-2.033-8.941-3.12c-4.148-1.198-8.023-2.436-11.623-3.709
		c-3.601-1.274-6.751-2.849-9.45-4.723c-2.701-1.873-4.81-4.178-6.329-6.913c-1.519-2.736-2.277-6.127-2.277-10.175
		c0-3.593,0.702-6.869,2.107-9.826c1.405-2.957,3.392-5.493,5.959-7.609c2.567-2.114,5.64-3.743,9.219-4.885
		c3.579-1.142,7.523-1.713,11.833-1.713c4.188,0,7.946,0.478,11.275,1.432c3.329,0.955,6.302,2.274,8.92,3.959
		s4.88,3.622,6.787,5.812c1.907,2.19,3.516,4.54,4.824,7.047l-10.443,7.243c-2.542-4.268-5.616-7.402-9.224-9.405
		c-3.607-2.002-7.691-3.004-12.251-3.004c-4.746,0-8.409,0.824-10.988,2.471c-2.579,1.648-3.868,4.043-3.868,7.188
		c0,2.023,0.383,3.719,1.149,5.086c0.766,1.368,1.972,2.613,3.615,3.737c1.645,1.125,3.738,2.146,6.28,3.064
		c2.54,0.917,5.53,1.863,8.969,2.837c3.962,1.162,7.71,2.437,11.246,3.823c3.535,1.387,6.622,3.055,9.26,5.004
		c2.637,1.948,4.703,4.31,6.2,7.083s2.245,6.146,2.245,10.118c0,3.438-0.729,6.671-2.188,9.697
		c-1.459,3.027-3.544,5.672-6.256,7.933c-2.711,2.262-6.058,4.026-10.041,5.297s-8.519,1.906-13.604,1.906
		c-8.422,0-15.563-1.989-21.42-5.968C408.716,155.366,404.439,150.164,401.744,143.739z"/>
	<path display="inline" d="M473.138,91.92V78.556h66.822V91.92h-26.224v71.762h-14.375V91.92H473.138z"/>
	<path display="inline" d="M544.563,121.035c0-7.099,1.001-13.403,3.004-18.915c2.002-5.511,4.726-10.125,8.171-13.843
		c3.443-3.717,7.505-6.529,12.185-8.435c4.679-1.906,9.732-2.858,15.161-2.858c5.391,0,10.425,0.953,15.105,2.858
		c4.679,1.906,8.74,4.718,12.185,8.435c3.443,3.718,6.139,8.332,8.086,13.843c1.946,5.512,2.92,11.816,2.92,18.915
		c0,7.164-0.974,13.512-2.92,19.043c-1.947,5.533-4.643,10.155-8.086,13.868c-3.444,3.713-7.506,6.535-12.185,8.468
		c-4.681,1.931-9.715,2.897-15.105,2.897c-5.429,0-10.482-0.967-15.161-2.897c-4.68-1.933-8.741-4.755-12.185-8.468
		c-3.445-3.713-6.169-8.335-8.171-13.868C545.564,134.546,544.563,128.199,544.563,121.035z M559.051,121.035
		c0,10.079,2.189,17.798,6.57,23.155c4.379,5.358,10.2,8.037,17.463,8.037c3.556,0,6.803-0.684,9.742-2.052
		c2.938-1.366,5.447-3.381,7.524-6.041c2.078-2.66,3.687-5.93,4.829-9.808c1.142-3.878,1.713-8.309,1.713-13.292
		s-0.571-9.414-1.713-13.292c-1.143-3.878-2.751-7.119-4.829-9.724c-2.077-2.604-4.586-4.58-7.524-5.929
		c-2.939-1.349-6.187-2.023-9.742-2.023c-7.263,0-13.084,2.651-17.463,7.952C561.24,103.321,559.051,110.993,559.051,121.035z"/>
	<path display="inline" d="M636.598,163.682V78.556h30.49c10.183,0,18.054,2.076,23.612,6.226c5.56,4.151,8.339,10.582,8.339,19.294
		c0,6.875-1.647,12.287-4.941,16.234c-3.295,3.948-7.937,6.658-13.926,8.132l20.047,35.24h-15.442l-19.092-33.354h-14.937v33.354
		H636.598z M650.748,117.582h15.779c5.951,0,10.5-0.929,13.645-2.786c3.145-1.856,4.717-5.317,4.717-10.382
		c0-4.915-1.554-8.272-4.66-10.073c-3.108-1.801-7.731-2.702-13.87-2.702h-15.61V117.582z"/>
	<path display="inline" d="M716.053,163.682V78.556h54.973V91.92h-40.598v21.169h29.761v12.746h-29.761v24.763h42.9v13.084H716.053z
		"/>
</g>
<g id="SAP_LOGO_EPS">
	<g>
		<g>
			<linearGradient id="SVGID_1_" gradientUnits="userSpaceOnUse" x1="206.1904" y1="0.0435" x2="206.1904" y2="204.0439">
				<stop  offset="0" style="stop-color:#00B9F2"/>
				<stop  offset="0.2132" style="stop-color:#00A0DF"/>
				<stop  offset="0.4462" style="stop-color:#008BCF"/>
				<stop  offset="0.6625" style="stop-color:#007DC4"/>
				<stop  offset="0.8538" style="stop-color:#0074BE"/>
				<stop  offset="1" style="stop-color:#0072BC"/>
			</linearGradient>
			<polyline fill-rule="evenodd" clip-rule="evenodd" fill="url(#SVGID_1_)" points="0,204.043 208.413,204.043 412.38,0.043 
				0,0.043 0,204.043 			"/>
		</g>
		<path fill-rule="evenodd" clip-rule="evenodd" fill="#FFFFFF" d="M244.727,38.402l-40.593-0.025v96.518l-35.46-96.518h-35.16
			l-30.277,80.716c-3.224-20.352-24.277-27.38-40.84-32.649c-10.937-3.512-22.542-8.678-22.434-14.387
			c0.091-4.687,6.225-9.04,18.377-8.385c8.17,0.433,15.373,1.092,29.71,8.006l14.103-24.557
			c-13.088-6.658-31.169-10.867-45.985-10.883h-0.086c-17.277,0-31.677,5.598-40.602,14.824c-6.221,6.443-9.572,14.626-9.712,23.679
			c-0.227,12.454,4.341,21.292,13.938,28.338c8.104,5.944,18.468,9.794,27.604,12.626c11.271,3.492,20.467,6.526,20.36,13.002
			c-0.083,2.354-0.977,4.552-2.671,6.337c-2.807,2.897-7.124,3.986-13.084,4.098c-11.497,0.243-20.026-1.559-33.61-9.585
			L5.767,154.459c13.546,7.705,29.586,12.223,45.952,12.223l2.106-0.024c14.247-0.256,25.745-4.316,34.929-11.712
			c0.527-0.416,1.001-0.845,1.488-1.277l-4.073,10.874h36.875l6.189-18.822c6.477,2.214,13.847,3.438,21.676,3.438
			c7.618,0,14.795-1.17,21.156-3.252l5.965,18.637h60.137v-38.969h13.113c31.706,0,50.456-16.147,50.456-43.202
			C301.737,52.233,283.519,38.402,244.727,38.402z M150.91,120.99c-4.737,0-9.177-0.828-13.006-2.275l12.866-40.593h0.244
			l12.643,40.708C159.855,120.178,155.519,120.99,150.91,120.99z M247.109,97.666h-8.941V64.955h8.941
			c11.927,0,21.437,3.961,21.437,16.139C268.546,93.696,259.036,97.666,247.109,97.666"/>
	</g>
</g>
</svg>
