<svg width="128" height="128" viewBox="0 0 128 128" fill="none" xmlns="http://www.w3.org/2000/svg">
<g clip-path="url(#clip0_15_2843)">
<path d="M34.1845 35.842C33.1828 35.5832 32.159 36.1857 31.9 37.1882L31.164 40.0357C30.9048 41.0382 31.5075 42.0612 32.51 42.3202C33.5085 42.578 34.5345 41.981 34.7945 40.9742L35.5305 38.1267C35.7895 37.124 35.187 36.1012 34.1845 35.842Z" fill="white"/>
<path d="M63.8198 43.5021C62.818 43.2434 61.7943 43.8459 61.5353 44.8484L60.7993 47.6956C60.4915 48.8866 61.3935 50.0401 62.616 50.0401C63.4503 50.0401 64.2115 49.4791 64.43 48.6339L65.166 45.7866C65.4248 44.7841 64.8223 43.7614 63.8198 43.5021Z" fill="white"/>
<path d="M54.0788 48.5226C53.077 48.2633 52.0533 48.8661 51.7943 49.8686C51.6828 50.2998 51.41 50.6618 51.0263 50.8881C49.749 51.6403 48.1958 50.4623 48.565 49.0338L49.0018 47.3448L49.853 47.5648C50.8528 47.8231 51.8778 47.2243 52.1375 46.2188C52.3968 45.2163 51.794 44.1933 50.7915 43.9341L45.4585 42.5556C44.4568 42.2968 43.433 42.8991 43.174 43.9018C42.9148 44.9043 43.5175 45.9273 44.52 46.1863L45.3713 46.4063L44.9345 48.0953C44.823 48.5268 44.5503 48.8888 44.1665 49.1148C42.8978 49.8626 41.3328 48.7023 41.7053 47.2606C41.9645 46.2581 41.3618 45.2351 40.3593 44.9761C39.3563 44.7168 38.3338 45.3193 38.0745 46.3221C36.9085 50.8331 41.6095 54.5818 45.7273 52.5308C48.36 56.3426 54.266 55.2901 55.425 50.8068C55.684 49.8043 55.0813 48.7816 54.0788 48.5226Z" fill="white"/>
<path d="M82.1553 58.0357C81.1535 57.7767 80.13 58.3792 79.8708 59.3817L79.2085 61.9437C78.9008 63.1344 79.8025 64.2884 81.0253 64.2884C81.8595 64.2884 82.6208 63.7274 82.8393 62.8824L83.5015 60.3202C83.7605 59.3177 83.158 58.2947 82.1553 58.0357Z" fill="white"/>
<path d="M108.823 64.9284C107.82 64.6696 106.797 65.2719 106.538 66.2746L105.876 68.8369C105.568 70.0276 106.47 71.1814 107.693 71.1814C108.527 71.1814 109.288 70.6204 109.507 69.7751L110.169 67.2129C110.428 66.2104 109.825 65.1874 108.823 64.9284Z" fill="white"/>
<path d="M100.057 69.446C99.0555 69.1875 98.0317 69.7898 97.7725 70.7923C97.6847 71.1318 97.47 71.417 97.168 71.5948C96.167 72.185 94.938 71.266 95.2305 70.1353C95.4897 69.1325 94.887 68.1098 93.8845 67.8505C92.883 67.5913 91.859 68.194 91.6 69.1965C91.4187 69.8975 90.7012 70.3203 90.0002 70.1393C89.2992 69.958 88.8765 69.2405 89.0575 68.5395C89.3167 67.5368 88.714 66.514 87.7112 66.2548C86.7097 65.996 85.686 66.5985 85.4267 67.601C84.3677 71.6983 88.5492 75.244 92.428 73.4698C94.9337 76.8783 100.336 75.8598 101.403 71.7308C101.662 70.728 101.059 69.7053 100.057 69.446Z" fill="white"/>
<path d="M98.3768 36.4757C98.9238 37.2602 99.8285 37.753 100.856 37.7355C133.163 37.035 126.53 11.2925 111.339 14.0362C104.59 0.124996 79.908 9.98325 98.3768 36.4757ZM108.443 16.843C108.77 17.808 109.809 18.3347 110.78 18.0305C121.908 14.5427 127.845 33.2005 101.207 33.975C86.1268 11.998 104.7 5.79675 108.443 16.843Z" fill="white"/>
<path d="M107.546 120.262C110.154 120.262 112.593 119.233 114.414 117.366C116.227 115.506 117.19 113.055 117.124 110.464C117.063 108.029 116.807 105.644 116.366 103.375C116.168 102.358 115.182 101.695 114.166 101.893C113.15 102.091 112.486 103.075 112.684 104.092C113.087 106.156 113.319 108.332 113.375 110.558C113.415 112.13 112.83 113.618 111.729 114.748C110.62 115.885 109.134 116.511 107.546 116.511H101.47C104.667 109.797 103.01 101.399 102.927 100.99C102.719 99.9761 101.73 99.3231 100.716 99.5291C99.702 99.7351 99.0468 100.725 99.2515 101.739C99.2708 101.834 101.047 110.935 97.1503 116.511H91.7475V101.366C91.7475 100.33 90.908 99.4903 89.8723 99.4903C88.8365 99.4903 87.997 100.33 87.997 101.366V116.511H82.594C78.699 110.937 80.4718 101.843 80.4928 101.739C80.699 100.725 80.0448 99.7356 79.031 99.5283C78.016 99.3206 77.0258 99.9751 76.818 100.99C76.7343 101.399 75.0783 109.797 78.275 116.511H72.1983C68.9218 116.511 66.2873 113.822 66.3698 110.558C66.653 99.3363 71.3265 91.0966 77.4303 86.6648C85.2078 93.3216 96.4935 94.5538 105.64 89.6566C107.224 91.3821 109.133 93.9428 110.641 97.4248C111.053 98.3751 112.156 98.8118 113.107 98.4003C114.057 97.9888 114.494 96.8846 114.083 95.9343C112.752 92.8628 110.959 90.0211 108.838 87.6051C114.219 83.5851 117.729 77.6503 118.69 70.9991C125.216 68.2598 128.308 61.5108 127.976 54.3516C127.911 52.9501 127.22 51.6771 126.081 50.8588C120.88 47.1251 114.921 46.1316 109.882 48.0918C104.551 43.6441 97.5633 41.6031 90.7518 42.4173C90.3155 41.8111 89.8338 41.2428 89.3105 40.7138C89.7728 32.2086 87.7658 26.3391 83.3385 23.2613C77.0498 18.8893 68.0725 21.7993 65.1575 22.9358C58.7873 19.1713 51.5845 17.8331 44.639 18.7421C43.3368 17.5646 40.3278 15.1836 36.0933 13.9038C26.6038 11.0371 18.6735 15.8651 13.6918 20.4201C9.07127 24.6443 6.22977 28.8908 5.24577 33.0416C4.39052 36.6496 5.01677 40.0341 7.00952 42.5723C8.53177 44.5113 10.615 45.6663 12.7268 45.9241C11.514 48.1173 10.3813 50.3831 9.33227 52.7191C8.90802 53.6638 9.33002 54.7736 10.2745 55.1981C11.2193 55.6223 12.3293 55.2003 12.7535 54.2556C14.395 50.6008 16.2505 47.1291 18.3035 43.8478C21.3008 39.0588 26.318 32.5473 30.3958 29.0161C43.8455 17.4446 64.6905 21.0616 73.4733 36.5898C72.9645 36.9256 72.5518 37.2796 72.1723 37.8088C68.0178 43.5951 66.8958 51.0051 70.8845 56.8298C66.7803 65.7166 68.0568 76.3528 74.7255 83.9921C68.3043 88.9203 63.291 97.4996 62.673 109.172C62.519 112.081 62.764 114.145 64.5888 116.512H51.935C60.274 103.983 58.685 86.6508 58.6068 85.8581C58.5053 84.8276 57.5873 84.0746 56.5565 84.1761C55.526 84.2776 54.7728 85.1956 54.8743 86.2261C54.893 86.4173 56.6115 105.109 47.277 116.512H37.9053C37.3188 98.7868 39.2955 89.3826 40.4623 86.8413C40.901 85.9098 40.5065 84.7973 39.5768 84.3516C38.6433 83.9036 37.5228 84.2978 37.075 85.2316C36.9203 85.5543 33.389 93.2153 34.153 116.512H27.027C17.889 105.233 21.835 86.6361 21.8768 86.4458C22.0995 85.4351 21.4613 84.4348 20.4505 84.2113C19.4398 83.9881 18.4383 84.6261 18.2145 85.6373C18.1668 85.8536 17.0453 91.0121 17.2533 97.7461C17.4815 105.14 19.2555 111.543 22.419 116.512H17.9678C10.7323 116.512 4.68652 110.992 4.05452 103.792C2.81402 89.6543 5.47802 73.7231 10.0183 61.0536C10.3675 60.0786 9.86052 59.0051 8.88552 58.6558C7.91077 58.3063 6.83702 58.8136 6.48777 59.7883C1.77552 72.9361 -0.972477 89.4096 0.318523 104.118C0.706273 108.538 2.72577 112.623 6.00477 115.619C9.28052 118.613 13.5293 120.262 17.9678 120.262H107.546ZM15.107 41.8766C13.5298 42.6771 11.3375 42.0116 9.95952 40.2563C6.13327 35.3826 10.942 28.0156 16.2223 23.1878C21.4995 18.3631 26.3468 16.8046 30.4088 16.8046C34.4318 16.8046 37.6845 18.3341 39.819 19.7343C31.2085 22.2283 25.8728 27.3701 20.156 34.6721C18.3758 36.9468 16.627 39.4473 15.107 41.8766ZM123.893 53.9053C124.095 54.0506 124.218 54.2766 124.229 54.5253C124.475 59.8246 122.51 64.2771 118.936 66.6358C118.758 60.9408 116.619 55.4578 112.91 51.0931C116.391 50.3701 120.331 51.3473 123.893 53.9053ZM74.9255 40.4163C75.463 39.6238 75.4398 39.6528 76.5353 39.6431C80.2238 39.6086 83.9578 40.6876 86.5768 43.2843C81.3095 44.8568 76.4413 48.1791 73.0603 53.0423C71.6058 49.7123 71.893 44.8871 74.9255 40.4163ZM85.6258 37.9878C83.0528 36.6203 80.2643 36.0026 77.364 35.8991C75.3248 31.9786 72.635 28.5346 69.0055 25.6041C79.593 22.6128 85.5083 26.5153 85.6258 37.9878ZM98.6963 88.3103C80.6405 92.5843 65.7723 73.3131 75.0913 56.8513C81.884 44.8893 98.1493 42.3168 108.268 51.6676C114.315 57.2438 116.597 65.8018 114.302 73.5446C112.045 81.1563 105.913 86.5826 98.6963 88.3103Z" fill="white"/>
</g>
<defs>
<clipPath id="clip0_15_2843">
<rect width="128" height="128" fill="white"/>
</clipPath>
</defs>
</svg>
