<svg width="48" height="48" viewBox="0 0 48 48" fill="none" xmlns="http://www.w3.org/2000/svg">
<g clip-path="url(#clip0_15_3356)">
<path d="M40.2912 28.8709H7.70883C6.47137 28.8709 5.46826 27.8678 5.46826 26.6303V7.64926C5.46826 6.4118 6.47137 5.40869 7.70883 5.40869H40.2913C41.5287 5.40869 42.5319 6.4118 42.5319 7.64926V26.6304C42.5318 27.8678 41.5287 28.8709 40.2912 28.8709Z" fill="url(#paint0_linear_15_3356)"/>
<path d="M43.1887 36.2895H4.81118C3.35367 36.2895 2.17212 35.1079 2.17212 33.6504V11.2934C2.17212 9.83585 3.35367 8.6543 4.81118 8.6543H43.1887C44.6462 8.6543 45.8277 9.83585 45.8277 11.2934V33.6504C45.8277 35.1079 44.6462 36.2895 43.1887 36.2895Z" fill="url(#paint1_linear_15_3356)"/>
<path d="M45.0984 42.5914H2.90165C1.29911 42.5914 0 41.2923 0 39.6897V15.1077C0 13.5052 1.29911 12.2061 2.90165 12.2061H45.0984C46.7009 12.2061 48 13.5052 48 15.1077V39.6897C48 41.2923 46.7009 42.5914 45.0984 42.5914Z" fill="url(#paint2_linear_15_3356)"/>
<path d="M42.9618 40.1393H5.0382C3.64996 40.1393 2.5246 39.014 2.5246 37.6257V17.1713C2.5246 15.7831 3.64996 14.6577 5.0382 14.6577H42.9618C44.35 14.6577 45.4754 15.7831 45.4754 17.1713V37.6258C45.4754 39.014 44.35 40.1393 42.9618 40.1393Z" fill="url(#paint3_linear_15_3356)"/>
<path d="M5.18147 19.9155H8.38147C8.7713 19.9155 9.08735 20.2316 9.08735 20.6214C9.08735 21.0112 8.7713 21.3273 8.38147 21.3273H5.18147C4.79163 21.3273 4.47559 21.0112 4.47559 20.6214C4.47559 20.2316 4.79154 19.9155 5.18147 19.9155Z" fill="#017B4E"/>
<path d="M10.8284 21.3273C10.4386 21.3273 10.1226 21.0112 10.1226 20.6214C10.1226 20.2316 10.4386 19.9155 10.8284 19.9155H11.6284C12.0183 19.9155 12.3343 20.2316 12.3343 20.6214C12.3343 21.0112 12.0183 21.3273 11.6284 21.3273H10.8284Z" fill="#017B4E"/>
<path d="M16.0823 18.0016H5.18147C4.79163 18.0016 4.47559 17.6856 4.47559 17.2957C4.47559 16.9059 4.79163 16.5898 5.18147 16.5898H16.0823C16.4721 16.5898 16.7881 16.9059 16.7881 17.2957C16.7881 17.6857 16.4721 18.0016 16.0823 18.0016Z" fill="#017B4E"/>
<path d="M42.8186 34.8825H39.6186C39.2288 34.8825 38.9127 34.5664 38.9127 34.1766C38.9127 33.7868 39.2288 33.4707 39.6186 33.4707H42.8186C43.2084 33.4707 43.5245 33.7868 43.5245 34.1766C43.5245 34.5664 43.2084 34.8825 42.8186 34.8825Z" fill="#017B4E"/>
<path d="M37.1716 33.4707C37.5614 33.4707 37.8775 33.7868 37.8775 34.1766C37.8775 34.5664 37.5614 34.8825 37.1716 34.8825H36.3716C35.9818 34.8825 35.6657 34.5664 35.6657 34.1766C35.6657 33.7868 35.9818 33.4707 36.3716 33.4707H37.1716Z" fill="#017B4E"/>
<path d="M31.9177 36.7964H42.8185C43.2084 36.7964 43.5244 37.1124 43.5244 37.5023C43.5244 37.8921 43.2084 38.2082 42.8185 38.2082H31.9177C31.5279 38.2082 31.2119 37.8921 31.2119 37.5023C31.2119 37.1123 31.5279 36.7964 31.9177 36.7964Z" fill="#017B4E"/>
<path d="M0 28.0693V39.6899C0 41.2925 1.29911 42.5916 2.90165 42.5916H45.0984C46.7009 42.5916 48 41.2925 48 39.6899V28.0693H0Z" fill="url(#paint4_linear_15_3356)"/>
<path d="M34.3741 28.6277L33.3917 29.6275C33.0058 30.0203 32.8267 30.5715 32.9081 31.116L33.1153 32.5018C33.2567 33.4483 32.6132 34.3336 31.6691 34.491L30.2878 34.7213C29.7437 34.812 29.274 35.1535 29.0197 35.643L28.3756 36.8835C27.9341 37.7339 26.8917 38.0725 26.0347 37.644L24.7843 37.0188C24.2905 36.7719 23.7093 36.7719 23.2155 37.0188L21.9651 37.644C21.108 38.0725 20.0658 37.734 19.6243 36.8835L18.9801 35.643C18.7259 35.1534 18.2562 34.812 17.7121 34.7213L16.3308 34.491C15.3867 34.3336 14.7432 33.4483 14.8847 32.5018L15.0918 31.1161C15.1732 30.5715 14.9941 30.0204 14.6083 29.6276L13.6259 28.6278C12.9554 27.9455 12.9554 26.8517 13.6259 26.1694L14.6083 25.1696C14.9941 24.7768 15.1732 24.2257 15.0918 23.6811L14.8847 22.2954C14.7432 21.3489 15.3867 20.4636 16.3308 20.3062L17.7122 20.0759C18.2563 19.9852 18.726 19.6437 18.9802 19.1542L19.6244 17.9138C20.0659 17.0634 21.1082 16.7248 21.9652 17.1533L23.2157 17.7785C23.7094 18.0254 24.2906 18.0254 24.7844 17.7785L26.0349 17.1533C26.8919 16.7248 27.9342 17.0634 28.3758 17.9138L29.0199 19.1543C29.2741 19.6439 29.7439 19.9853 30.288 20.076L31.6693 20.3063C32.6134 20.4638 33.2569 21.349 33.1155 22.2955L32.9083 23.6812C32.8269 24.2258 33.006 24.7769 33.3919 25.1697L34.3743 26.1695C35.0446 26.8516 35.0446 27.9455 34.3741 28.6277Z" fill="url(#paint5_linear_15_3356)"/>
<path d="M24 35.1763C28.2954 35.1763 31.7776 31.6941 31.7776 27.3987C31.7776 23.1032 28.2954 19.6211 24 19.6211C19.7045 19.6211 16.2224 23.1032 16.2224 27.3987C16.2224 31.6941 19.7045 35.1763 24 35.1763Z" fill="url(#paint6_linear_15_3356)"/>
<path d="M23.9999 34.0325C27.6639 34.0325 30.6341 31.0623 30.6341 27.3983C30.6341 23.7344 27.6639 20.7642 23.9999 20.7642C20.336 20.7642 17.3658 23.7344 17.3658 27.3983C17.3658 31.0623 20.336 34.0325 23.9999 34.0325Z" fill="url(#paint7_linear_15_3356)"/>
<path d="M14.6083 29.6275C14.9941 30.0203 15.1732 30.5714 15.0918 31.116L14.8847 32.5017C14.7432 33.4482 15.3867 34.3335 16.3308 34.4909L17.7121 34.7212C18.2562 34.8119 18.7259 35.1534 18.9801 35.6429L19.6243 36.8834C20.0658 37.7338 21.1081 38.0724 21.9651 37.6438L23.2155 37.0186C23.7092 36.7717 24.2904 36.7717 24.7843 37.0186L26.0347 37.6438C26.8917 38.0723 27.934 37.7338 28.3756 36.8833L29.0197 35.6429C29.274 35.1533 29.7437 34.8119 30.2878 34.7212L31.6692 34.4909C32.6132 34.3334 33.2567 33.4482 33.1153 32.5017L32.9081 31.1159C32.8267 30.5713 33.0058 30.0202 33.3917 29.6274L34.3741 28.6276C34.7093 28.2864 34.877 27.8424 34.877 27.3984H13.123C13.123 27.8425 13.2906 28.2865 13.6259 28.6276L14.6083 29.6275Z" fill="url(#paint8_linear_15_3356)"/>
<path d="M30.2878 34.721L31.6691 34.4907C32.6132 34.3333 33.2567 33.4481 33.1153 32.5016L32.9081 31.1158C32.8267 30.5712 33.0058 30.0201 33.3917 29.6273L33.6261 29.3886C33.6504 29.2452 33.6984 29.105 33.7718 28.9749L27.1267 22.3298C26.9911 22.0812 26.6977 21.9302 26.4252 21.9302C26.1877 21.9302 25.9765 22.0358 25.871 22.2601L21.2395 31.7738C21.1999 31.853 21.1735 31.9454 21.1735 32.0246C21.1735 32.2527 21.3126 32.4997 21.5467 32.6304L26.7435 37.8272C27.4039 37.8554 28.0515 37.5074 28.3756 36.8833L29.0197 35.6428C29.2739 35.1532 29.7437 34.8118 30.2878 34.721Z" fill="url(#paint9_linear_15_3356)"/>
<path d="M33.0263 33.3676L22.7923 23.1336C22.4418 22.6625 21.8355 22.4717 21.1339 22.4717C20.0123 22.4717 19.1546 22.9467 19.1546 24.253V26.1266C19.1546 26.8006 19.3833 27.2529 19.7585 27.5332L28.6262 36.401L29.0197 35.6431C29.2739 35.1535 29.7437 34.8121 30.2878 34.7214L31.6691 34.4911C32.312 34.384 32.8151 33.9392 33.0263 33.3676Z" fill="url(#paint10_linear_15_3356)"/>
<path d="M27.1792 26.707C26.0577 26.707 25.2 27.182 25.2 28.4883V30.362C25.2 31.036 25.4287 31.4882 25.8037 31.7685L29.2924 35.2571C29.5532 34.9768 29.9015 34.7855 30.2878 34.7211L31.6691 34.4908C32.6132 34.3334 33.2567 33.4482 33.1152 32.5017L32.9649 31.496L28.8377 27.3688C28.4871 26.8978 27.8809 26.707 27.1792 26.707Z" fill="url(#paint11_linear_15_3356)"/>
<path d="M19.1011 26.073V24.1993C19.1011 22.893 19.9588 22.4179 21.0804 22.4179C22.1889 22.4179 23.0597 22.893 23.0597 24.1993V26.073C23.0597 27.3794 22.1888 27.8544 21.0804 27.8544C19.9588 27.8544 19.1011 27.3794 19.1011 26.073ZM21.7402 24.1993C21.7402 23.7638 21.4895 23.5659 21.0804 23.5659C20.6714 23.5659 20.4339 23.7638 20.4339 24.1993V26.073C20.4339 26.5084 20.6714 26.7063 21.0804 26.7063C21.4896 26.7063 21.7402 26.5084 21.7402 26.073V24.1993ZM27.1502 22.5763C27.1502 22.6555 27.137 22.7479 27.0974 22.8271L22.4527 32.3408C22.3602 32.5387 22.1096 32.6706 21.8589 32.6706C21.4102 32.6706 21.12 32.3012 21.12 31.9713C21.12 31.8921 21.1464 31.7997 21.1859 31.7205L25.8174 22.2068C25.923 21.9826 26.1341 21.877 26.3715 21.877C26.741 21.877 27.1502 22.154 27.1502 22.5763ZM25.1577 30.3218V28.4482C25.1577 27.1418 26.0154 26.6668 27.137 26.6668C28.2454 26.6668 29.1163 27.1418 29.1163 28.4482V30.3218C29.1163 31.6282 28.2454 32.1032 27.137 32.1032C26.0154 32.1032 25.1577 31.6282 25.1577 30.3218ZM27.7967 28.4482C27.7967 28.0128 27.5459 27.8148 27.1369 27.8148C26.7279 27.8148 26.4903 28.0128 26.4903 28.4482V30.3218C26.4903 30.7573 26.7279 30.9553 27.1369 30.9553C27.5459 30.9553 27.7967 30.7573 27.7967 30.3218V28.4482Z" fill="url(#paint12_linear_15_3356)"/>
</g>
<defs>
<linearGradient id="paint0_linear_15_3356" x1="24" y1="3.35542" x2="24" y2="8.75006" gradientUnits="userSpaceOnUse">
<stop stop-color="#B3DAFE"/>
<stop offset="1" stop-color="#4FC123"/>
</linearGradient>
<linearGradient id="paint1_linear_15_3356" x1="24" y1="6.23585" x2="24" y2="12.59" gradientUnits="userSpaceOnUse">
<stop stop-color="#B3DAFE"/>
<stop offset="1" stop-color="#4FC123"/>
</linearGradient>
<linearGradient id="paint2_linear_15_3356" x1="1.84659" y1="-17.1007" x2="32.6846" y2="44.8434" gradientUnits="userSpaceOnUse">
<stop stop-color="#B3DAFE"/>
<stop offset="1" stop-color="#4FC123"/>
</linearGradient>
<linearGradient id="paint3_linear_15_3356" x1="46.0222" y1="64.2086" x2="18.268" y2="17.8176" gradientUnits="userSpaceOnUse">
<stop stop-color="#B3DAFE"/>
<stop offset="1" stop-color="#4FC123"/>
</linearGradient>
<linearGradient id="paint4_linear_15_3356" x1="24" y1="31.4212" x2="24" y2="41.7488" gradientUnits="userSpaceOnUse">
<stop stop-color="#4FC123" stop-opacity="0"/>
<stop offset="1" stop-color="#017B4E"/>
</linearGradient>
<linearGradient id="paint5_linear_15_3356" x1="5.01955" y1="8.41814" x2="34.3388" y2="37.7374" gradientUnits="userSpaceOnUse">
<stop stop-color="#4FC123" stop-opacity="0"/>
<stop offset="1" stop-color="#017B4E"/>
</linearGradient>
<linearGradient id="paint6_linear_15_3356" x1="39.7489" y1="43.1477" x2="12.3716" y2="15.7704" gradientUnits="userSpaceOnUse">
<stop stop-color="#4FC123" stop-opacity="0"/>
<stop offset="1" stop-color="#017B4E"/>
</linearGradient>
<linearGradient id="paint7_linear_15_3356" x1="10.5725" y1="13.9708" x2="25.6379" y2="29.0363" gradientUnits="userSpaceOnUse">
<stop stop-color="#4FC123" stop-opacity="0"/>
<stop offset="1" stop-color="#017B4E"/>
</linearGradient>
<linearGradient id="paint8_linear_15_3356" x1="24" y1="30.0201" x2="24" y2="40.1867" gradientUnits="userSpaceOnUse">
<stop stop-color="#5B3374" stop-opacity="0"/>
<stop offset="1" stop-color="#5B3374"/>
</linearGradient>
<linearGradient id="paint9_linear_15_3356" x1="28.8078" y1="31.0729" x2="21.8526" y2="27.1494" gradientUnits="userSpaceOnUse">
<stop stop-color="#5B3374" stop-opacity="0"/>
<stop offset="1" stop-color="#5B3374"/>
</linearGradient>
<linearGradient id="paint10_linear_15_3356" x1="24.2913" y1="28.9917" x2="18.2514" y2="26.0681" gradientUnits="userSpaceOnUse">
<stop stop-color="#5B3374" stop-opacity="0"/>
<stop offset="1" stop-color="#5B3374"/>
</linearGradient>
<linearGradient id="paint11_linear_15_3356" x1="31.8036" y1="32.8565" x2="24.4777" y2="28.5558" gradientUnits="userSpaceOnUse">
<stop stop-color="#5B3374" stop-opacity="0"/>
<stop offset="1" stop-color="#5B3374"/>
</linearGradient>
<linearGradient id="paint12_linear_15_3356" x1="19.1011" y1="27.2738" x2="23.0597" y2="27.2738" gradientUnits="userSpaceOnUse">
<stop stop-color="#EAF6FF"/>
<stop offset="1" stop-color="#B3DAFE"/>
</linearGradient>
<clipPath id="clip0_15_3356">
<rect width="48" height="48" fill="white"/>
</clipPath>
</defs>
</svg>
