<svg width="48" height="48" viewBox="0 0 48 48" fill="none" xmlns="http://www.w3.org/2000/svg">
<g clip-path="url(#clip0_15_2926)">
<path d="M33.8328 15.4265L32.5737 14.1674C31.9092 13.5028 30.8317 13.5028 30.1671 14.1674L0.498439 43.8361C-0.166126 44.5006 -0.166126 45.5781 0.498439 46.2428L1.75754 47.5019C2.42211 48.1664 3.49957 48.1664 4.16423 47.5019L33.8329 17.8332C34.4974 17.1685 34.4974 16.091 33.8328 15.4265Z" fill="url(#paint0_linear_15_2926)"/>
<path d="M33.8324 17.8325L32.7068 18.9581L27.4428 24.2221V16.8922L30.1675 14.1675C30.1873 14.1477 30.208 14.128 30.2287 14.1092C30.431 13.9256 30.6663 13.7995 30.9148 13.7317C31.4861 13.5717 32.1251 13.7176 32.5741 14.1675L32.6767 14.2701L33.8324 15.4259C34.4978 16.0903 34.4978 17.168 33.8324 17.8325Z" fill="url(#paint1_linear_15_2926)"/>
<path d="M32.7336 14.0528L27.8421 15.0546C27.0397 15.219 26.7421 16.2099 27.3214 16.7891L31.211 20.6787C31.7902 21.2579 32.7811 20.9604 32.9455 20.158L33.9473 15.2665C34.0954 14.5436 33.4565 13.9047 32.7336 14.0528Z" fill="url(#paint2_linear_15_2926)"/>
<path d="M32.7336 14.0528L28.5019 14.9195V17.9698L31.211 20.6787C31.7902 21.2579 32.7811 20.9604 32.9455 20.158L33.9474 15.2665C34.0954 14.5436 33.4565 13.9047 32.7336 14.0528Z" fill="url(#paint3_linear_15_2926)"/>
<path d="M45.7381 17.4109C47.5856 17.4345 48.6581 15.3295 47.5532 13.8487L45.1314 10.6035C44.6927 10.0154 44.5713 9.24921 44.8069 8.55434L46.1073 4.71961C46.7007 2.96987 45.0301 1.29928 43.2804 1.89269L39.4457 3.19312C38.7509 3.42869 37.9846 3.30737 37.3966 2.8686L34.1512 0.446857C32.6705 -0.658178 30.5654 0.414387 30.589 2.26192L30.6408 6.31086C30.6502 7.0445 30.2979 7.7357 29.699 8.15933L26.3929 10.4974C24.8844 11.5642 25.254 13.8977 27.0183 14.4461L30.885 15.6481C31.5856 15.8659 32.1343 16.4145 32.3521 17.1151L33.554 20.9818C34.1025 22.7462 36.4359 23.1158 37.5027 21.6072L39.8408 18.3012C40.2644 17.7021 40.9557 17.3499 41.6893 17.3593L45.7381 17.4109ZM41.5961 13.6113L39.6698 13.5866C39.3208 13.5822 38.9919 13.7497 38.7904 14.0347L37.678 15.6076C37.1704 16.3253 36.0603 16.1494 35.7993 15.3101L35.2274 13.4705C35.1238 13.1371 34.8628 12.8761 34.5295 12.7725L32.6898 12.2006C31.8504 11.9398 31.6746 10.8295 32.3923 10.322L33.9652 9.20959C34.2502 9.00808 34.4177 8.67914 34.4133 8.33015L34.3887 6.40385C34.3775 5.52488 35.379 5.01458 36.0834 5.54032L37.6274 6.6925C37.9072 6.90126 38.2718 6.95905 38.6023 6.84695L40.4268 6.22822C41.2593 5.94596 42.0541 6.74069 41.7717 7.57316L41.153 9.39763C41.0409 9.72817 41.0986 10.0928 41.3074 10.3725L42.4596 11.9165C42.9853 12.6211 42.475 13.6226 41.5961 13.6113Z" fill="url(#paint4_linear_15_2926)"/>
<path d="M37.5888 18.6599L39.3247 16.2052C39.6392 15.7605 40.1524 15.499 40.6971 15.5059L43.7033 15.5443C45.075 15.5618 45.8713 13.9989 45.0509 12.8995L43.2528 10.49C42.9269 10.0534 42.8369 9.48448 43.0118 8.96862L43.9774 6.12137C44.4179 4.82227 43.1776 3.58189 41.8785 4.02246L39.0312 4.98801C38.5153 5.16297 37.9464 5.07281 37.5098 4.74707L35.1003 2.94895C34.0009 2.12853 32.438 2.92486 32.4555 4.29653L32.4939 7.30274C32.5008 7.8474 32.2394 8.36062 31.7946 8.67516L29.3399 10.4111C28.2199 11.2032 28.4943 12.9357 29.8043 13.3428L32.6752 14.2353C33.1954 14.397 33.6028 14.8043 33.7645 15.3245L34.6569 18.1954C35.0641 19.5055 36.7967 19.7799 37.5888 18.6599ZM39.6697 13.5867C39.3207 13.5823 38.9918 13.7498 38.7903 14.0348L37.6779 15.6077C37.1703 16.3253 36.0602 16.1495 35.7992 15.3102L35.2273 13.4706C35.1237 13.1372 34.8627 12.8762 34.5294 12.7726L32.6897 12.2007C31.8503 11.9398 31.6745 10.8296 32.3922 10.322L33.9651 9.20966C34.2501 9.00815 34.4176 8.67921 34.4132 8.33022L34.3886 6.40391C34.3774 5.52495 35.3789 5.01464 36.0833 5.54039L37.6273 6.69257C37.9071 6.90133 38.2717 6.95912 38.6022 6.84702L40.4267 6.22829C41.2592 5.94603 42.054 6.74076 41.7716 7.57323L41.1529 9.3977C41.0408 9.72824 41.0985 10.0929 41.3073 10.3726L42.4595 11.9166C42.9853 12.621 42.475 13.6226 41.596 13.6114L39.6697 13.5867Z" fill="url(#paint5_linear_15_2926)"/>
<path d="M41.8136 17.3609L38.6649 14.2122L37.6779 15.6079C37.1703 16.3255 36.0602 16.1497 35.7992 15.3104L35.2273 13.4708C35.1237 13.1374 34.8627 12.8764 34.5294 12.7728L32.6897 12.2009C31.8503 11.94 31.6745 10.8298 32.3922 10.3222L33.7879 9.33523L30.6392 6.18652L30.6408 6.31095C30.6502 7.04459 30.2979 7.73579 29.699 8.15942L26.3929 10.4975C24.8844 11.5643 25.254 13.8978 27.0183 14.4462L30.885 15.6482C31.5856 15.866 32.1343 16.4146 32.3521 17.1152L33.554 20.9819C34.1024 22.7462 36.4359 23.1158 37.5027 21.6073L39.8408 18.3013C40.2644 17.7022 40.9557 17.35 41.6893 17.3594L41.8136 17.3609Z" fill="url(#paint6_linear_15_2926)"/>
<path d="M10.1858 41.4801L6.52009 37.8145L0.498439 43.8361C-0.166126 44.5007 -0.166126 45.5781 0.498439 46.2428L1.75754 47.5019C2.42211 48.1665 3.49957 48.1665 4.16423 47.5019L10.1858 41.4801Z" fill="url(#paint7_linear_15_2926)"/>
<path d="M22.0978 11.995C21.2191 10.2599 19.7799 8.85741 18.0183 8.02438C17.6773 7.86315 17.6773 7.38353 18.0183 7.22231C19.7799 6.38927 21.2191 4.98682 22.0978 3.25167C22.2611 2.92913 22.721 2.92913 22.8843 3.25167C23.763 4.98682 25.2023 6.38927 26.9639 7.22231C27.3049 7.38353 27.3049 7.86315 26.9639 8.02438C25.2023 8.85741 23.763 10.2599 22.8843 11.995C22.721 12.3176 22.2611 12.3176 22.0978 11.995Z" fill="url(#paint8_linear_15_2926)"/>
<path d="M40.8929 26.6464C40.3644 25.6029 39.4988 24.7595 38.4395 24.2585C38.2344 24.1615 38.2344 23.8731 38.4395 23.7761C39.4989 23.2751 40.3645 22.4316 40.8929 21.3882C40.9912 21.1942 41.2678 21.1942 41.3659 21.3882C41.8944 22.4316 42.76 23.2751 43.8194 23.7761C44.0245 23.8731 44.0245 24.1615 43.8194 24.2585C42.7599 24.7595 41.8943 25.6029 41.3659 26.6464C41.2677 26.8404 40.9912 26.8404 40.8929 26.6464Z" fill="url(#paint9_linear_15_2926)"/>
<path d="M15.7635 18.5839C15.235 17.5404 14.3694 16.697 13.31 16.196C13.1049 16.099 13.1049 15.8106 13.31 15.7136C14.3695 15.2126 15.2351 14.3691 15.7635 13.3257C15.8617 13.1317 16.1384 13.1317 16.2365 13.3257C16.765 14.3691 17.6306 15.2126 18.69 15.7136C18.8951 15.8106 18.8951 16.099 18.69 16.196C17.6305 16.697 16.7649 17.5404 16.2365 18.5839C16.1383 18.7779 15.8617 18.7779 15.7635 18.5839Z" fill="url(#paint10_linear_15_2926)"/>
<path d="M32.3595 31.1327C31.8311 30.0893 30.9655 29.2458 29.9061 28.7448C29.701 28.6478 29.701 28.3594 29.9061 28.2624C30.9656 27.7614 31.8312 26.918 32.3595 25.8745C32.4578 25.6805 32.7344 25.6805 32.8326 25.8745C33.361 26.918 34.2266 27.7614 35.286 28.2624C35.4911 28.3594 35.4911 28.6478 35.286 28.7448C34.2266 29.2458 33.361 30.0893 32.8326 31.1327C32.7344 31.3267 32.4578 31.3267 32.3595 31.1327Z" fill="url(#paint11_linear_15_2926)"/>
</g>
<defs>
<linearGradient id="paint0_linear_15_2926" x1="15.3367" y1="29.0154" x2="19.0018" y2="32.6806" gradientUnits="userSpaceOnUse">
<stop stop-color="#EDF5FF"/>
<stop offset="1" stop-color="#C7E9FF"/>
</linearGradient>
<linearGradient id="paint1_linear_15_2926" x1="25.2941" y1="22.7059" x2="31.4244" y2="16.5756" gradientUnits="userSpaceOnUse">
<stop stop-color="#7BACDF" stop-opacity="0"/>
<stop offset="1" stop-color="#7BACDF"/>
</linearGradient>
<linearGradient id="paint2_linear_15_2926" x1="29.851" y1="14.9178" x2="33.6785" y2="18.7454" gradientUnits="userSpaceOnUse">
<stop stop-color="#FFE177"/>
<stop offset="1" stop-color="#FE9738"/>
</linearGradient>
<linearGradient id="paint3_linear_15_2926" x1="29.1958" y1="19.1881" x2="32.1301" y2="16.2538" gradientUnits="userSpaceOnUse">
<stop stop-color="#FE9738" stop-opacity="0"/>
<stop offset="1" stop-color="#FE7701"/>
</linearGradient>
<linearGradient id="paint4_linear_15_2926" x1="36.7176" y1="0.937041" x2="36.7176" y2="19.8487" gradientUnits="userSpaceOnUse">
<stop stop-color="#FFE177"/>
<stop offset="1" stop-color="#FE9738"/>
</linearGradient>
<linearGradient id="paint5_linear_15_2926" x1="37.004" y1="22.5477" x2="37.004" y2="-6.30832" gradientUnits="userSpaceOnUse">
<stop stop-color="#FFE177"/>
<stop offset="1" stop-color="#FE9738"/>
</linearGradient>
<linearGradient id="paint6_linear_15_2926" x1="34.7884" y1="13.1988" x2="30.2968" y2="17.6905" gradientUnits="userSpaceOnUse">
<stop stop-color="#FE9738" stop-opacity="0"/>
<stop offset="1" stop-color="#FE7701"/>
</linearGradient>
<linearGradient id="paint7_linear_15_2926" x1="4.70587" y1="43.2944" x2="0.940886" y2="47.0593" gradientUnits="userSpaceOnUse">
<stop stop-color="#7BACDF" stop-opacity="0"/>
<stop offset="1" stop-color="#7BACDF"/>
</linearGradient>
<linearGradient id="paint8_linear_15_2926" x1="20.0349" y1="5.16715" x2="24.9473" y2="10.0795" gradientUnits="userSpaceOnUse">
<stop stop-color="#FFE177"/>
<stop offset="1" stop-color="#FE9738"/>
</linearGradient>
<linearGradient id="paint9_linear_15_2926" x1="39.6523" y1="22.5401" x2="42.6066" y2="25.4944" gradientUnits="userSpaceOnUse">
<stop stop-color="#FFE177"/>
<stop offset="1" stop-color="#FE9738"/>
</linearGradient>
<linearGradient id="paint10_linear_15_2926" x1="14.5228" y1="14.4776" x2="17.4772" y2="17.432" gradientUnits="userSpaceOnUse">
<stop stop-color="#FFE177"/>
<stop offset="1" stop-color="#FE9738"/>
</linearGradient>
<linearGradient id="paint11_linear_15_2926" x1="31.1189" y1="27.0264" x2="34.0733" y2="29.9807" gradientUnits="userSpaceOnUse">
<stop stop-color="#FFE177"/>
<stop offset="1" stop-color="#FE9738"/>
</linearGradient>
<clipPath id="clip0_15_2926">
<rect width="48" height="48" fill="white"/>
</clipPath>
</defs>
</svg>
