<svg width="48" height="48" viewBox="0 0 48 48" fill="none" xmlns="http://www.w3.org/2000/svg">
<g clip-path="url(#clip0_15_3168)">
<path d="M34.3342 9.04259C35.1262 10.321 36.2265 11.2487 37.385 11.7316C37.6276 11.8328 38.1185 11.5286 38.136 11.2664C38.2195 10.0141 37.879 8.61577 37.087 7.33737C36.295 6.05897 35.1947 5.13125 34.0363 4.64833C33.7936 4.54716 33.3027 4.85134 33.2852 5.11356C33.2016 6.36579 33.5422 7.7641 34.3342 9.04259Z" fill="url(#paint0_linear_15_3168)"/>
<path d="M33.5762 4.74472L37.8448 11.6354C38.0001 11.5392 38.1272 11.3976 38.1359 11.2664C38.2194 10.0141 37.8789 8.61578 37.0869 7.33738C36.2949 6.05898 35.1946 5.13127 34.0362 4.64835C33.9149 4.59771 33.7315 4.64854 33.5762 4.74472Z" fill="url(#paint1_linear_15_3168)"/>
<path d="M39.2442 9.80646C38.7497 11.2736 38.7233 12.7509 39.0799 13.9798C39.1547 14.2372 39.7019 14.4216 39.9171 14.262C40.9449 13.4996 41.8182 12.3078 42.3127 10.8407C42.8072 9.37362 42.8335 7.89625 42.4769 6.66736C42.4022 6.40994 41.855 6.22557 41.6397 6.38519C40.612 7.14745 39.7387 8.33936 39.2442 9.80646Z" fill="url(#paint2_linear_15_3168)"/>
<path d="M39.2442 9.80646C38.7497 11.2736 38.7233 12.7509 39.0799 13.9798C39.1547 14.2372 39.7019 14.4216 39.9171 14.262C40.9449 13.4996 41.8182 12.3078 42.3127 10.8407C42.8072 9.37362 42.8335 7.89625 42.4769 6.66736C42.4022 6.40994 41.855 6.22557 41.6397 6.38519C40.612 7.14745 39.7387 8.33936 39.2442 9.80646Z" fill="url(#paint3_linear_15_3168)"/>
<path d="M42.1111 6.36963L39.4459 14.2771C39.6189 14.3355 39.8095 14.3417 39.9172 14.2619C40.945 13.4995 41.8183 12.3077 42.3128 10.8406C42.8073 9.37349 42.8336 7.89612 42.477 6.66723C42.4396 6.53838 42.2842 6.42798 42.1111 6.36963Z" fill="url(#paint4_linear_15_3168)"/>
<path d="M35.3928 12.0028C36.9072 12.3242 38.1921 13.0538 39.0683 13.9865C39.2517 14.1818 39.1318 14.7468 38.8848 14.8507C37.7055 15.3471 36.235 15.4918 34.7205 15.1704C33.2061 14.849 31.9212 14.1194 31.045 13.1867C30.8616 12.9914 30.9815 12.4264 31.2285 12.3225C32.4079 11.826 33.8783 11.6814 35.3928 12.0028Z" fill="url(#paint5_linear_15_3168)"/>
<path d="M30.9753 12.7202L39.1379 14.4528C39.1 14.6315 39.0083 14.7987 38.8847 14.8507C37.7054 15.347 36.2349 15.4918 34.7204 15.1704C33.206 14.849 31.9211 14.1194 31.0449 13.1867C30.9533 13.089 30.9374 12.8989 30.9753 12.7202Z" fill="url(#paint6_linear_15_3168)"/>
<path d="M41.7344 15.8495C40.7981 17.36 40.3823 19.0044 40.4594 20.4713C40.4756 20.7785 41.0391 21.1278 41.3214 21.0057C42.6696 20.4225 43.9575 19.3186 44.8939 17.8082C45.8303 16.2977 46.2461 14.6532 46.1689 13.1863C46.1527 12.8791 45.5892 12.5298 45.3069 12.6519C43.9586 13.2352 42.6708 14.339 41.7344 15.8495Z" fill="url(#paint7_linear_15_3168)"/>
<path d="M41.7344 15.8495C40.7981 17.36 40.3823 19.0044 40.4594 20.4713C40.4756 20.7785 41.0391 21.1278 41.3214 21.0057C42.6696 20.4225 43.9575 19.3186 44.8939 17.8082C45.8303 16.2977 46.2461 14.6532 46.1689 13.1863C46.1527 12.8791 45.5892 12.5298 45.3069 12.6519C43.9586 13.2352 42.6708 14.339 41.7344 15.8495Z" fill="url(#paint8_linear_15_3168)"/>
<path d="M45.8376 12.7583L40.7906 20.8997C40.9688 21.0102 41.1803 21.0669 41.3215 21.0058C42.6696 20.4226 43.9575 19.3188 44.8939 17.8083C45.8303 16.2978 46.2461 14.6534 46.1689 13.1864C46.1607 13.0328 46.0158 12.8687 45.8376 12.7583Z" fill="url(#paint9_linear_15_3168)"/>
<path d="M36.8551 17.2974C38.4637 18.0528 39.7091 19.2042 40.4445 20.476C40.5984 20.7423 40.3166 21.3424 40.0134 21.394C38.5653 21.6404 36.8838 21.4176 35.2751 20.6622C33.6665 19.9068 32.4211 18.7554 31.6858 17.4837C31.5318 17.2173 31.8136 16.6172 32.1168 16.5657C33.5649 16.3193 35.2464 16.542 36.8551 17.2974Z" fill="url(#paint10_linear_15_3168)"/>
<path d="M31.7298 16.9443L40.4004 21.0157C40.3113 21.2054 40.165 21.3683 40.0134 21.3941C38.5653 21.6405 36.8838 21.4177 35.2751 20.6624C33.6665 19.907 32.4211 18.7555 31.6858 17.4838C31.6088 17.3507 31.6408 17.1341 31.7298 16.9443Z" fill="url(#paint11_linear_15_3168)"/>
<path d="M42.0506 22.7907C40.4811 24.2017 39.4606 25.9384 39.0613 27.6365C38.9776 27.992 39.504 28.5775 39.8665 28.5321C41.5974 28.3151 43.4324 27.4845 45.0019 26.0735C46.5714 24.6624 47.5918 22.9258 47.9912 21.2277C48.0749 20.8721 47.5485 20.2866 47.186 20.3321C45.4551 20.5491 43.62 21.3797 42.0506 22.7907Z" fill="url(#paint12_linear_15_3168)"/>
<path d="M42.0506 22.7907C40.4811 24.2017 39.4606 25.9384 39.0613 27.6365C38.9776 27.992 39.504 28.5775 39.8665 28.5321C41.5974 28.3151 43.4324 27.4845 45.0019 26.0735C46.5714 24.6624 47.5918 22.9258 47.9912 21.2277C48.0749 20.8721 47.5485 20.2866 47.186 20.3321C45.4551 20.5491 43.62 21.3797 42.0506 22.7907Z" fill="url(#paint13_linear_15_3168)"/>
<path d="M47.7559 20.6294L39.2966 28.2346C39.4631 28.4197 39.6852 28.5548 39.8665 28.532C41.5974 28.3149 43.4324 27.4844 45.0019 26.0733C46.5714 24.6623 47.5918 22.9257 47.9912 21.2276C48.0329 21.0498 47.9223 20.8146 47.7559 20.6294Z" fill="url(#paint14_linear_15_3168)"/>
<path d="M36.0066 22.82C37.5896 24.2156 38.627 25.9423 39.0428 27.6365C39.1299 27.9913 38.6092 28.5818 38.2463 28.54C36.5134 28.3398 34.6704 27.527 33.0872 26.1313C31.5041 24.7356 30.4668 23.0089 30.051 21.3147C29.9639 20.9599 30.4846 20.3694 30.8475 20.4113C32.5804 20.6115 34.4234 21.4242 36.0066 22.82Z" fill="url(#paint15_linear_15_3168)"/>
<path d="M30.2805 20.7144L38.8132 28.2371C38.6486 28.4238 38.4277 28.5609 38.2463 28.5401C36.5134 28.3399 34.6704 27.5271 33.0872 26.1314C31.5041 24.7356 30.4668 23.009 30.051 21.3148C30.0075 21.1375 30.1158 20.9012 30.2805 20.7144Z" fill="url(#paint16_linear_15_3168)"/>
<path d="M32.8775 27.8884C34.0229 29.661 34.5533 31.6043 34.4942 33.3477C34.4819 33.7128 33.8206 34.1401 33.4827 34.0013C31.8689 33.3389 30.3152 32.0569 29.1698 30.2843C28.0244 28.5117 27.4941 26.5684 27.5531 24.825C27.5654 24.4599 28.2267 24.0326 28.5646 24.1713C30.1784 24.8338 31.7321 26.1158 32.8775 27.8884Z" fill="url(#paint17_linear_15_3168)"/>
<path d="M27.9368 24.3091L34.1107 33.8633C33.9015 33.9985 33.6517 34.0706 33.4828 34.0012C31.8691 33.3387 30.3154 32.0568 29.1699 30.2841C28.0245 28.5115 27.4942 26.5683 27.5532 24.8248C27.5592 24.6423 27.7277 24.4441 27.9368 24.3091Z" fill="url(#paint18_linear_15_3168)"/>
<path d="M39.8877 30.0254C37.6073 30.6642 35.7172 31.9036 34.4711 33.413C34.2101 33.7292 34.4484 34.5798 34.8356 34.7143C36.6845 35.3567 38.9434 35.4338 41.2237 34.795C43.5041 34.1563 45.3942 32.9169 46.6403 31.4075C46.9013 31.0913 46.663 30.2407 46.2758 30.1062C44.4268 29.4637 42.168 29.3866 39.8877 30.0254Z" fill="url(#paint19_linear_15_3168)"/>
<path d="M39.8877 30.0254C37.6073 30.6642 35.7172 31.9036 34.4711 33.413C34.2101 33.7292 34.4484 34.5798 34.8356 34.7143C36.6845 35.3567 38.9434 35.4338 41.2237 34.795C43.5041 34.1563 45.3942 32.9169 46.6403 31.4075C46.9013 31.0913 46.663 30.2407 46.2758 30.1062C44.4268 29.4637 42.168 29.3866 39.8877 30.0254Z" fill="url(#paint20_linear_15_3168)"/>
<path d="M46.7011 30.6885L34.4103 34.1315C34.4857 34.4005 34.642 34.6468 34.8356 34.7141C36.6845 35.3565 38.9434 35.4336 41.2237 34.7948C43.5041 34.1561 45.3942 32.9167 46.6403 31.4073C46.7708 31.2491 46.7765 30.9575 46.7011 30.6885Z" fill="url(#paint21_linear_15_3168)"/>
<path d="M23.7915 38.4532C23.1909 38.4532 22.704 37.9663 22.704 37.3657C22.704 36.7652 23.1909 36.2783 23.7915 36.2783C32.4013 36.2783 39.4058 29.2738 39.4058 20.664C39.4058 17.6577 38.5499 14.7392 36.9306 12.2239C36.6056 11.719 36.7513 11.046 37.2563 10.721C37.7615 10.396 38.4342 10.5417 38.7593 11.0468C40.605 13.9138 41.5806 17.2394 41.5806 20.6641C41.5806 30.4729 33.6003 38.4532 23.7915 38.4532Z" fill="url(#paint22_linear_15_3168)"/>
<path d="M36.3922 29.8735C33.5487 33.7536 28.9598 36.2782 23.7915 36.2782C23.1909 36.2782 22.704 36.7651 22.704 37.3657C22.704 37.9662 23.1909 38.4531 23.7915 38.4531C28.7103 38.4531 33.1689 36.4461 36.3922 33.2084V29.8735Z" fill="url(#paint23_linear_15_3168)"/>
<path d="M13.6659 9.04259C12.8739 10.321 11.7736 11.2487 10.6151 11.7316C10.3725 11.8328 9.88155 11.5286 9.86405 11.2664C9.78056 10.0141 10.1211 8.61577 10.9131 7.33737C11.7051 6.05897 12.8054 5.13125 13.9638 4.64833C14.2064 4.54716 14.6974 4.85134 14.7149 5.11356C14.7984 6.36579 14.4579 7.7641 13.6659 9.04259Z" fill="url(#paint24_linear_15_3168)"/>
<path d="M14.4239 4.74472L10.1553 11.6354C9.99998 11.5392 9.87292 11.3976 9.86417 11.2664C9.78069 10.0141 10.1212 8.61578 10.9132 7.33738C11.7052 6.05898 12.8055 5.13127 13.9639 4.64835C14.0853 4.59771 14.2686 4.64854 14.4239 4.74472Z" fill="url(#paint25_linear_15_3168)"/>
<path d="M8.75592 9.80646C9.25041 11.2736 9.27677 12.7509 8.92016 13.9798C8.84543 14.2372 8.29823 14.4216 8.08298 14.262C7.05521 13.4996 6.1819 12.3078 5.6874 10.8407C5.19291 9.37362 5.16656 7.89625 5.52317 6.66736C5.5979 6.40994 6.1451 6.22557 6.36034 6.38519C7.38811 7.14745 8.26143 8.33936 8.75592 9.80646Z" fill="url(#paint26_linear_15_3168)"/>
<path d="M8.75592 9.80646C9.25041 11.2736 9.27677 12.7509 8.92016 13.9798C8.84543 14.2372 8.29823 14.4216 8.08298 14.262C7.05521 13.4996 6.1819 12.3078 5.6874 10.8407C5.19291 9.37362 5.16656 7.89625 5.52317 6.66736C5.5979 6.40994 6.1451 6.22557 6.36034 6.38519C7.38811 7.14745 8.26143 8.33936 8.75592 9.80646Z" fill="url(#paint27_linear_15_3168)"/>
<path d="M5.88898 6.36963L8.5542 14.2771C8.38112 14.3355 8.19053 14.3417 8.08286 14.2619C7.05509 13.4995 6.18178 12.3077 5.68728 10.8406C5.19279 9.37349 5.16643 7.89612 5.52305 6.66723C5.56041 6.53838 5.71589 6.42798 5.88898 6.36963Z" fill="url(#paint28_linear_15_3168)"/>
<path d="M12.6073 12.0028C11.0928 12.3242 9.80795 13.0538 8.93181 13.9865C8.74837 14.1818 8.86828 14.7468 9.11524 14.8507C10.2946 15.3471 11.7651 15.4918 13.2796 15.1704C14.794 14.849 16.0789 14.1194 16.9551 13.1867C17.1385 12.9914 17.0186 12.4264 16.7716 12.3225C15.5922 11.826 14.1217 11.6814 12.6073 12.0028Z" fill="url(#paint29_linear_15_3168)"/>
<path d="M17.0248 12.7202L8.86218 14.4528C8.90011 14.6315 8.99178 14.7987 9.11536 14.8507C10.2947 15.347 11.7652 15.4918 13.2797 15.1704C14.7941 14.849 16.079 14.1194 16.9552 13.1867C17.0468 13.089 17.0627 12.8989 17.0248 12.7202Z" fill="url(#paint30_linear_15_3168)"/>
<path d="M6.26564 15.8495C7.20202 17.36 7.61783 19.0044 7.54065 20.4713C7.52446 20.7785 6.96098 21.1278 6.67863 21.0057C5.33049 20.4225 4.04258 19.3186 3.1062 17.8082C2.16983 16.2977 1.75402 14.6532 1.83119 13.1863C1.84738 12.8791 2.41086 12.5298 2.69322 12.6519C4.04145 13.2352 5.32926 14.339 6.26564 15.8495Z" fill="url(#paint31_linear_15_3168)"/>
<path d="M6.26564 15.8495C7.20202 17.36 7.61783 19.0044 7.54065 20.4713C7.52446 20.7785 6.96098 21.1278 6.67863 21.0057C5.33049 20.4225 4.04258 19.3186 3.1062 17.8082C2.16983 16.2977 1.75402 14.6532 1.83119 13.1863C1.84738 12.8791 2.41086 12.5298 2.69322 12.6519C4.04145 13.2352 5.32926 14.339 6.26564 15.8495Z" fill="url(#paint32_linear_15_3168)"/>
<path d="M2.16249 12.7583L7.20945 20.8997C7.03129 21.0102 6.8198 21.0669 6.67863 21.0058C5.33049 20.4226 4.04258 19.3188 3.1062 17.8083C2.16983 16.2978 1.75402 14.6534 1.83119 13.1864C1.83938 13.0328 1.98432 12.8687 2.16249 12.7583Z" fill="url(#paint33_linear_15_3168)"/>
<path d="M11.145 17.2974C9.53635 18.0528 8.29099 19.2042 7.55565 20.476C7.40167 20.7423 7.68346 21.3424 7.9867 21.394C9.4348 21.6404 11.1163 21.4176 12.725 20.6622C14.3336 19.9068 15.5791 18.7554 16.3143 17.4837C16.4683 17.2173 16.1865 16.6172 15.8833 16.5657C14.4352 16.3193 12.7537 16.542 11.145 17.2974Z" fill="url(#paint34_linear_15_3168)"/>
<path d="M16.2703 16.9443L7.59967 21.0157C7.6888 21.2054 7.83506 21.3683 7.98668 21.3941C9.43478 21.6405 11.1163 21.4177 12.7249 20.6624C14.3336 19.907 15.579 18.7555 16.3143 17.4838C16.3913 17.3507 16.3593 17.1341 16.2703 16.9443Z" fill="url(#paint35_linear_15_3168)"/>
<path d="M5.94949 22.7911C7.51899 24.2021 8.53941 25.9388 8.93876 27.6369C9.02243 27.9924 8.49603 28.5779 8.13358 28.5325C6.40266 28.3154 4.56765 27.4849 2.99814 26.0738C1.42864 24.6628 0.408215 22.9263 0.00887397 21.2282C-0.0747966 20.8726 0.451603 20.2871 0.81405 20.3326C2.54497 20.5495 4.38007 21.3801 5.94949 22.7911Z" fill="url(#paint36_linear_15_3168)"/>
<path d="M5.94949 22.7911C7.51899 24.2021 8.53941 25.9388 8.93876 27.6369C9.02243 27.9924 8.49603 28.5779 8.13358 28.5325C6.40266 28.3154 4.56765 27.4849 2.99814 26.0738C1.42864 24.6628 0.408215 22.9263 0.00887397 21.2282C-0.0747966 20.8726 0.451603 20.2871 0.81405 20.3326C2.54497 20.5495 4.38007 21.3801 5.94949 22.7911Z" fill="url(#paint37_linear_15_3168)"/>
<path d="M0.244151 20.6299L8.70345 28.2351C8.53695 28.4202 8.31483 28.5552 8.13356 28.5325C6.40265 28.3154 4.56763 27.4848 2.99813 26.0738C1.42872 24.6629 0.408198 22.9263 0.0088566 21.2282C-0.0329316 21.0503 0.0777507 20.8151 0.244151 20.6299Z" fill="url(#paint38_linear_15_3168)"/>
<path d="M11.9935 22.8204C10.4105 24.2161 9.3731 25.9428 8.95729 27.637C8.87023 27.9918 9.39089 28.5823 9.75381 28.5404C11.4867 28.3403 13.3297 27.5275 14.9129 26.1318C16.496 24.7361 17.5333 23.0094 17.9491 21.3152C18.0362 20.9604 17.5155 20.3699 17.1526 20.4118C15.4197 20.612 13.5767 21.4247 11.9935 22.8204Z" fill="url(#paint39_linear_15_3168)"/>
<path d="M17.7195 20.7148L9.18683 28.2376C9.35144 28.4243 9.57233 28.5614 9.75379 28.5405C11.4867 28.3404 13.3297 27.5276 14.9129 26.1319C16.4959 24.7361 17.5333 23.0095 17.9491 21.3153C17.9926 21.138 17.8842 20.9017 17.7195 20.7148Z" fill="url(#paint40_linear_15_3168)"/>
<path d="M15.1225 27.8884C13.9771 29.661 13.4468 31.6043 13.5058 33.3477C13.5181 33.7128 14.1794 34.1401 14.5173 34.0013C16.1311 33.3389 17.6848 32.0569 18.8302 30.2843C19.9756 28.5117 20.506 26.5684 20.4469 24.825C20.4346 24.4599 19.7733 24.0326 19.4354 24.1713C17.8216 24.8338 16.2679 26.1158 15.1225 27.8884Z" fill="url(#paint41_linear_15_3168)"/>
<path d="M20.0632 24.3091L13.8894 33.8633C14.0985 33.9985 14.3483 34.0706 14.5173 34.0012C16.131 33.3387 17.6847 32.0568 18.8301 30.2841C19.9755 28.5115 20.5059 26.5683 20.4469 24.8248C20.4408 24.6423 20.2724 24.4441 20.0632 24.3091Z" fill="url(#paint42_linear_15_3168)"/>
<path d="M8.11236 30.0254C10.3927 30.6642 12.2828 31.9036 13.5289 33.413C13.7899 33.7292 13.5516 34.5798 13.1644 34.7143C11.3155 35.3567 9.05664 35.4338 6.77626 34.795C4.49588 34.1563 2.60581 32.9169 1.3597 31.4075C1.09871 31.0913 1.33701 30.2407 1.72421 30.1062C3.57316 29.4637 5.83198 29.3866 8.11236 30.0254Z" fill="url(#paint43_linear_15_3168)"/>
<path d="M8.11236 30.0254C10.3927 30.6642 12.2828 31.9036 13.5289 33.413C13.7899 33.7292 13.5516 34.5798 13.1644 34.7143C11.3155 35.3567 9.05664 35.4338 6.77626 34.795C4.49588 34.1563 2.60581 32.9169 1.3597 31.4075C1.09871 31.0913 1.33701 30.2407 1.72421 30.1062C3.57316 29.4637 5.83198 29.3866 8.11236 30.0254Z" fill="url(#paint44_linear_15_3168)"/>
<path d="M1.29892 30.6885L13.5897 34.1315C13.5144 34.4005 13.358 34.6468 13.1644 34.7141C11.3155 35.3565 9.05666 35.4336 6.77628 34.7948C4.49591 34.1561 2.60584 32.9167 1.35972 31.4073C1.22918 31.2491 1.22353 30.9575 1.29892 30.6885Z" fill="url(#paint45_linear_15_3168)"/>
<path d="M24.2086 38.4532C24.8091 38.4532 25.296 37.9663 25.296 37.3657C25.296 36.7652 24.8091 36.2783 24.2086 36.2783C15.5988 36.2783 8.59427 29.2738 8.59427 20.664C8.59427 17.6577 9.45018 14.7392 11.0695 12.2239C11.3945 11.719 11.2488 11.046 10.7437 10.721C10.2386 10.396 9.56585 10.5417 9.24077 11.0468C7.39502 13.9138 6.41949 17.2394 6.41949 20.6641C6.41949 30.4729 14.3997 38.4532 24.2086 38.4532Z" fill="url(#paint46_linear_15_3168)"/>
<path d="M15.8688 38.0426C17.6414 36.8972 19.5846 36.3668 21.328 36.4258C21.6931 36.4381 22.1204 37.0994 21.9817 37.4374C21.3192 39.0511 20.0372 40.6048 18.2646 41.7502C16.492 42.8957 14.5488 43.426 12.8053 43.367C12.4402 43.3547 12.0129 42.6934 12.1517 42.3554C12.8143 40.7417 14.0961 39.188 15.8688 38.0426Z" fill="url(#paint47_linear_15_3168)"/>
<path d="M12.2896 42.9834L21.8438 36.8096C21.979 37.0187 22.0511 37.2685 21.9817 37.4374C21.3192 39.0512 20.0372 40.6049 18.2646 41.7503C16.492 42.8957 14.5488 43.426 12.8053 43.367C12.6228 43.3609 12.4247 43.1925 12.2896 42.9834Z" fill="url(#paint48_linear_15_3168)"/>
<path d="M32.1314 38.0426C30.3588 36.8972 28.4155 36.3668 26.6721 36.4258C26.307 36.4381 25.8797 37.0994 26.0184 37.4374C26.6809 39.0511 27.9629 40.6048 29.7355 41.7502C31.5081 42.8957 33.4514 43.426 35.1948 43.367C35.5599 43.3547 35.9872 42.6934 35.8485 42.3554C35.1859 40.7417 33.904 39.188 32.1314 38.0426Z" fill="url(#paint49_linear_15_3168)"/>
<path d="M35.7105 42.9834L26.1563 36.8096C26.0211 37.0187 25.949 37.2685 26.0184 37.4374C26.6809 39.0512 27.9628 40.6049 29.7355 41.7503C31.5081 42.8957 33.4513 43.426 35.1948 43.367C35.3773 43.3609 35.5754 43.1925 35.7105 42.9834Z" fill="url(#paint50_linear_15_3168)"/>
<path d="M29.8258 34.4146L27.0395 33.7414C26.7803 33.6788 26.5538 33.5216 26.4044 33.3007L24.7983 30.9265C24.604 30.6394 24.3063 30.4853 24.0001 30.4604C23.6938 30.4853 23.3962 30.6394 23.2018 30.9265L21.5957 33.3007C21.4463 33.5216 21.2198 33.6787 20.9606 33.7414L18.1744 34.4146C17.4186 34.5972 17.1036 35.4993 17.5814 36.1127L19.3431 38.3739C19.507 38.5842 19.5864 38.8481 19.5659 39.114L19.3452 41.9719C19.2853 42.7471 20.0459 43.3254 20.7769 43.0605L23.4718 42.0838C23.642 42.0221 23.8237 42.0061 24 42.0334C24.1762 42.0061 24.3579 42.0221 24.5281 42.0838L27.223 43.0605C27.954 43.3254 28.7146 42.747 28.6547 41.9719L28.434 39.114C28.4135 38.8481 28.4929 38.5842 28.6568 38.3739L30.4185 36.1127C30.8964 35.4993 30.5815 34.5972 29.8258 34.4146Z" fill="url(#paint51_linear_15_3168)"/>
<path d="M24.5282 42.0838L27.2231 43.0605C27.9541 43.3254 28.7147 42.747 28.6548 41.9719L28.4341 39.114C28.4136 38.8481 28.493 38.5842 28.6569 38.3739L30.4186 36.1127C30.8964 35.4993 30.5814 34.5973 29.8256 34.4146L27.0394 33.7414C26.7802 33.6788 26.5537 33.5216 26.4043 33.3007L24.7982 30.9265C24.6039 30.6394 24.3062 30.4853 23.9999 30.4604V42.0334C24.1763 42.0061 24.358 42.0221 24.5282 42.0838Z" fill="url(#paint52_linear_15_3168)"/>
<path d="M29.8258 34.4148L27.0395 33.7416C26.9444 33.7187 26.8538 33.6827 26.7697 33.6357L19.667 42.8228C19.9456 43.092 20.3659 43.2097 20.7769 43.0608L23.4718 42.0841C23.6421 42.0224 23.8237 42.0065 24 42.0338C24.1763 42.0065 24.3579 42.0224 24.5282 42.0841L27.223 43.0608C27.9541 43.3257 28.7146 42.7474 28.6548 41.9722L28.4341 39.1143C28.4135 38.8484 28.493 38.5845 28.6568 38.3742L30.4185 36.113C30.8965 35.4996 30.5815 34.5974 29.8258 34.4148Z" fill="url(#paint53_linear_15_3168)"/>
<path d="M18.1744 34.4148L20.9606 33.7416C21.0558 33.7187 21.1463 33.6827 21.2304 33.6357L28.3331 42.8228C28.0545 43.092 27.6342 43.2097 27.2232 43.0608L24.5283 42.0841C24.3581 42.0224 24.1764 42.0065 24.0001 42.0338C23.8239 42.0065 23.6422 42.0224 23.472 42.0841L20.7771 43.0608C20.0461 43.3257 19.2855 42.7474 19.3454 41.9722L19.5661 39.1143C19.5866 38.8484 19.5072 38.5845 19.3433 38.3742L17.5815 36.1129C17.1037 35.4996 17.4186 34.5974 18.1744 34.4148Z" fill="url(#paint54_linear_15_3168)"/>
<path d="M17.4328 35.0601C17.3003 35.3942 17.3321 35.7923 17.5815 36.1125L19.3432 38.3737C19.5071 38.584 19.5865 38.8479 19.566 39.1138L19.3453 41.9717C19.2854 42.7469 20.046 43.3252 20.777 43.0602L23.4719 42.0836C23.6421 42.0218 23.8238 42.0059 24 42.0332C24.1763 42.0059 24.358 42.0218 24.5282 42.0836L27.2231 43.0602C27.9541 43.3252 28.7147 42.7468 28.6548 41.9717L28.4341 39.1138C28.4227 38.9663 28.4431 38.8197 28.4907 38.6822L17.4328 35.0601Z" fill="url(#paint55_linear_15_3168)"/>
<path d="M30.5684 35.0601C30.7009 35.3942 30.6691 35.7923 30.4197 36.1125L28.658 38.3737C28.4942 38.584 28.4147 38.8479 28.4352 39.1138L28.656 41.9717C28.7158 42.7469 27.9552 43.3252 27.2242 43.0602L24.5294 42.0836C24.3591 42.0218 24.1775 42.0059 24.0012 42.0332C23.8249 42.0059 23.6432 42.0218 23.473 42.0836L20.7781 43.0602C20.0471 43.3252 19.2865 42.7468 19.3464 41.9717L19.5671 39.1138C19.5785 38.9663 19.5581 38.8197 19.5105 38.6822L30.5684 35.0601Z" fill="url(#paint56_linear_15_3168)"/>
<path d="M29.5341 37.248H18.466L19.3432 38.3739C19.507 38.5842 19.5865 38.8481 19.566 39.114L19.3453 41.9719C19.2854 42.7472 20.046 43.3254 20.777 43.0605L23.4718 42.0838C23.6421 42.0221 23.8237 42.0062 24 42.0335C24.1763 42.0062 24.358 42.0221 24.5282 42.0838L27.2231 43.0605C27.9541 43.3254 28.7147 42.7471 28.6548 41.9719L28.4341 39.114C28.4136 38.8481 28.493 38.5842 28.6569 38.3739L29.5341 37.248Z" fill="url(#paint57_linear_15_3168)"/>
</g>
<defs>
<linearGradient id="paint0_linear_15_3168" x1="33.7775" y1="8.34199" x2="38.6068" y2="9.31928" gradientUnits="userSpaceOnUse">
<stop stop-color="#BBEC6C"/>
<stop offset="1" stop-color="#81B823"/>
</linearGradient>
<linearGradient id="paint1_linear_15_3168" x1="36.3902" y1="7.3868" x2="35.2102" y2="10.3723" gradientUnits="userSpaceOnUse">
<stop stop-color="#78A91F" stop-opacity="0"/>
<stop offset="1" stop-color="#78A91F"/>
</linearGradient>
<linearGradient id="paint2_linear_15_3168" x1="38.5174" y1="8.83703" x2="40.2384" y2="14.3767" gradientUnits="userSpaceOnUse">
<stop stop-color="#BBEC6C"/>
<stop offset="1" stop-color="#81B823"/>
</linearGradient>
<linearGradient id="paint3_linear_15_3168" x1="40.3115" y1="10.9328" x2="38.9775" y2="12.6726" gradientUnits="userSpaceOnUse">
<stop stop-color="#78A91F" stop-opacity="0"/>
<stop offset="1" stop-color="#78A91F"/>
</linearGradient>
<linearGradient id="paint4_linear_15_3168" x1="42.0429" y1="10.6198" x2="38.5469" y2="12.5549" gradientUnits="userSpaceOnUse">
<stop stop-color="#78A91F" stop-opacity="0"/>
<stop offset="1" stop-color="#78A91F"/>
</linearGradient>
<linearGradient id="paint5_linear_15_3168" x1="34.7265" y1="10.893" x2="38.6171" y2="15.1941" gradientUnits="userSpaceOnUse">
<stop stop-color="#BBEC6C"/>
<stop offset="1" stop-color="#81B823"/>
</linearGradient>
<linearGradient id="paint6_linear_15_3168" x1="34.466" y1="14.8341" x2="37.9091" y2="12.8145" gradientUnits="userSpaceOnUse">
<stop stop-color="#78A91F" stop-opacity="0"/>
<stop offset="1" stop-color="#78A91F"/>
</linearGradient>
<linearGradient id="paint7_linear_15_3168" x1="41.5641" y1="14.259" x2="42.0342" y2="20.8993" gradientUnits="userSpaceOnUse">
<stop stop-color="#BBEC6C"/>
<stop offset="1" stop-color="#81B823"/>
</linearGradient>
<linearGradient id="paint8_linear_15_3168" x1="43.2471" y1="16.8891" x2="40.9273" y2="18.9769" gradientUnits="userSpaceOnUse">
<stop stop-color="#78A91F" stop-opacity="0"/>
<stop offset="1" stop-color="#78A91F"/>
</linearGradient>
<linearGradient id="paint9_linear_15_3168" x1="45.0374" y1="17.1755" x2="40.6304" y2="18.425" gradientUnits="userSpaceOnUse">
<stop stop-color="#78A91F" stop-opacity="0"/>
<stop offset="1" stop-color="#78A91F"/>
</linearGradient>
<linearGradient id="paint10_linear_15_3168" x1="36.206" y1="15.8321" x2="39.431" y2="21.6605" gradientUnits="userSpaceOnUse">
<stop stop-color="#BBEC6C"/>
<stop offset="1" stop-color="#81B823"/>
</linearGradient>
<linearGradient id="paint11_linear_15_3168" x1="34.886" y1="20.1701" x2="39.2627" y2="18.8102" gradientUnits="userSpaceOnUse">
<stop stop-color="#78A91F" stop-opacity="0"/>
<stop offset="1" stop-color="#78A91F"/>
</linearGradient>
<linearGradient id="paint12_linear_15_3168" x1="42.0737" y1="20.9458" x2="40.4053" y2="28.6801" gradientUnits="userSpaceOnUse">
<stop stop-color="#BBEC6C"/>
<stop offset="1" stop-color="#81B823"/>
</linearGradient>
<linearGradient id="paint13_linear_15_3168" x1="43.1064" y1="24.5062" x2="40.1486" y2="25.0282" gradientUnits="userSpaceOnUse">
<stop stop-color="#78A91F" stop-opacity="0"/>
<stop offset="1" stop-color="#78A91F"/>
</linearGradient>
<linearGradient id="paint14_linear_15_3168" x1="45.0662" y1="25.4265" x2="39.6218" y2="25.3854" gradientUnits="userSpaceOnUse">
<stop stop-color="#78A91F" stop-opacity="0"/>
<stop offset="1" stop-color="#78A91F"/>
</linearGradient>
<linearGradient id="paint15_linear_15_3168" x1="35.555" y1="20.9723" x2="37.2962" y2="28.6894" gradientUnits="userSpaceOnUse">
<stop stop-color="#BBEC6C"/>
<stop offset="1" stop-color="#81B823"/>
</linearGradient>
<linearGradient id="paint16_linear_15_3168" x1="32.6108" y1="25.4795" x2="38.0557" y2="25.3789" gradientUnits="userSpaceOnUse">
<stop stop-color="#78A91F" stop-opacity="0"/>
<stop offset="1" stop-color="#78A91F"/>
</linearGradient>
<linearGradient id="paint17_linear_15_3168" x1="33.132" y1="25.9946" x2="32.7194" y2="33.8942" gradientUnits="userSpaceOnUse">
<stop stop-color="#BBEC6C"/>
<stop offset="1" stop-color="#81B823"/>
</linearGradient>
<linearGradient id="paint18_linear_15_3168" x1="29.0734" y1="29.5358" x2="34.339" y2="30.9186" gradientUnits="userSpaceOnUse">
<stop stop-color="#78A91F" stop-opacity="0"/>
<stop offset="1" stop-color="#78A91F"/>
</linearGradient>
<linearGradient id="paint19_linear_15_3168" x1="40.8675" y1="28.2805" x2="35.3467" y2="35.2237" gradientUnits="userSpaceOnUse">
<stop stop-color="#BBEC6C"/>
<stop offset="1" stop-color="#81B823"/>
</linearGradient>
<linearGradient id="paint20_linear_15_3168" x1="39.9431" y1="32.4103" x2="36.4634" y2="32.4103" gradientUnits="userSpaceOnUse">
<stop stop-color="#78A91F" stop-opacity="0"/>
<stop offset="1" stop-color="#78A91F"/>
</linearGradient>
<linearGradient id="paint21_linear_15_3168" x1="41.6496" y1="34.2721" x2="36.1943" y2="31.5219" gradientUnits="userSpaceOnUse">
<stop stop-color="#78A91F" stop-opacity="0"/>
<stop offset="1" stop-color="#78A91F"/>
</linearGradient>
<linearGradient id="paint22_linear_15_3168" x1="27.1299" y1="20.8121" x2="37.9596" y2="31.6417" gradientUnits="userSpaceOnUse">
<stop stop-color="#BBEC6C"/>
<stop offset="1" stop-color="#81B823"/>
</linearGradient>
<linearGradient id="paint23_linear_15_3168" x1="33.0668" y1="33.6764" x2="30.5569" y2="34.3666" gradientUnits="userSpaceOnUse">
<stop stop-color="#78A91F" stop-opacity="0"/>
<stop offset="1" stop-color="#78A91F"/>
</linearGradient>
<linearGradient id="paint24_linear_15_3168" x1="14.2251" y1="8.34444" x2="9.39571" y2="9.32173" gradientUnits="userSpaceOnUse">
<stop stop-color="#BBEC6C"/>
<stop offset="1" stop-color="#81B823"/>
</linearGradient>
<linearGradient id="paint25_linear_15_3168" x1="11.6123" y1="7.38921" x2="12.7923" y2="10.3747" gradientUnits="userSpaceOnUse">
<stop stop-color="#78A91F" stop-opacity="0"/>
<stop offset="1" stop-color="#78A91F"/>
</linearGradient>
<linearGradient id="paint26_linear_15_3168" x1="9.49358" y1="8.84933" x2="7.77256" y2="14.389" gradientUnits="userSpaceOnUse">
<stop stop-color="#BBEC6C"/>
<stop offset="1" stop-color="#81B823"/>
</linearGradient>
<linearGradient id="paint27_linear_15_3168" x1="7.68863" y1="10.9328" x2="9.02256" y2="12.6726" gradientUnits="userSpaceOnUse">
<stop stop-color="#78A91F" stop-opacity="0"/>
<stop offset="1" stop-color="#78A91F"/>
</linearGradient>
<linearGradient id="paint28_linear_15_3168" x1="5.968" y1="10.6321" x2="9.46408" y2="12.5672" gradientUnits="userSpaceOnUse">
<stop stop-color="#78A91F" stop-opacity="0"/>
<stop offset="1" stop-color="#78A91F"/>
</linearGradient>
<linearGradient id="paint29_linear_15_3168" x1="13.2681" y1="10.879" x2="9.37753" y2="15.18" gradientUnits="userSpaceOnUse">
<stop stop-color="#BBEC6C"/>
<stop offset="1" stop-color="#81B823"/>
</linearGradient>
<linearGradient id="paint30_linear_15_3168" x1="13.5286" y1="14.8201" x2="10.0855" y2="12.8005" gradientUnits="userSpaceOnUse">
<stop stop-color="#78A91F" stop-opacity="0"/>
<stop offset="1" stop-color="#78A91F"/>
</linearGradient>
<linearGradient id="paint31_linear_15_3168" x1="6.428" y1="14.253" x2="5.95789" y2="20.8932" gradientUnits="userSpaceOnUse">
<stop stop-color="#BBEC6C"/>
<stop offset="1" stop-color="#81B823"/>
</linearGradient>
<linearGradient id="paint32_linear_15_3168" x1="4.75298" y1="16.8891" x2="7.07279" y2="18.9769" gradientUnits="userSpaceOnUse">
<stop stop-color="#78A91F" stop-opacity="0"/>
<stop offset="1" stop-color="#78A91F"/>
</linearGradient>
<linearGradient id="paint33_linear_15_3168" x1="2.95469" y1="17.1694" x2="7.36178" y2="18.4189" gradientUnits="userSpaceOnUse">
<stop stop-color="#78A91F" stop-opacity="0"/>
<stop offset="1" stop-color="#78A91F"/>
</linearGradient>
<linearGradient id="paint34_linear_15_3168" x1="11.7979" y1="15.816" x2="8.57284" y2="21.6444" gradientUnits="userSpaceOnUse">
<stop stop-color="#BBEC6C"/>
<stop offset="1" stop-color="#81B823"/>
</linearGradient>
<linearGradient id="paint35_linear_15_3168" x1="13.1178" y1="20.1539" x2="8.74105" y2="18.7941" gradientUnits="userSpaceOnUse">
<stop stop-color="#78A91F" stop-opacity="0"/>
<stop offset="1" stop-color="#78A91F"/>
</linearGradient>
<linearGradient id="paint36_linear_15_3168" x1="5.93266" y1="20.9529" x2="7.601" y2="28.6872" gradientUnits="userSpaceOnUse">
<stop stop-color="#BBEC6C"/>
<stop offset="1" stop-color="#81B823"/>
</linearGradient>
<linearGradient id="paint37_linear_15_3168" x1="4.89367" y1="24.5066" x2="7.85142" y2="25.0286" gradientUnits="userSpaceOnUse">
<stop stop-color="#78A91F" stop-opacity="0"/>
<stop offset="1" stop-color="#78A91F"/>
</linearGradient>
<linearGradient id="paint38_linear_15_3168" x1="2.94009" y1="25.4337" x2="8.38457" y2="25.3925" gradientUnits="userSpaceOnUse">
<stop stop-color="#78A91F" stop-opacity="0"/>
<stop offset="1" stop-color="#78A91F"/>
</linearGradient>
<linearGradient id="paint39_linear_15_3168" x1="12.4569" y1="20.9624" x2="10.7157" y2="28.6795" gradientUnits="userSpaceOnUse">
<stop stop-color="#BBEC6C"/>
<stop offset="1" stop-color="#81B823"/>
</linearGradient>
<linearGradient id="paint40_linear_15_3168" x1="15.401" y1="25.4696" x2="9.95616" y2="25.369" gradientUnits="userSpaceOnUse">
<stop stop-color="#78A91F" stop-opacity="0"/>
<stop offset="1" stop-color="#78A91F"/>
</linearGradient>
<linearGradient id="paint41_linear_15_3168" x1="14.8714" y1="25.9947" x2="15.284" y2="33.8943" gradientUnits="userSpaceOnUse">
<stop stop-color="#BBEC6C"/>
<stop offset="1" stop-color="#81B823"/>
</linearGradient>
<linearGradient id="paint42_linear_15_3168" x1="18.9299" y1="29.5359" x2="13.6643" y2="30.9186" gradientUnits="userSpaceOnUse">
<stop stop-color="#78A91F" stop-opacity="0"/>
<stop offset="1" stop-color="#78A91F"/>
</linearGradient>
<linearGradient id="paint43_linear_15_3168" x1="7.13579" y1="28.2762" x2="12.6566" y2="35.2193" gradientUnits="userSpaceOnUse">
<stop stop-color="#BBEC6C"/>
<stop offset="1" stop-color="#81B823"/>
</linearGradient>
<linearGradient id="paint44_linear_15_3168" x1="8.05692" y1="32.4103" x2="11.5366" y2="32.4103" gradientUnits="userSpaceOnUse">
<stop stop-color="#78A91F" stop-opacity="0"/>
<stop offset="1" stop-color="#78A91F"/>
</linearGradient>
<linearGradient id="paint45_linear_15_3168" x1="6.35372" y1="34.2678" x2="11.809" y2="31.5176" gradientUnits="userSpaceOnUse">
<stop stop-color="#78A91F" stop-opacity="0"/>
<stop offset="1" stop-color="#78A91F"/>
</linearGradient>
<linearGradient id="paint46_linear_15_3168" x1="20.8701" y1="20.8121" x2="10.0405" y2="31.6417" gradientUnits="userSpaceOnUse">
<stop stop-color="#BBEC6C"/>
<stop offset="1" stop-color="#81B823"/>
</linearGradient>
<linearGradient id="paint47_linear_15_3168" x1="13.9672" y1="37.7865" x2="21.8668" y2="38.1991" gradientUnits="userSpaceOnUse">
<stop stop-color="#FEF0AE"/>
<stop offset="1" stop-color="#FBC56D"/>
</linearGradient>
<linearGradient id="paint48_linear_15_3168" x1="17.5086" y1="41.8452" x2="18.8914" y2="36.5796" gradientUnits="userSpaceOnUse">
<stop stop-color="#DC8758" stop-opacity="0"/>
<stop offset="0.9957" stop-color="#DC8758" stop-opacity="0.996"/>
<stop offset="1" stop-color="#DC8758"/>
</linearGradient>
<linearGradient id="paint49_linear_15_3168" x1="34.0233" y1="37.7856" x2="26.1237" y2="38.1982" gradientUnits="userSpaceOnUse">
<stop stop-color="#FEF0AE"/>
<stop offset="1" stop-color="#FBC56D"/>
</linearGradient>
<linearGradient id="paint50_linear_15_3168" x1="30.4819" y1="41.8442" x2="29.0992" y2="36.5786" gradientUnits="userSpaceOnUse">
<stop stop-color="#DC8758" stop-opacity="0"/>
<stop offset="0.9957" stop-color="#DC8758" stop-opacity="0.996"/>
<stop offset="1" stop-color="#DC8758"/>
</linearGradient>
<linearGradient id="paint51_linear_15_3168" x1="21.0406" y1="34.8012" x2="26.3774" y2="40.138" gradientUnits="userSpaceOnUse">
<stop stop-color="#FEF0AE"/>
<stop offset="1" stop-color="#FBC56D"/>
</linearGradient>
<linearGradient id="paint52_linear_15_3168" x1="27.1978" y1="36.2563" x2="19.8217" y2="39.3056" gradientUnits="userSpaceOnUse">
<stop stop-color="#F6A96C" stop-opacity="0"/>
<stop offset="0.9957" stop-color="#F6A96C" stop-opacity="0.996"/>
<stop offset="1" stop-color="#F6A96C"/>
</linearGradient>
<linearGradient id="paint53_linear_15_3168" x1="25.2719" y1="38.8742" x2="21.2336" y2="37.1435" gradientUnits="userSpaceOnUse">
<stop stop-color="#F6A96C" stop-opacity="0"/>
<stop offset="0.9957" stop-color="#F6A96C" stop-opacity="0.996"/>
<stop offset="1" stop-color="#F6A96C"/>
</linearGradient>
<linearGradient id="paint54_linear_15_3168" x1="22.7282" y1="38.8742" x2="26.7665" y2="37.1435" gradientUnits="userSpaceOnUse">
<stop stop-color="#F6A96C" stop-opacity="0"/>
<stop offset="0.9957" stop-color="#F6A96C" stop-opacity="0.996"/>
<stop offset="1" stop-color="#F6A96C"/>
</linearGradient>
<linearGradient id="paint55_linear_15_3168" x1="22.818" y1="39.0763" x2="25.4141" y2="34.9041" gradientUnits="userSpaceOnUse">
<stop stop-color="#F6A96C" stop-opacity="0"/>
<stop offset="0.9957" stop-color="#F6A96C" stop-opacity="0.996"/>
<stop offset="1" stop-color="#F6A96C"/>
</linearGradient>
<linearGradient id="paint56_linear_15_3168" x1="24.983" y1="38.5494" x2="24.7667" y2="34.4698" gradientUnits="userSpaceOnUse">
<stop stop-color="#F6A96C" stop-opacity="0"/>
<stop offset="0.9957" stop-color="#F6A96C" stop-opacity="0.996"/>
<stop offset="1" stop-color="#F6A96C"/>
</linearGradient>
<linearGradient id="paint57_linear_15_3168" x1="24" y1="39.5524" x2="24" y2="44.0854" gradientUnits="userSpaceOnUse">
<stop stop-color="#DC8758" stop-opacity="0"/>
<stop offset="0.9957" stop-color="#DC8758" stop-opacity="0.996"/>
<stop offset="1" stop-color="#DC8758"/>
</linearGradient>
<clipPath id="clip0_15_3168">
<rect width="48" height="48" fill="white"/>
</clipPath>
</defs>
</svg>
