<svg width="128" height="128" viewBox="0 0 128 128" fill="none" xmlns="http://www.w3.org/2000/svg">
<g clip-path="url(#clip0_15_2821)">
<path d="M48.1698 64.7927C47.134 64.7927 46.2948 65.6322 46.2948 66.6677C46.2948 68.4275 44.863 69.8592 43.1033 69.8592C41.3435 69.8592 39.9118 68.4275 39.9118 66.6677C39.9118 65.6322 39.0725 64.7927 38.0368 64.7927C34.1895 64.7927 36.434 73.6092 43.1033 73.6092C49.7925 73.6095 51.998 64.7927 48.1698 64.7927Z" fill="white"/>
<path d="M55.0383 53.6345C53.376 53.6345 52.0285 54.982 52.0285 56.6443C52.0285 58.3065 53.376 59.654 55.0383 59.654C56.7005 59.654 58.048 58.3065 58.048 56.6443C58.048 54.982 56.7005 53.6345 55.0383 53.6345Z" fill="white"/>
<path d="M51.3652 50.0167C52.8275 49.7117 57.531 49.1747 59.8845 50.6545C60.7615 51.206 61.919 50.9415 62.47 50.0652C64.4665 46.8887 57.1105 44.9885 50.6 46.3455C49.586 46.557 48.9357 47.55 49.147 48.5637C49.3585 49.5775 50.3525 50.2282 51.3652 50.0167Z" fill="white"/>
<path d="M31.1683 53.6345C29.506 53.6345 28.1585 54.982 28.1585 56.6443C28.1585 58.3065 29.506 59.654 31.1683 59.654C32.8305 59.654 34.178 58.3065 34.178 56.6443C34.178 54.982 32.8305 53.6345 31.1683 53.6345Z" fill="white"/>
<path d="M37.0593 48.5638C37.2708 47.5501 36.6203 46.5571 35.6063 46.3456C34.8783 46.1938 28.3725 44.9353 24.3258 47.4801C23.449 48.0313 23.1853 49.1886 23.7365 50.0653C24.2883 50.9423 25.4455 51.2056 26.322 50.6546C28.6728 49.1766 33.2688 49.6931 34.8425 50.0171C35.8565 50.2276 36.8483 49.5773 37.0593 48.5638Z" fill="white"/>
<path d="M127.713 122.833C126.872 115.155 123.24 109.439 119.838 105.655C123.782 102.439 126.157 97.561 126.157 92.4473C126.157 81.93 126.606 78.7328 124.203 73.569C127.676 68.576 126.965 62.5442 126.692 60.2482L126.676 60.1172C126.5 58.6247 125.232 57.499 123.727 57.499H112.623C111.118 57.499 109.85 58.6245 109.674 60.1172C109.604 60.708 109.554 61.2857 109.521 61.8532C108.094 61.549 106.637 61.3945 105.164 61.3945C101.536 61.3945 99.933 61.2967 97.3093 61.8607C97.2583 61.2207 97.1963 60.6902 97.128 60.1172C96.9518 58.6247 95.684 57.499 94.1788 57.499H83.075C81.5698 57.499 80.302 58.6245 80.1258 60.1172C79.4843 65.5522 80.362 69.9995 82.734 73.406C80.2393 78.6535 80.704 81.944 80.704 92.4473C80.704 97.5628 83.081 102.442 87.0275 105.658C86.144 106.641 85.327 107.663 84.5788 108.723C80.8795 95.709 69.9103 85.4652 55.9695 83.1732C63.0208 79.2542 68.033 72.2318 69.355 64.2158C74.6108 63.1553 78.534 58.4953 78.534 52.992C78.534 47.6455 74.7775 43.051 69.7115 41.85V30.648C71.1665 28.6928 72.388 26.3995 73.3845 23.746C74.6535 20.7965 75.0553 20.1547 75.0553 18.6925C75.0553 16.1975 73.4555 14.0895 71.2808 13.4493C72.4888 10.2648 73.555 9.04725 73.555 6.69575C73.5548 3.00375 70.7225 0 67.2413 0H31.2845C20.4988 0 11.1515 9.224 11.1515 22.0427C11.1515 23.0782 11.9908 23.9177 13.0265 23.9177C14.0623 23.9177 14.9015 23.0782 14.9015 22.0427C14.9015 11.2897 22.5915 3.75 31.2845 3.75H67.2413C69.1248 3.75 70.3805 6.02925 69.5345 7.9975C67.3983 12.964 67.1415 13.4245 67.1415 14.2443C67.1415 15.7638 68.377 17 69.8955 17C70.7388 17 71.3053 17.8752 71.3053 18.6925C71.3053 19.5217 70.5415 20.628 69.8885 22.3895C61.8715 43.8247 40.2565 30.8463 31.6518 39.416V34.5213C31.6518 32.416 29.8568 30.719 27.7245 30.8975C23.2403 31.27 18.7775 32.2093 15.7495 35.4533C15.3698 35.8593 14.9015 35.4752 14.9015 34.8975V29.5427C14.9015 28.5072 14.062 27.6677 13.0265 27.6677C11.991 27.6677 11.1515 28.5072 11.1515 29.5427V34.8975C11.1515 37.897 13.8023 39.9567 16.4938 39.2267V41.8478C11.4293 43.049 7.67376 47.6445 7.67376 52.992C7.67376 58.4928 11.5963 63.1525 16.8505 64.215C18.1735 72.2325 23.187 79.2548 30.239 83.1725C13.108 85.9875 0.258514 100.871 0.258514 118.56C0.258514 123.696 4.43601 127.875 9.57101 127.875H12.5398C13.5755 127.875 14.4148 127.036 14.4148 126C14.4148 124.964 13.5755 124.125 12.5398 124.125H9.57101C6.50376 124.125 4.00851 121.628 4.00851 118.56C4.00851 106.454 10.6505 95.9047 20.5613 90.4317V103.773C17.2145 104.613 14.728 107.646 14.728 111.25C14.728 115.501 18.186 118.959 22.4363 118.959C26.6868 118.959 30.1448 115.501 30.1448 111.25C30.1448 107.646 27.6585 104.613 24.3113 103.773V88.668C27.1048 87.5702 30.0943 86.85 33.2203 86.5725L41.2275 112.694V124.125H20.069C19.0333 124.125 18.194 124.964 18.194 126C18.194 127.036 19.0333 127.875 20.069 127.875H76.634C78.1233 127.875 79.5308 127.522 80.7805 126.897C81.6045 127.591 82.6595 128 83.7743 128H110.414C111.449 128 112.289 127.161 112.289 126.125C112.289 125.089 111.449 124.25 110.414 124.25H83.9995C86.2933 121.286 86.168 118.124 85.6718 114.112C86.8645 111.822 88.389 109.674 90.2258 107.712C94.6935 109.917 97.1268 109.465 109.139 109.465C111.745 109.465 114.308 108.861 116.637 107.711C119.752 111.043 123.217 116.22 123.986 123.24C124.047 123.79 123.616 124.25 123.085 124.25H117.914C116.878 124.25 116.039 125.089 116.039 126.125C116.039 127.16 116.878 128 117.914 128H123.085C125.839 128 128.017 125.605 127.713 122.833V122.833ZM69.7115 45.758C76.472 48.234 76.4393 57.7897 69.7068 60.2342C69.7135 59.719 69.7115 61.6735 69.7115 45.758ZM16.4938 45.7557C16.4938 61.7237 16.4918 59.705 16.4985 60.2327C9.76327 57.783 9.74352 48.2307 16.4938 45.7557V45.7557ZM26.395 111.25C26.395 113.433 24.619 115.209 22.4365 115.209C20.254 115.209 18.4783 113.432 18.4783 111.25C18.4783 109.068 20.254 107.291 22.4365 107.291C24.619 107.291 26.395 109.067 26.395 111.25ZM20.3753 62.3475C20.1943 60.681 20.2438 61.9912 20.2438 36.6125C22.0135 35.557 24.4435 34.9428 27.9015 34.6455V39.5617C27.9015 42.9467 31.8763 44.659 34.1755 42.2C39.1435 36.8778 55.0448 43.173 65.9615 34.538C65.9615 62.032 66.0115 60.6745 65.8298 62.3505C64.911 70.9392 59.0643 78.404 50.935 81.3682C36.7738 86.5257 21.921 76.7992 20.3753 62.3475V62.3475ZM36.893 85.758C40.9548 86.7303 45.2413 86.7318 49.3113 85.759L43.1038 106.019L36.893 85.758ZM80.4533 122.6C79.8535 122.851 79.0655 124.125 76.634 124.125H44.9778V112.702L52.9845 86.5723C56.111 86.8498 59.1013 87.5703 61.8953 88.6685V100.917C58.722 101.749 56.3738 104.641 56.3738 108.071V117.5C56.3738 118.536 57.213 119.375 58.2488 119.375C59.2845 119.375 60.1238 118.536 60.1238 117.5V108.071C60.1238 106.061 61.7593 104.425 63.7695 104.425C65.78 104.425 67.4155 106.061 67.4155 108.071V117.5C67.4155 118.536 68.255 119.375 69.2905 119.375C70.326 119.375 71.1655 118.536 71.1655 117.5V108.071C71.1655 104.641 68.8178 101.749 65.6453 100.917V90.4325C74.2675 95.1945 80.4155 103.798 81.8675 113.927C82.1508 117.298 82.921 120.264 80.4533 122.6V122.6ZM113.325 61.2492H123.033C123.608 66.3932 122.757 71.052 118.497 74.0423C118.414 74.1005 118.25 74.1005 118.166 74.042C114.414 71.415 112.787 67.1135 113.325 61.2492V61.2492ZM83.777 61.2492H93.4845C94.0563 66.3662 93.252 71.0218 88.949 74.0423C88.8655 74.1005 88.7015 74.1005 88.618 74.042C84.8663 71.415 83.2393 67.1135 83.777 61.2492V61.2492ZM109.139 105.715H97.7218C90.257 105.715 84.454 99.5408 84.454 92.4473C84.454 82.0623 84.1495 80.1328 85.5333 76.4088C85.8328 76.6523 86.1443 76.8872 86.4678 77.1137C87.8543 78.0845 89.717 78.0848 91.1038 77.1113C95.6458 73.923 97.0168 69.4037 97.32 65.7142C98.7438 65.3375 100.211 65.1445 101.697 65.1445C105.324 65.1445 106.957 65.0235 109.584 65.726C110.082 70.6467 112.232 74.465 116.016 77.1137C116.709 77.599 117.521 77.8415 118.333 77.8415C119.746 77.8415 120.599 77.186 121.384 76.5622C122.688 80.1732 122.407 81.9248 122.407 92.4473C122.407 99.5688 116.578 105.715 109.139 105.715V105.715Z" fill="white"/>
<path d="M92.3498 78.9832C91.163 78.9832 90.2008 79.9454 90.2008 81.1321C90.2008 82.3189 91.163 83.2812 92.3498 83.2812C93.5365 83.2812 94.4988 82.3191 94.4988 81.1321C94.4988 79.9451 93.5365 78.9832 92.3498 78.9832Z" fill="white"/>
<path d="M114.511 78.9832C113.324 78.9832 112.362 79.9454 112.362 81.1321C112.362 82.3189 113.324 83.2812 114.511 83.2812C115.698 83.2812 116.66 82.3191 116.66 81.1321C116.66 79.9451 115.698 78.9832 114.511 78.9832Z" fill="white"/>
<path d="M110.761 94.0623C109.725 94.0623 108.886 94.9018 108.886 95.9373C108.886 96.9253 108.082 97.7291 107.094 97.7291C106.129 97.7291 105.342 96.9614 105.306 96.0049C105.306 95.9824 105.308 95.9601 105.308 95.9373V92.0936C108.496 90.3778 110.138 87.6248 110.054 84.1271C110.007 82.1493 108.422 80.6001 106.446 80.6001H100.412C99.4365 80.6001 98.5228 80.9826 97.8385 81.6774C97.1563 82.3696 96.789 83.2853 96.8033 84.2556C96.8383 86.6126 97.6998 89.8466 101.552 91.9968V95.9373C101.552 95.9601 101.554 95.9824 101.554 96.0049C101.518 96.9614 100.731 97.7291 99.7655 97.7291C98.7778 97.7291 97.974 96.9253 97.974 95.9373C97.974 94.9018 97.1347 94.0623 96.099 94.0623C95.0632 94.0623 94.224 94.9018 94.224 95.9373C94.224 98.9931 96.71 101.479 99.7657 101.479C101.169 101.479 102.452 100.953 103.43 100.09C104.407 100.953 105.69 101.479 107.094 101.479C110.149 101.479 112.635 98.9931 112.635 95.9373C112.636 94.9018 111.796 94.0623 110.761 94.0623ZM103.655 88.7226C103.582 88.7141 103.508 88.7084 103.433 88.7084C103.432 88.7084 103.431 88.7084 103.43 88.7084C103.43 88.7084 103.428 88.7084 103.428 88.7084C103.406 88.7084 103.384 88.7109 103.363 88.7116C101.551 87.6934 100.63 86.2649 100.557 84.3506H106.307C106.316 86.3111 105.468 87.7064 103.655 88.7226Z" fill="white"/>
</g>
<defs>
<clipPath id="clip0_15_2821">
<rect width="128" height="128" fill="white"/>
</clipPath>
</defs>
</svg>
