<svg width="310" height="370" viewBox="0 0 310 370" fill="none" xmlns="http://www.w3.org/2000/svg">
<g filter="url(#filter0_d_0_1)">
<rect x="35" y="15" width="240" height="300" rx="6" fill="#F3F9F8"/>
<rect x="35" y="15" width="240" height="300" rx="6" stroke="white" stroke-width="2"/>
</g>
<rect width="6" height="300" transform="matrix(-1 0 0 1 53 15)" fill="url(#paint0_linear_0_1)"/>
<path opacity="0.5" d="M35 21C35 17.6863 37.6863 15 41 15H45V315H41C37.6863 315 35 312.314 35 309V21Z" fill="url(#paint1_linear_0_1)"/>
<g clip-path="url(#clip0_0_1)">
<path d="M187.617 112.551H177.842C177.801 112.301 177.758 112.051 177.718 111.801C177.758 111.357 177.758 110.908 177.675 110.422C177.409 108.926 176.675 107.345 176.744 105.818V105.81C176.753 105.78 176.758 105.759 176.766 105.729C176.978 104.979 177.444 104.277 178.124 103.941H178.151C178.78 103.984 179.396 104.056 179.998 104.255C180.098 104.293 180.805 104.613 181.028 104.643C182.209 104.801 182.83 104.255 182.83 103.22C183.102 103.279 183.36 103.344 183.674 103.22C183.946 103.115 184.175 102.922 184.269 102.628C184.433 102.077 184.011 101.292 183.553 100.819C184.019 100.55 184.433 100.189 184.597 99.6677C184.755 99.1675 184.833 98.2451 184.527 97.7718C184.226 97.3281 183.424 97.2205 182.954 97.1264C182.281 96.9973 181.569 96.7983 180.867 96.6693C180.84 96.4407 180.824 96.1987 180.732 95.9916C180.617 95.7334 180.453 95.4914 180.246 95.2978C179.88 94.9536 179.409 94.8057 178.944 94.6551C178.643 94.2975 178.178 93.9828 177.842 93.8269C177.471 93.6494 176.968 93.4638 176.497 93.3966C176.217 91.9041 175.424 90.538 173.959 89.9088C173.902 89.8792 173.816 89.9088 173.824 89.9787C173.91 90.6564 174.168 91.3233 174.174 92.009C174.174 92.4608 173.916 93.1546 173.501 93.5902C172.186 92.7324 171.907 91.1727 170.613 90.2799C169.812 89.7232 168.54 88.4432 167.483 88.7444C167.456 88.7525 167.427 88.7713 167.419 88.8009C167.338 89.18 167.411 89.4355 167.54 89.8093C167.825 90.6456 167.897 91.3959 168.034 92.2672C168.15 93.047 168.5 93.7327 168.949 94.3701C168.763 95.1983 168.465 96.0508 168.642 96.8871C168.734 97.3227 168.927 97.7153 169.15 98.0972C168.529 99.5198 167.948 100.977 167.034 102.236C166.496 102.965 165.87 103.752 165.611 104.637C165.499 105.03 165.464 105.43 165.434 105.831C164.52 106.896 163.74 108.227 163.019 109.392C162.554 110.15 162.325 110.914 162.234 111.71C162.03 111.962 161.844 112.247 161.677 112.551H157.547C153.147 112.551 150.399 107.789 152.596 103.978L167.628 77.9287C169.828 74.1182 175.327 74.1182 177.527 77.9287L192.567 103.978C194.767 107.789 192.019 112.551 187.617 112.551V112.551Z" fill="#00C7A0"/>
<path d="M124.328 120.979C124.57 120.979 124.793 121.041 124.995 121.16C125.199 121.281 125.35 121.461 125.452 121.703L128.257 128.111L127.837 128.302L130.698 121.722C130.914 121.213 131.252 120.971 131.71 120.996C132.027 120.996 132.285 121.095 132.481 121.291C132.678 121.488 132.777 121.732 132.777 122.026C132.777 122.114 132.761 122.211 132.729 122.311C132.696 122.413 132.661 122.507 132.624 122.596L129.055 130.456C128.851 130.913 128.528 131.155 128.082 131.182C127.84 131.22 127.609 131.177 127.385 131.048C127.162 130.921 126.995 130.722 126.88 130.456L123.333 122.596C123.306 122.531 123.279 122.45 123.247 122.348C123.215 122.246 123.198 122.125 123.198 121.985C123.198 121.757 123.301 121.531 123.505 121.308C123.709 121.084 123.981 120.974 124.325 120.974L124.328 120.979Z" fill="#00C7A0"/>
<path d="M139.207 131.375C138.126 131.375 137.187 131.15 136.394 130.698C135.598 130.246 134.988 129.633 134.563 128.856C134.135 128.081 133.923 127.202 133.923 126.223C133.923 125.078 134.154 124.104 134.619 123.295C135.084 122.488 135.689 121.867 136.44 121.434C137.19 121.001 137.986 120.786 138.825 120.786C139.473 120.786 140.086 120.92 140.667 121.186C141.245 121.453 141.756 121.818 142.203 122.283C142.646 122.749 143.001 123.284 143.262 123.894C143.523 124.505 143.652 125.153 143.652 125.841C143.639 126.145 143.518 126.395 143.289 126.586C143.06 126.777 142.794 126.871 142.488 126.871H135.2L134.627 124.965H141.627L141.208 125.346V124.83C141.183 124.462 141.052 124.131 140.818 123.838C140.581 123.545 140.291 123.313 139.941 123.141C139.591 122.969 139.22 122.883 138.825 122.883C138.43 122.883 138.088 122.934 137.757 123.036C137.427 123.139 137.142 123.311 136.9 123.553C136.658 123.795 136.467 124.117 136.327 124.526C136.187 124.932 136.117 125.449 136.117 126.072C136.117 126.758 136.26 127.342 136.547 127.818C136.832 128.294 137.201 128.657 137.653 128.904C138.104 129.152 138.583 129.275 139.094 129.275C139.565 129.275 139.938 129.238 140.221 129.16C140.5 129.084 140.726 128.99 140.898 128.883C141.07 128.775 141.226 128.684 141.366 128.606C141.595 128.49 141.81 128.434 142.014 128.434C142.294 128.434 142.525 128.528 142.711 128.719C142.894 128.91 142.988 129.133 142.988 129.386C142.988 129.73 142.81 130.042 142.453 130.321C142.122 130.601 141.657 130.846 141.06 131.055C140.463 131.265 139.844 131.37 139.21 131.37L139.207 131.375Z" fill="#00C7A0"/>
<path d="M145.672 121.17H150.192C150.499 121.17 150.751 121.272 150.956 121.474C151.16 121.678 151.262 121.931 151.262 122.238C151.262 122.544 151.16 122.776 150.956 122.972C150.751 123.168 150.499 123.268 150.192 123.268H145.672C145.365 123.268 145.112 123.166 144.908 122.964C144.703 122.759 144.604 122.507 144.604 122.2C144.604 121.894 144.706 121.662 144.908 121.466C145.112 121.27 145.365 121.17 145.672 121.17ZM147.713 118.785C148.043 118.785 148.312 118.895 148.522 119.118C148.732 119.342 148.837 119.619 148.837 119.949V128.439C148.837 128.616 148.872 128.764 148.942 128.877C149.011 128.99 149.106 129.074 149.227 129.125C149.348 129.176 149.477 129.2 149.616 129.2C149.77 129.2 149.91 129.17 150.036 129.114C150.162 129.057 150.31 129.028 150.474 129.028C150.652 129.028 150.813 129.111 150.961 129.275C151.106 129.442 151.182 129.671 151.182 129.961C151.182 130.316 150.988 130.609 150.601 130.838C150.213 131.066 149.797 131.182 149.35 131.182C149.084 131.182 148.788 131.16 148.463 131.115C148.137 131.072 147.834 130.961 147.546 130.789C147.261 130.617 147.021 130.354 146.831 129.999C146.64 129.644 146.545 129.154 146.545 128.53V119.947C146.545 119.616 146.656 119.339 146.879 119.116C147.102 118.892 147.379 118.782 147.71 118.782L147.713 118.785Z" fill="#00C7A0"/>
<path d="M157.751 83.573L142.711 109.62C140.511 113.43 135.012 113.43 132.812 109.62L117.774 83.573C115.575 79.7625 118.326 75 122.722 75H141.345C141.046 75.398 140.726 75.7798 140.374 76.1348C139.755 76.7587 139.239 77.4713 138.838 78.2512C138.812 78.3076 138.782 78.3614 138.752 78.4152C138.578 78.7621 138.397 79.1224 138.102 79.3698C137.809 79.6119 137.4 79.7544 136.846 79.8001C136.658 79.8162 136.469 79.8109 136.289 79.8028C136.044 79.7947 135.794 79.784 135.534 79.8351C134.729 79.983 133.96 80.2653 133.253 80.6714C133.116 80.7494 132.979 80.8354 132.847 80.9134C132.479 81.1393 132.099 81.3733 131.688 81.5023C131.395 81.5911 131.088 81.6314 130.785 81.6691C130.607 81.6906 130.421 81.7148 130.241 81.7497C129.841 81.825 129.429 81.9568 128.959 82.1665C128.703 82.2042 128.45 82.2311 128.195 82.2472C128.187 82.2472 128.179 82.2553 128.176 82.2607C128.176 82.266 128.176 82.2687 128.176 82.2741C128.168 82.2741 128.163 82.2768 128.16 82.2822C128.155 82.2876 128.152 82.2956 128.155 82.301C128.332 83.0324 128.959 83.6267 129.628 83.7155C129.628 83.7236 129.628 83.7316 129.636 83.737C129.644 83.7424 129.65 83.7451 129.652 83.7504C129.488 84.1242 129.405 84.5437 129.402 84.9821V85.0278C129.402 85.1004 129.405 85.173 129.41 85.2483C129.41 85.2644 129.413 85.2806 129.416 85.294C129.418 85.3397 129.424 85.3881 129.429 85.4365C129.429 85.4527 129.432 85.4688 129.435 85.4876C129.507 86.047 129.706 86.6224 130.026 87.2033C130.037 87.2194 130.048 87.2436 130.072 87.2598C130.093 87.2732 130.112 87.2759 130.136 87.2732C130.136 87.2732 130.136 87.2759 130.139 87.2786C130.263 87.4668 130.249 87.7142 130.222 87.9105C130.22 87.9455 130.214 87.9805 130.209 88.0127C130.179 88.201 130.153 88.3946 130.196 88.5855C130.222 88.6958 130.274 88.7764 130.343 88.8168C130.384 88.841 130.435 88.8491 130.483 88.841C130.631 88.841 130.779 88.8275 130.924 88.7899C130.924 88.7899 130.927 88.7899 130.93 88.7899C131.212 88.9647 131.551 89.04 131.884 89.0238C131.9 89.0238 131.914 89.0212 131.93 89.0212C132.005 89.0131 132.078 89.005 132.151 88.9889C132.167 88.9862 132.183 88.9808 132.196 88.9781C132.347 88.9405 132.492 88.884 132.627 88.8087C132.64 88.8006 132.653 88.7926 132.664 88.7872C132.715 88.7549 132.764 88.7254 132.807 88.6877C132.904 88.6124 132.995 88.5237 133.078 88.4376C133.159 88.3596 133.242 88.279 133.328 88.2063C133.635 87.9589 134.02 87.8245 134.391 87.6927C134.471 87.6658 134.549 87.6363 134.627 87.6067C134.91 87.5018 135.189 87.3862 135.407 87.2302C135.59 87.5206 135.808 87.7895 136.02 88.0504C136.335 88.4349 136.66 88.8356 136.857 89.2954C137.19 90.0753 137.177 91.0515 136.811 92.2831C136.706 92.6461 136.612 93.0145 136.52 93.3695C136.367 93.9745 136.211 94.6011 135.98 95.2008C135.56 96.2953 134.727 97.2418 133.697 97.8012C133.613 97.8469 133.53 97.8899 133.447 97.9303C133.154 98.0809 132.847 98.2341 132.618 98.4788C132.32 98.7935 132.027 99.6432 132.471 99.6621C132.581 99.6674 132.659 99.5195 132.721 99.4308C132.879 99.5034 133.084 99.4953 133.24 99.42C133.393 99.3447 133.522 99.221 133.632 99.0382C133.667 99.0543 133.702 99.0651 133.743 99.0705C133.826 99.0758 133.904 99.0436 133.974 99.0194L135.738 98.3363C135.614 98.503 135.56 98.7289 135.673 98.9037C135.797 99.0947 136.05 99.1296 136.19 99.1377C136.319 99.1431 136.445 99.1377 136.563 99.1215C136.631 99.1 136.701 99.0785 136.771 99.0624C136.808 99.0543 136.846 99.0489 136.881 99.0489C136.961 99.0247 137.037 98.9925 137.107 98.9575C137.182 98.9199 137.413 98.8015 137.424 98.7935L137.763 98.6214C137.873 98.5434 137.994 98.4815 138.115 98.4197C138.147 98.3982 138.19 98.3659 138.198 98.3605C138.263 98.3067 138.333 98.2583 138.406 98.2126C138.486 98.1615 138.572 98.1239 138.656 98.0835C139.029 97.8173 139.355 97.5161 139.602 97.137C140.097 96.3813 140.379 95.5289 140.667 94.5769C140.992 93.512 141.307 92.4256 141.598 91.3526C141.912 90.2017 142.208 88.9808 142.076 87.7842C143.004 86.7919 144.096 85.9421 145.153 85.1246C145.618 84.7643 146.099 84.3905 146.559 84.0086C149.329 81.7228 152.386 78.9853 153.61 75.4303C153.648 75.3173 153.691 75.2017 153.731 75.0834C157.571 75.6992 159.781 80.0502 157.743 83.581L157.751 83.573Z" fill="#00426E"/>
<path d="M161.621 120.788C161.952 120.788 162.226 120.895 162.441 121.113C162.656 121.331 162.766 121.608 162.766 121.952V130.022C162.766 130.353 162.659 130.63 162.441 130.853C162.226 131.076 161.952 131.187 161.621 131.187C161.29 131.187 161.016 131.076 160.801 130.853C160.585 130.63 160.475 130.353 160.475 130.022V129.087L160.895 129.259C160.895 129.425 160.806 129.624 160.629 129.858C160.451 130.095 160.209 130.326 159.905 130.555C159.599 130.783 159.241 130.977 158.827 131.136C158.413 131.294 157.966 131.375 157.482 131.375C156.606 131.375 155.81 131.149 155.097 130.697C154.384 130.246 153.822 129.622 153.408 128.828C152.994 128.035 152.79 127.121 152.79 126.091C152.79 125.061 152.997 124.13 153.408 123.334C153.822 122.541 154.379 121.917 155.078 121.466C155.777 121.014 156.554 120.788 157.404 120.788C157.95 120.788 158.453 120.871 158.91 121.035C159.367 121.202 159.765 121.412 160.101 121.665C160.438 121.92 160.698 122.175 160.884 122.436C161.067 122.697 161.161 122.918 161.161 123.095L160.475 123.343V121.95C160.475 121.619 160.583 121.342 160.801 121.119C161.016 120.895 161.29 120.785 161.621 120.785V120.788ZM157.767 129.277C158.327 129.277 158.816 129.138 159.236 128.858C159.655 128.578 159.983 128.196 160.217 127.712C160.451 127.228 160.569 126.688 160.569 126.091C160.569 125.494 160.451 124.934 160.217 124.45C159.98 123.966 159.655 123.585 159.236 123.305C158.816 123.025 158.327 122.885 157.767 122.885C157.208 122.885 156.737 123.025 156.318 123.305C155.898 123.585 155.57 123.966 155.336 124.45C155.1 124.934 154.984 125.48 154.984 126.091C154.984 126.701 155.102 127.228 155.336 127.712C155.57 128.196 155.898 128.578 156.318 128.858C156.737 129.138 157.221 129.277 157.767 129.277Z" fill="#00426E"/>
<path d="M170.527 120.788C171.417 120.788 172.216 121.014 172.921 121.466C173.625 121.918 174.187 122.536 174.599 123.327C175.013 124.115 175.22 125.032 175.22 126.072C175.22 127.113 175.013 128.035 174.599 128.829C174.184 129.625 173.633 130.246 172.939 130.698C172.246 131.149 171.468 131.375 170.602 131.375C170.094 131.375 169.616 131.292 169.172 131.128C168.725 130.964 168.336 130.754 167.999 130.499C167.663 130.243 167.402 129.988 167.217 129.727C167.031 129.466 166.94 129.248 166.94 129.068L167.532 128.821V133.838C167.532 134.169 167.424 134.446 167.206 134.669C166.991 134.893 166.717 135.003 166.386 135.003C166.055 135.003 165.781 134.895 165.566 134.677C165.351 134.46 165.24 134.183 165.24 133.838V122.146C165.24 121.815 165.348 121.538 165.566 121.315C165.781 121.092 166.055 120.982 166.386 120.982C166.717 120.982 166.991 121.092 167.206 121.315C167.421 121.538 167.532 121.815 167.532 122.146V123.082L167.206 122.91C167.206 122.746 167.295 122.544 167.472 122.307C167.65 122.073 167.892 121.837 168.198 121.603C168.502 121.369 168.857 121.173 169.258 121.022C169.659 120.869 170.081 120.793 170.527 120.793V120.788ZM170.242 122.886C169.683 122.886 169.193 123.025 168.774 123.305C168.354 123.585 168.026 123.964 167.792 124.44C167.556 124.916 167.44 125.459 167.44 126.07C167.44 126.68 167.558 127.212 167.792 127.702C168.026 128.191 168.354 128.576 168.774 128.855C169.193 129.135 169.683 129.275 170.242 129.275C170.801 129.275 171.288 129.135 171.702 128.855C172.116 128.576 172.439 128.191 172.676 127.702C172.91 127.212 173.028 126.669 173.028 126.07C173.028 125.47 172.91 124.916 172.676 124.44C172.439 123.964 172.116 123.585 171.702 123.305C171.288 123.025 170.801 122.886 170.242 122.886Z" fill="#00426E"/>
<path d="M182.413 120.788C183.303 120.788 184.102 121.014 184.807 121.466C185.511 121.918 186.073 122.536 186.485 123.327C186.899 124.115 187.106 125.032 187.106 126.072C187.106 127.113 186.899 128.035 186.485 128.829C186.07 129.625 185.519 130.246 184.825 130.698C184.132 131.149 183.354 131.375 182.488 131.375C181.98 131.375 181.502 131.292 181.058 131.128C180.611 130.964 180.222 130.754 179.885 130.499C179.549 130.243 179.288 129.988 179.103 129.727C178.917 129.466 178.826 129.248 178.826 129.068L179.417 128.821V133.838C179.417 134.169 179.31 134.446 179.092 134.669C178.877 134.893 178.603 135.003 178.272 135.003C177.941 135.003 177.667 134.895 177.452 134.677C177.237 134.46 177.126 134.183 177.126 133.838V122.146C177.126 121.815 177.234 121.538 177.452 121.315C177.667 121.092 177.941 120.982 178.272 120.982C178.603 120.982 178.877 121.092 179.092 121.315C179.307 121.538 179.417 121.815 179.417 122.146V123.082L179.092 122.91C179.092 122.746 179.181 122.544 179.358 122.307C179.536 122.073 179.778 121.837 180.084 121.603C180.388 121.369 180.743 121.173 181.144 121.022C181.545 120.869 181.967 120.793 182.413 120.793V120.788ZM182.128 122.886C181.569 122.886 181.079 123.025 180.66 123.305C180.24 123.585 179.912 123.964 179.678 124.44C179.442 124.916 179.326 125.459 179.326 126.07C179.326 126.68 179.444 127.212 179.678 127.702C179.912 128.191 180.24 128.576 180.66 128.855C181.079 129.135 181.569 129.275 182.128 129.275C182.687 129.275 183.174 129.135 183.588 128.855C184.002 128.576 184.325 128.191 184.562 127.702C184.796 127.212 184.914 126.669 184.914 126.07C184.914 125.47 184.796 124.916 184.562 124.44C184.325 123.964 184.002 123.585 183.588 123.305C183.174 123.025 182.687 122.886 182.128 122.886Z" fill="#00426E"/>
</g>
<path d="M82.589 271L76.864 253.5H81.064L86.039 269H83.939L89.139 253.5H92.889L97.889 269H95.864L100.964 253.5H104.839L99.114 271H94.764L90.339 257.4H91.489L86.939 271H82.589ZM115.366 257.35C116.433 257.35 117.383 257.567 118.216 258C119.066 258.417 119.733 259.067 120.216 259.95C120.699 260.817 120.941 261.933 120.941 263.3V271H117.041V263.9C117.041 262.817 116.799 262.017 116.316 261.5C115.849 260.983 115.183 260.725 114.316 260.725C113.699 260.725 113.141 260.858 112.641 261.125C112.158 261.375 111.774 261.767 111.491 262.3C111.224 262.833 111.091 263.517 111.091 264.35V271H107.191V252.45H111.091V261.275L110.216 260.15C110.699 259.25 111.391 258.558 112.291 258.075C113.191 257.592 114.216 257.35 115.366 257.35ZM124.476 271V257.55H128.376V271H124.476ZM126.426 255.675C125.71 255.675 125.126 255.467 124.676 255.05C124.226 254.633 124.001 254.117 124.001 253.5C124.001 252.883 124.226 252.367 124.676 251.95C125.126 251.533 125.71 251.325 126.426 251.325C127.143 251.325 127.726 251.525 128.176 251.925C128.626 252.308 128.851 252.808 128.851 253.425C128.851 254.075 128.626 254.617 128.176 255.05C127.743 255.467 127.16 255.675 126.426 255.675ZM137.496 271.2C135.912 271.2 134.679 270.8 133.796 270C132.912 269.183 132.471 267.975 132.471 266.375V254.575H136.371V266.325C136.371 266.892 136.521 267.333 136.821 267.65C137.121 267.95 137.529 268.1 138.046 268.1C138.662 268.1 139.187 267.933 139.621 267.6L140.671 270.35C140.271 270.633 139.787 270.85 139.221 271C138.671 271.133 138.096 271.2 137.496 271.2ZM130.396 260.85V257.85H139.721V260.85H130.396ZM149.12 271.2C147.587 271.2 146.237 270.9 145.07 270.3C143.92 269.7 143.028 268.883 142.395 267.85C141.762 266.8 141.445 265.608 141.445 264.275C141.445 262.925 141.753 261.733 142.37 260.7C143.003 259.65 143.862 258.833 144.945 258.25C146.028 257.65 147.253 257.35 148.62 257.35C149.937 257.35 151.12 257.633 152.17 258.2C153.237 258.75 154.078 259.55 154.695 260.6C155.312 261.633 155.62 262.875 155.62 264.325C155.62 264.475 155.612 264.65 155.595 264.85C155.578 265.033 155.562 265.208 155.545 265.375H144.62V263.1H153.495L151.995 263.775C151.995 263.075 151.853 262.467 151.57 261.95C151.287 261.433 150.895 261.033 150.395 260.75C149.895 260.45 149.312 260.3 148.645 260.3C147.978 260.3 147.387 260.45 146.87 260.75C146.37 261.033 145.978 261.442 145.695 261.975C145.412 262.492 145.27 263.108 145.27 263.825V264.425C145.27 265.158 145.428 265.808 145.745 266.375C146.078 266.925 146.537 267.35 147.12 267.65C147.72 267.933 148.42 268.075 149.22 268.075C149.937 268.075 150.562 267.967 151.095 267.75C151.645 267.533 152.145 267.208 152.595 266.775L154.67 269.025C154.053 269.725 153.278 270.267 152.345 270.65C151.412 271.017 150.337 271.2 149.12 271.2ZM166.167 271.2C165.033 271.2 164.042 270.95 163.192 270.45C162.342 269.95 161.675 269.192 161.192 268.175C160.725 267.142 160.492 265.842 160.492 264.275C160.492 262.692 160.717 261.392 161.167 260.375C161.617 259.358 162.267 258.6 163.117 258.1C163.967 257.6 164.983 257.35 166.167 257.35C167.433 257.35 168.567 257.642 169.567 258.225C170.583 258.792 171.383 259.592 171.967 260.625C172.567 261.658 172.867 262.875 172.867 264.275C172.867 265.692 172.567 266.917 171.967 267.95C171.383 268.983 170.583 269.783 169.567 270.35C168.567 270.917 167.433 271.2 166.167 271.2ZM158.217 275.85V257.55H161.942V260.3L161.867 264.3L162.117 268.275V275.85H158.217ZM165.492 268C166.142 268 166.717 267.85 167.217 267.55C167.733 267.25 168.142 266.825 168.442 266.275C168.758 265.708 168.917 265.042 168.917 264.275C168.917 263.492 168.758 262.825 168.442 262.275C168.142 261.725 167.733 261.3 167.217 261C166.717 260.7 166.142 260.55 165.492 260.55C164.842 260.55 164.258 260.7 163.742 261C163.225 261.3 162.817 261.725 162.517 262.275C162.217 262.825 162.067 263.492 162.067 264.275C162.067 265.042 162.217 265.708 162.517 266.275C162.817 266.825 163.225 267.25 163.742 267.55C164.258 267.85 164.842 268 165.492 268ZM183.508 271V268.375L183.258 267.8V263.1C183.258 262.267 182.999 261.617 182.483 261.15C181.983 260.683 181.208 260.45 180.158 260.45C179.441 260.45 178.733 260.567 178.033 260.8C177.349 261.017 176.766 261.317 176.283 261.7L174.883 258.975C175.616 258.458 176.499 258.058 177.533 257.775C178.566 257.492 179.616 257.35 180.683 257.35C182.733 257.35 184.324 257.833 185.458 258.8C186.591 259.767 187.158 261.275 187.158 263.325V271H183.508ZM179.408 271.2C178.358 271.2 177.458 271.025 176.708 270.675C175.958 270.308 175.383 269.817 174.983 269.2C174.583 268.583 174.383 267.892 174.383 267.125C174.383 266.325 174.574 265.625 174.958 265.025C175.358 264.425 175.983 263.958 176.833 263.625C177.683 263.275 178.791 263.1 180.158 263.1H183.733V265.375H180.583C179.666 265.375 179.033 265.525 178.683 265.825C178.349 266.125 178.183 266.5 178.183 266.95C178.183 267.45 178.374 267.85 178.758 268.15C179.158 268.433 179.699 268.575 180.383 268.575C181.033 268.575 181.616 268.425 182.133 268.125C182.649 267.808 183.024 267.35 183.258 266.75L183.858 268.55C183.574 269.417 183.058 270.075 182.308 270.525C181.558 270.975 180.591 271.2 179.408 271.2ZM198.637 271.2C197.504 271.2 196.512 270.95 195.662 270.45C194.812 269.95 194.146 269.192 193.662 268.175C193.196 267.142 192.962 265.842 192.962 264.275C192.962 262.692 193.187 261.392 193.637 260.375C194.087 259.358 194.737 258.6 195.587 258.1C196.437 257.6 197.454 257.35 198.637 257.35C199.904 257.35 201.037 257.642 202.037 258.225C203.054 258.792 203.854 259.592 204.437 260.625C205.037 261.658 205.337 262.875 205.337 264.275C205.337 265.692 205.037 266.917 204.437 267.95C203.854 268.983 203.054 269.783 202.037 270.35C201.037 270.917 199.904 271.2 198.637 271.2ZM190.687 275.85V257.55H194.412V260.3L194.337 264.3L194.587 268.275V275.85H190.687ZM197.962 268C198.612 268 199.187 267.85 199.687 267.55C200.204 267.25 200.612 266.825 200.912 266.275C201.229 265.708 201.387 265.042 201.387 264.275C201.387 263.492 201.229 262.825 200.912 262.275C200.612 261.725 200.204 261.3 199.687 261C199.187 260.7 198.612 260.55 197.962 260.55C197.312 260.55 196.729 260.7 196.212 261C195.696 261.3 195.287 261.725 194.987 262.275C194.687 262.825 194.537 263.492 194.537 264.275C194.537 265.042 194.687 265.708 194.987 266.275C195.287 266.825 195.696 267.25 196.212 267.55C196.729 267.85 197.312 268 197.962 268ZM214.623 271.2C213.09 271.2 211.74 270.9 210.573 270.3C209.423 269.7 208.531 268.883 207.898 267.85C207.265 266.8 206.948 265.608 206.948 264.275C206.948 262.925 207.256 261.733 207.873 260.7C208.506 259.65 209.365 258.833 210.448 258.25C211.531 257.65 212.756 257.35 214.123 257.35C215.44 257.35 216.623 257.633 217.673 258.2C218.74 258.75 219.581 259.55 220.198 260.6C220.815 261.633 221.123 262.875 221.123 264.325C221.123 264.475 221.115 264.65 221.098 264.85C221.081 265.033 221.065 265.208 221.048 265.375H210.123V263.1H218.998L217.498 263.775C217.498 263.075 217.356 262.467 217.073 261.95C216.79 261.433 216.398 261.033 215.898 260.75C215.398 260.45 214.815 260.3 214.148 260.3C213.481 260.3 212.89 260.45 212.373 260.75C211.873 261.033 211.481 261.442 211.198 261.975C210.915 262.492 210.773 263.108 210.773 263.825V264.425C210.773 265.158 210.931 265.808 211.248 266.375C211.581 266.925 212.04 267.35 212.623 267.65C213.223 267.933 213.923 268.075 214.723 268.075C215.44 268.075 216.065 267.967 216.598 267.75C217.148 267.533 217.648 267.208 218.098 266.775L220.173 269.025C219.556 269.725 218.781 270.267 217.848 270.65C216.915 271.017 215.84 271.2 214.623 271.2ZM223.719 271V257.55H227.444V261.35L226.919 260.25C227.319 259.3 227.961 258.583 228.844 258.1C229.728 257.6 230.803 257.35 232.069 257.35V260.95C231.903 260.933 231.753 260.925 231.619 260.925C231.486 260.908 231.344 260.9 231.194 260.9C230.128 260.9 229.261 261.208 228.594 261.825C227.944 262.425 227.619 263.367 227.619 264.65V271H223.719Z" fill="#949A9E"/>
<defs>
<filter id="filter0_d_0_1" x="0" y="0" width="310" height="370" filterUnits="userSpaceOnUse" color-interpolation-filters="sRGB">
<feFlood flood-opacity="0" result="BackgroundImageFix"/>
<feColorMatrix in="SourceAlpha" type="matrix" values="0 0 0 0 0 0 0 0 0 0 0 0 0 0 0 0 0 0 127 0" result="hardAlpha"/>
<feOffset dy="20"/>
<feGaussianBlur stdDeviation="17"/>
<feComposite in2="hardAlpha" operator="out"/>
<feColorMatrix type="matrix" values="0 0 0 0 0 0 0 0 0 0.2625 0 0 0 0 0.211055 0 0 0 0.26 0"/>
<feBlend mode="normal" in2="BackgroundImageFix" result="effect1_dropShadow_0_1"/>
<feBlend mode="normal" in="SourceGraphic" in2="effect1_dropShadow_0_1" result="shape"/>
</filter>
<linearGradient id="paint0_linear_0_1" x1="0" y1="104.5" x2="6" y2="104.5" gradientUnits="userSpaceOnUse">
<stop stop-color="#DEEFEC"/>
<stop offset="1" stop-color="#E1F1EE" stop-opacity="0"/>
</linearGradient>
<linearGradient id="paint1_linear_0_1" x1="35" y1="119.5" x2="45" y2="119.5" gradientUnits="userSpaceOnUse">
<stop stop-color="#DEEFEC"/>
<stop offset="1" stop-color="#E1F1EE" stop-opacity="0"/>
</linearGradient>
<clipPath id="clip0_0_1">
<rect width="76.3392" height="60" fill="white" transform="translate(117 75)"/>
</clipPath>
</defs>
</svg>
