<?xml version="1.0" encoding="UTF-8"?>
<svg width="30px" height="30px" viewBox="0 0 30 30" version="1.1" xmlns="http://www.w3.org/2000/svg" xmlns:xlink="http://www.w3.org/1999/xlink">
    <title>facebook</title>
    <g id="design" stroke="none" stroke-width="1" fill="none" fill-rule="evenodd">
        <g id="kaps-landing" transform="translate(-941.000000, -6669.000000)" fill="#9789E7" fill-rule="nonzero">
            <path d="M971,6684.09126 C971,6675.75722 964.283645,6669 956,6669 C947.716355,6669 941,6675.75722 941,6684.09126 C941,6691.62309 946.484461,6697.86672 953.656448,6699 L953.656448,6688.45458 L949.846857,6688.45458 L949.846857,6684.09126 L953.656448,6684.09126 L953.656448,6680.7657 C953.656448,6676.98387 955.896639,6674.89346 959.322318,6674.89346 C960.963437,6674.89346 962.680495,6675.18846 962.680495,6675.18846 L962.680495,6678.90238 L960.788356,6678.90238 C958.925749,6678.90238 958.343552,6680.06537 958.343552,6681.26019 L958.343552,6684.09126 L962.503305,6684.09126 L961.838841,6688.45458 L958.343552,6688.45458 L958.343552,6699 C965.515539,6697.86885 971,6691.62521 971,6684.09126 Z" id="facebook"></path>
        </g>
    </g>
</svg>