<?xml version="1.0" encoding="UTF-8"?>
<svg width="32px" height="26px" viewBox="0 0 32 26" version="1.1" xmlns="http://www.w3.org/2000/svg" xmlns:xlink="http://www.w3.org/1999/xlink">
    <title>ic_sc_tw</title>
    <g id="design" stroke="none" stroke-width="1" fill="none" fill-rule="evenodd">
        <g id="kaps-landing" transform="translate(-1041.000000, -6671.000000)" fill="#9789E7">
            <path d="M1073,6674.07989 C1071.82083,6674.60037 1070.55572,6674.95372 1069.22855,6675.11129 C1070.58437,6674.29954 1071.62509,6673.01028 1072.11204,6671.4775 C1070.84216,6672.23196 1069.43861,6672.77631 1067.94435,6673.07236 C1066.74608,6671.79743 1065.04177,6671 1063.15128,6671 C1059.52782,6671 1056.58705,6673.94141 1056.58705,6677.56566 C1056.58705,6678.08136 1056.64434,6678.58274 1056.75891,6679.06024 C1051.30225,6678.78806 1046.46621,6676.17135 1043.22945,6672.19853 C1042.66612,6673.16786 1042.34149,6674.29477 1042.34149,6675.49807 C1042.34149,6677.77576 1043.50157,6679.78604 1045.26317,6680.9607 C1044.18902,6680.92727 1043.17694,6680.63122 1042.28898,6680.13939 C1042.28898,6680.16804 1042.28898,6680.19192 1042.28898,6680.22057 C1042.28898,6683.40073 1044.55184,6686.05565 1047.55468,6686.6573 C1047.00567,6686.80533 1046.42324,6686.8865 1045.8265,6686.8865 C1045.40161,6686.8865 1044.99105,6686.84353 1044.59003,6686.76713 C1045.42548,6689.37429 1047.85066,6691.27475 1050.71983,6691.32727 C1048.47128,6693.08926 1045.64508,6694.13976 1042.56587,6694.13976 C1042.03595,6694.13976 1041.51559,6694.10634 1041,6694.04904 C1043.90258,6695.91129 1047.35417,6697 1051.06355,6697 C1063.13695,6697 1069.73937,6686.99633 1069.73937,6678.32011 C1069.73937,6678.03361 1069.7346,6677.75188 1069.72027,6677.47016 C1071.00448,6676.5438 1072.11681,6675.38825 1072.99523,6674.07034 L1073,6674.07989 Z" id="ic_sc_tw"></path>
        </g>
    </g>
</svg>