<?xml version="1.0" encoding="UTF-8"?>
<svg width="30px" height="30px" viewBox="0 0 30 30" version="1.1" xmlns="http://www.w3.org/2000/svg" xmlns:xlink="http://www.w3.org/1999/xlink">
    <title>ic_sc_tg0</title>
    <g id="design" stroke="none" stroke-width="1" fill="none" fill-rule="evenodd">
        <g id="kaps-landing" transform="translate(-991.000000, -6669.000000)" fill="#9789E7" fill-rule="nonzero">
            <path d="M1006,6669 C1014.28427,6669 1021,6675.71573 1021,6684 C1021,6692.28427 1014.28427,6699 1006,6699 C997.715729,6699 991,6692.28427 991,6684 C991,6675.71573 997.715729,6669 1006,6669 Z M1012.36073,6677.53053 L997.41291,6683.25718 C996.392582,6683.66379 996.39853,6684.22937 997.226926,6684.48137 L1001.06287,6685.67092 L1009.9435,6680.10435 C1010.36273,6679.85177 1010.7475,6679.98756 1010.4317,6680.26604 L1003.23587,6686.71785 L1009.48967,6691.30845 C1010.20331,6691.69967 1010.71837,6691.49712 1010.89613,6690.65016 L1013.44174,6678.73162 C1013.70237,6677.69345 1013.04343,6677.22258 1012.36073,6677.53053 Z" id="ic_sc_tg0"></path>
        </g>
    </g>
</svg>