<svg width="30" height="30" viewBox="0 0 30 30" fill="none" xmlns="http://www.w3.org/2000/svg">
<g opacity="0.8" clip-path="url(#clip0_5_422)">
<path d="M9.4377 27.1875C20.7557 27.1875 26.9479 17.8084 26.9479 9.67738C26.9479 9.41371 26.942 9.14418 26.9303 8.8805C28.1348 8.00938 29.1744 6.93037 30 5.69418C28.8782 6.1933 27.6871 6.51928 26.4674 6.66097C27.7516 5.89119 28.7132 4.68189 29.1738 3.25726C27.9657 3.97325 26.6445 4.47832 25.2668 4.75082C24.3385 3.7645 23.1112 3.11145 21.7746 2.89262C20.438 2.67379 19.0665 2.90137 17.8722 3.54017C16.6779 4.17898 15.7273 5.19344 15.1673 6.42669C14.6074 7.65995 14.4693 9.04332 14.7744 10.3629C12.3281 10.2402 9.93492 9.60468 7.74998 8.49768C5.56503 7.39067 3.63712 5.83685 2.09121 3.93695C1.3055 5.29161 1.06507 6.89461 1.41879 8.42017C1.77251 9.94572 2.69383 11.2794 3.99551 12.15C3.01829 12.119 2.06247 11.8559 1.20703 11.3825V11.4586C1.20616 12.8802 1.69762 14.2583 2.59789 15.3585C3.49815 16.4587 4.75165 17.2133 6.14531 17.4938C5.24007 17.7415 4.28998 17.7776 3.36855 17.5993C3.76182 18.8218 4.52697 19.8912 5.55721 20.658C6.58746 21.4248 7.8314 21.8508 9.11543 21.8766C6.93553 23.5889 4.24272 24.5177 1.4707 24.5133C0.979109 24.5126 0.487999 24.4824 0 24.4231C2.81607 26.2297 6.09191 27.1893 9.4377 27.1875Z" fill="#EAE41F"/>
</g>
<defs>
<clipPath id="clip0_5_422">
<rect width="30" height="30" fill="white"/>
</clipPath>
</defs>
</svg>
