<?xml version="1.0" encoding="UTF-8"?>
<svg width="94px" height="26px" viewBox="0 0 94 26" version="1.1" xmlns="http://www.w3.org/2000/svg" xmlns:xlink="http://www.w3.org/1999/xlink">
    <title>dots_arrow</title>
    <g id="Page-1" stroke="none" stroke-width="1" fill="none" fill-rule="evenodd">
        <path d="M39.0181419,0.493576813 L50.7589854,12.2346836 L50.9939736,12.234046 C51.5068022,12.2313316 51.9315209,12.6151191 51.9919422,13.1121435 L51.999293,13.2287272 C52.0022162,13.7810042 51.5568887,14.2310945 51.0046118,14.2340322 L50.2859854,14.2376836 L39.0181419,25.5064232 C38.6276176,25.8969475 37.9944527,25.8969475 37.6039284,25.5064232 C37.2134041,25.1158989 37.2134041,24.4827339 37.6039284,24.0922096 L48.696,13 L37.6039284,1.90779037 C37.2434444,1.54730641 37.2157149,0.980075357 37.5207398,0.58778415 L37.6039284,0.493576813 C37.9944527,0.103052521 38.6276176,0.103052521 39.0181419,0.493576813 Z M1.99466678,12.4946806 C2.54694372,12.4917574 2.99703406,12.9370849 2.99998616,13.4893619 C3.00290935,14.0416388 2.55758186,14.4917291 2.00530493,14.4946668 L1.00531907,14.5000003 C0.453042137,14.5029235 0.00295178965,14.057596 -3.04235672e-07,13.5053191 C-0.00292349691,12.9530421 0.442403989,12.5029518 0.994680926,12.5000141 Z M8.99456776,12.4574471 C9.54684469,12.4545239 9.99693504,12.8998514 9.99988713,13.4521283 C10.0028103,14.0044053 9.55748284,14.4544956 9.0052059,14.4574333 L8.00522005,14.4627668 C7.45294311,14.46569 7.00285277,14.0203625 6.99990067,13.4680856 C6.99697748,12.9158086 7.44230496,12.4657183 7.9945819,12.4627806 Z M15.9944687,12.4202136 C16.5467457,12.4172904 16.996836,12.8626179 16.9997881,13.4148948 C17.0027113,13.9671718 16.5573838,14.4172621 16.0051069,14.4201997 L15.005121,14.4255333 C14.4528441,14.4284565 14.0027537,13.983129 13.9998016,13.430852 C13.9968785,12.8785751 14.4422059,12.4284848 14.9944829,12.4255471 Z M22.9943697,12.3829801 C23.5466466,12.3800569 23.996737,12.8253844 23.9996891,13.3776613 C24.0026123,13.9299382 23.5572848,14.3800286 23.0050079,14.3829662 L22.005022,14.3882998 C21.4527451,14.3912229 21.0026547,13.9458955 20.9997026,13.3936185 C20.9967794,12.8413416 21.4421069,12.3912512 21.9943839,12.3883136 Z M29.9942707,12.3457466 C30.5465476,12.3428234 30.996638,12.7881509 30.9995901,13.3404278 C31.0025133,13.8927047 30.5571858,14.3427951 30.0049088,14.3457327 L29.004923,14.3510662 C28.452646,14.3539894 28.0025557,13.9086619 27.9996036,13.356385 C27.9966804,12.8041081 28.4420079,12.3540177 28.9942848,12.3510801 Z M36.9941717,12.308513 C37.5464486,12.3055899 37.9965389,12.7509173 37.999491,13.3031943 C38.0024142,13.8554712 37.5570867,14.3055616 37.0048098,14.3084992 L36.004824,14.3138327 C35.452547,14.3167559 35.0024567,13.8714284 34.9995046,13.3191515 C34.9965814,12.7668746 35.4419089,12.3167842 35.9941858,12.3138466 Z M43.9940726,12.2712795 C44.5463496,12.2683563 44.9964399,12.7136838 44.999392,13.2659608 C45.0023152,13.8182377 44.5569877,14.268328 44.0047108,14.2712657 L43.0047249,14.2765992 C42.452448,14.2795224 42.0023576,13.8341949 41.9994055,13.281918 C41.9964824,12.729641 42.4418098,12.2795507 42.9940868,12.2766131 Z M57.9938746,12.1968125 C58.5461515,12.1938893 58.9962419,12.6392168 58.999194,13.1914937 C59.0021172,13.7437707 58.5567897,14.193861 58.0045127,14.1967987 L57.0045269,14.2021322 C56.4522499,14.2050554 56.0021596,13.7597279 55.9992075,13.2074509 C55.9962843,12.655174 56.4416118,12.2050837 56.9938887,12.202146 Z M64.9937756,12.159579 C65.5460525,12.1566558 65.9961428,12.6019833 65.9990949,13.1542602 C66.0020181,13.7065371 65.5566906,14.1566275 65.0044137,14.1595651 L64.0044279,14.1648987 C63.4521509,14.1678219 63.0020606,13.7224944 62.9991085,13.1702174 C62.9961853,12.6179405 63.4415128,12.1678501 63.9937897,12.1649125 Z M71.9936765,12.1223455 C72.5459535,12.1194223 72.9960438,12.5647498 72.9989959,13.1170267 C73.0019191,13.6693036 72.5565916,14.119394 72.0043147,14.1223316 L71.0043288,14.1276651 C70.4520519,14.1305883 70.0019615,13.6852609 69.9990094,13.1329839 C69.9960863,12.580707 70.4414137,12.1306166 70.9936907,12.127679 Z M78.9935775,12.0851119 C79.5458544,12.0821888 79.9959448,12.5275162 79.9988969,13.0797932 C80.0018201,13.6320701 79.5564926,14.0821605 79.0042157,14.0850981 L78.0042298,14.0904316 C77.4519529,14.0933548 77.0018625,13.6480273 76.9989104,13.0957504 C76.9959872,12.5434735 77.4413147,12.0933831 77.9935917,12.0904455 Z M85.9934785,12.0478784 C86.5457554,12.0449552 86.9958458,12.4902827 86.9987979,13.0425597 C87.0017211,13.5948366 86.5563936,14.0449269 86.0041166,14.0478646 L85.0041308,14.0531981 C84.4518538,14.0561213 84.0017635,13.6107938 83.9988114,13.0585169 C83.9958882,12.5062399 84.4412157,12.0561496 84.9934926,12.053212 Z M92.9933795,12.0106449 C93.5456564,12.0077217 93.9957467,12.4530492 93.9986988,13.0053261 C94.001622,13.5576031 93.5562945,14.0076934 93.0040176,14.0106311 L92.0040318,14.0159646 C91.4517548,14.0188878 91.0016645,13.5735603 90.9987124,13.0212834 C90.9957892,12.4690064 91.4411167,12.0189161 91.9933936,12.0159784 Z" id="dots_arrow" fill="#FFA340" fill-rule="nonzero"></path>
    </g>
</svg>