<?xml version="1.0" encoding="UTF-8"?>
<svg width="30px" height="30px" viewBox="0 0 30 30" version="1.1" xmlns="http://www.w3.org/2000/svg" xmlns:xlink="http://www.w3.org/1999/xlink">
    <title>facebook</title>
    <g id="landing" stroke="none" stroke-width="1" fill="none" fill-rule="evenodd">
        <g transform="translate(-981.000000, -10024.000000)" fill="#FF9500" fill-rule="nonzero" id="facebook">
            <path d="M1011,10039.0913 C1011,10030.7572 1004.28365,10024 996,10024 C987.716355,10024 981,10030.7572 981,10039.0913 C981,10046.6231 986.484461,10052.8667 993.656448,10054 L993.656448,10043.4546 L989.846857,10043.4546 L989.846857,10039.0913 L993.656448,10039.0913 L993.656448,10035.7657 C993.656448,10031.9839 995.896639,10029.8935 999.322318,10029.8935 C1000.96344,10029.8935 1002.6805,10030.1885 1002.6805,10030.1885 L1002.6805,10033.9024 L1000.78836,10033.9024 C998.925749,10033.9024 998.343552,10035.0654 998.343552,10036.2602 L998.343552,10039.0913 L1002.5033,10039.0913 L1001.83884,10043.4546 L998.343552,10043.4546 L998.343552,10054 C1005.51554,10052.8688 1011,10046.6252 1011,10039.0913 Z"></path>
        </g>
    </g>
</svg>