<?xml version="1.0" encoding="UTF-8"?>
<svg width="30px" height="30px" viewBox="0 0 30 30" version="1.1" xmlns="http://www.w3.org/2000/svg" xmlns:xlink="http://www.w3.org/1999/xlink">
    <title>ic_sc_tg0</title>
    <g id="landing" stroke="none" stroke-width="1" fill="none" fill-rule="evenodd">
        <g transform="translate(-1031.000000, -10024.000000)" fill="#FF9500" fill-rule="nonzero" id="ic_sc_tg0">
            <path d="M1046,10024 C1054.28427,10024 1061,10030.7157 1061,10039 C1061,10047.2843 1054.28427,10054 1046,10054 C1037.71573,10054 1031,10047.2843 1031,10039 C1031,10030.7157 1037.71573,10024 1046,10024 Z M1052.36073,10032.5305 L1037.41291,10038.2572 C1036.39258,10038.6638 1036.39853,10039.2294 1037.22693,10039.4814 L1041.06287,10040.6709 L1049.9435,10035.1044 C1050.36273,10034.8518 1050.7475,10034.9876 1050.4317,10035.266 L1043.23587,10041.7179 L1049.48967,10046.3085 C1050.20331,10046.6997 1050.71837,10046.4971 1050.89613,10045.6502 L1053.44174,10033.7316 C1053.70237,10032.6934 1053.04343,10032.2226 1052.36073,10032.5305 Z"></path>
        </g>
    </g>
</svg>