<svg width="143" height="26" viewBox="0 0 143 26" fill="none" xmlns="http://www.w3.org/2000/svg">
<path d="M8.29405 24.4714C6.66434 24.4714 5.10254 24.2532 3.60864 23.8166C2.11474 23.3801 0.911861 22.8126 0 22.1142L1.60061 18.5637C2.47366 19.1846 3.50678 19.6938 4.69996 20.0916C5.89314 20.4893 7.10087 20.6882 8.32316 20.6882C9.25442 20.6882 10.0062 20.596 10.5786 20.4117C11.1509 20.2274 11.5729 19.9703 11.8445 19.6405C12.1161 19.3107 12.2519 18.9323 12.2519 18.5055C12.2519 17.9623 12.0385 17.5306 11.6117 17.2105C11.1848 16.8904 10.6222 16.6284 9.92376 16.4247C9.22532 16.221 8.45411 16.027 7.61016 15.8427C6.7662 15.6584 5.92225 15.4304 5.07829 15.1588C4.23433 14.8872 3.46313 14.538 2.76468 14.1111C2.06624 13.6843 1.49875 13.1217 1.06222 12.4232C0.625692 11.7248 0.407427 10.8323 0.407427 9.74583C0.407427 8.58175 0.722698 7.51953 1.35324 6.55917C1.98378 5.5988 2.93445 4.83245 4.20523 4.26012C5.47602 3.68778 7.07177 3.40161 8.9925 3.40161C10.273 3.40161 11.5341 3.55197 12.7758 3.85269C14.0174 4.15341 15.1136 4.60449 16.0643 5.20593L14.6092 8.78547C13.6585 8.24223 12.7078 7.83965 11.7572 7.57774C10.8065 7.31582 9.87526 7.18486 8.9634 7.18486C8.05154 7.18486 7.30459 7.29157 6.72255 7.50498C6.14051 7.7184 5.72338 7.99486 5.47117 8.33439C5.21895 8.67391 5.09284 9.06679 5.09284 9.51302C5.09284 10.0369 5.30625 10.4588 5.73308 10.779C6.15991 11.0991 6.72255 11.3561 7.421 11.5502C8.11944 11.7442 8.89064 11.9382 9.7346 12.1322C10.5786 12.3262 11.4225 12.5493 12.2665 12.8015C13.1104 13.0538 13.8816 13.3933 14.5801 13.8201C15.2785 14.2469 15.846 14.8096 16.2825 15.508C16.7191 16.2065 16.9373 17.0892 16.9373 18.1563C16.9373 19.301 16.6172 20.3486 15.977 21.2993C15.3367 22.25 14.3812 23.0163 13.1104 23.5984C11.8396 24.1804 10.2342 24.4714 8.29405 24.4714Z" fill="white"/>
<path d="M29.2321 24.1222V7.59225H22.7132V3.7508H40.4654V7.59225H33.9466V24.1222H29.2321Z" fill="white"/>
<path d="M74.5421 24.1222V3.7508H83.36C85.1837 3.7508 86.7552 4.04667 88.0745 4.63841C89.3938 5.23015 90.4123 6.07895 91.1302 7.18483C91.848 8.2907 92.2069 9.60999 92.2069 11.1427C92.2069 12.656 91.848 13.9607 91.1302 15.0569C90.4123 16.1531 89.3938 16.9922 88.0745 17.5742C86.7552 18.1563 85.1837 18.4473 83.36 18.4473H77.1612L79.2566 16.381V24.1222H74.5421ZM87.4924 24.1222L82.3996 16.7303H87.4342L92.5853 24.1222H87.4924ZM79.2566 16.9049L77.1612 14.6931H83.098C84.5531 14.6931 85.6396 14.3779 86.3575 13.7473C87.0753 13.1168 87.4342 12.2486 87.4342 11.1427C87.4342 10.0174 87.0753 9.14436 86.3575 8.52352C85.6396 7.90268 84.5531 7.59225 83.098 7.59225H77.1612L79.2566 5.3514V16.9049Z" fill="white"/>
<path d="M99.758 24.1222V21.0665L112.359 5.87524L112.941 7.59225H99.9908V3.7508H117.132V6.8065L104.56 21.9977L103.978 20.2807H117.568V24.1222H99.758Z" fill="white"/>
<path d="M124.421 24.1222V21.0665L137.022 5.87524L137.604 7.59225H124.654V3.7508H141.795V6.8065L129.223 21.9977L128.641 20.2807H142.231V24.1222H124.421Z" fill="white"/>
<path fill-rule="evenodd" clip-rule="evenodd" d="M60.6594 8.03217L58.0676 0H54.8561L52.2665 8.03217H60.6594ZM69.0561 8.04259L42.8322 11.1244L47.5717 14.5531L67.6722 10.1846L48.8464 18.5393L47.0356 24.0703L69.8952 11.2676L70.1295 11.0981L69.1366 8.04241L69.0561 8.04259ZM63.2813 16.1017L56.4897 21.026L63.3025 26L65.9029 24.1101L63.2813 16.1017ZM49.6241 25.9962L49.4725 25.8903L49.6212 25.9983L49.6241 25.9962Z" fill="#EAE41F"/>
</svg>
