<svg width="198" height="198" viewBox="0 0 198 198" fill="none" xmlns="http://www.w3.org/2000/svg">
<g opacity="0.6" filter="url(#filter0_f_203_198)">
<circle cx="99" cy="99" r="55" fill="url(#paint0_radial_203_198)"/>
<circle cx="99" cy="99" r="54.5" stroke="#2C4C3B"/>
</g>
<g filter="url(#filter1_d_203_198)">
<path d="M104.813 52L106.24 51.5394C106.04 50.9199 105.464 50.5 104.813 50.5V52ZM114.307 81.425V82.925C114.787 82.925 115.237 82.6957 115.52 82.3079C115.802 81.9202 115.882 81.4208 115.735 80.9644L114.307 81.425ZM93.0477 52V50.5C92.3966 50.5 91.8198 50.92 91.6201 51.5397L93.0477 52ZM83.5608 81.425L82.1332 80.9647C81.986 81.4212 82.066 81.9204 82.3483 82.3081C82.6306 82.6957 83.0813 82.925 83.5608 82.925V81.425ZM49 92.7529L48.8249 91.2631C48.2109 91.3353 47.7041 91.7768 47.5484 92.375C47.3926 92.9733 47.6199 93.6059 48.1208 93.9682L49 92.7529ZM145.069 81.463L145.066 79.963C145.008 79.9631 144.951 79.9665 144.894 79.9732L145.069 81.463ZM66.3624 105.314L65.4832 106.529C65.8287 106.779 66.2643 106.87 66.681 106.779L66.3624 105.314ZM139.998 89.3098L140.607 90.6809C141.31 90.3688 141.663 89.5752 141.424 88.8439C141.185 88.1126 140.431 87.6807 139.68 87.8441L139.998 89.3098ZM71.032 119.916L70.4235 118.545C70.0355 118.718 69.7385 119.046 69.6064 119.45L71.032 119.916ZM64.3984 140.178L62.9728 139.711C62.7805 140.298 62.9682 140.944 63.4455 141.336C63.9228 141.729 64.5921 141.789 65.1314 141.487L64.3984 140.178ZM148.145 93.275L148.878 94.5838C148.928 94.5555 148.977 94.5243 149.024 94.4903L148.145 93.275ZM149 92.6565L149.879 93.8718C150.406 93.4902 150.627 92.812 150.426 92.193L149 92.6565ZM145.362 81.4623L146.789 80.9988C146.588 80.3795 146.01 79.9608 145.359 79.9623L145.362 81.4623ZM99.0318 129.026L98.1513 127.811C97.7629 128.093 97.5326 128.544 97.5318 129.023C97.531 129.503 97.7598 129.954 98.1473 130.237L99.0318 129.026ZM123.912 110.986L125.338 110.519C125.189 110.064 124.831 109.707 124.375 109.559C123.919 109.411 123.42 109.49 123.032 109.772L123.912 110.986ZM123.99 147.248L123.106 148.459C123.631 148.843 124.345 148.844 124.872 148.461L123.99 147.248ZM133.516 140.324L134.398 141.538C134.924 141.155 135.144 140.476 134.942 139.858L133.516 140.324ZM103.385 52.4606L112.88 81.8856L115.735 80.9644L106.24 51.5394L103.385 52.4606ZM93.0477 53.5H104.813V50.5H93.0477V53.5ZM84.9884 81.8853L94.4753 52.4603L91.6201 51.5397L82.1332 80.9647L84.9884 81.8853ZM114.307 79.925H83.5608V82.925H114.307V79.925ZM49.1751 94.2426L145.244 82.9527L144.894 79.9732L48.8249 91.2631L49.1751 94.2426ZM67.2416 104.098L49.8792 91.5376L48.1208 93.9682L65.4832 106.529L67.2416 104.098ZM139.68 87.8441L66.0438 103.848L66.681 106.779L140.317 90.7756L139.68 87.8441ZM71.6404 121.287L140.607 90.6809L139.39 87.9388L70.4235 118.545L71.6404 121.287ZM65.8239 140.645L72.4575 120.383L69.6064 119.45L62.9728 139.711L65.8239 140.645ZM147.412 91.9663L63.6654 138.869L65.1314 141.487L148.878 94.5838L147.412 91.9663ZM148.12 91.4412L147.266 92.0597L149.024 94.4903L149.879 93.8718L148.12 91.4412ZM143.936 81.9259L147.573 93.12L150.426 92.193L146.789 80.9988L143.936 81.9259ZM145.073 82.963L145.366 82.9623L145.359 79.9623L145.066 79.963L145.073 82.963ZM99.9123 130.24L124.793 112.2L123.032 109.772L98.1513 127.811L99.9123 130.24ZM124.875 146.036L99.9163 127.814L98.1473 130.237L123.106 148.459L124.875 146.036ZM132.634 139.111L123.108 146.034L124.872 148.461L134.398 141.538L132.634 139.111ZM122.487 111.453L132.09 140.791L134.942 139.858L125.338 110.519L122.487 111.453Z" fill="#2C4C3B"/>
</g>
<defs>
<filter id="filter0_f_203_198" x="0" y="0" width="198" height="198" filterUnits="userSpaceOnUse" color-interpolation-filters="sRGB">
<feFlood flood-opacity="0" result="BackgroundImageFix"/>
<feBlend mode="normal" in="SourceGraphic" in2="BackgroundImageFix" result="shape"/>
<feGaussianBlur stdDeviation="22" result="effect1_foregroundBlur_203_198"/>
</filter>
<filter id="filter1_d_203_198" x="39.4999" y="42.5" width="119" height="114.248" filterUnits="userSpaceOnUse" color-interpolation-filters="sRGB">
<feFlood flood-opacity="0" result="BackgroundImageFix"/>
<feColorMatrix in="SourceAlpha" type="matrix" values="0 0 0 0 0 0 0 0 0 0 0 0 0 0 0 0 0 0 127 0" result="hardAlpha"/>
<feOffset/>
<feGaussianBlur stdDeviation="4"/>
<feComposite in2="hardAlpha" operator="out"/>
<feColorMatrix type="matrix" values="0 0 0 0 0.870833 0 0 0 0 0.845202 0 0 0 0 0.00362849 0 0 0 0.8 0"/>
<feBlend mode="normal" in2="BackgroundImageFix" result="effect1_dropShadow_203_198"/>
<feBlend mode="normal" in="SourceGraphic" in2="effect1_dropShadow_203_198" result="shape"/>
</filter>
<radialGradient id="paint0_radial_203_198" cx="0" cy="0" r="1" gradientUnits="userSpaceOnUse" gradientTransform="translate(99 99) rotate(90) scale(55)">
<stop stop-color="#EAE41F"/>
<stop offset="1" stop-color="#FFFCA6" stop-opacity="0"/>
</radialGradient>
</defs>
</svg>
