<svg width="120" height="115" viewBox="0 0 120 115" fill="none" xmlns="http://www.w3.org/2000/svg">
<g filter="url(#filter0_d_203_172)">
<path d="M65.8125 10L67.2401 9.53938C67.0402 8.91987 66.4635 8.5 65.8125 8.5V10ZM75.3072 39.425V40.925C75.7868 40.925 76.2375 40.6957 76.5198 40.3079C76.8021 39.9202 76.882 39.4208 76.7347 38.9644L75.3072 39.425ZM54.0477 10V8.5C53.3966 8.5 52.8198 8.92003 52.6201 9.53972L54.0477 10ZM44.5608 39.425L43.1332 38.9647C42.986 39.4212 43.066 39.9204 43.3483 40.3081C43.6306 40.6957 44.0813 40.925 44.5608 40.925V39.425ZM10 50.7529L9.82493 49.2631C9.21094 49.3353 8.70411 49.7768 8.54837 50.375C8.39264 50.9733 8.61991 51.6059 9.12079 51.9682L10 50.7529ZM106.069 39.463L106.066 37.963C106.008 37.9631 105.951 37.9665 105.894 37.9732L106.069 39.463ZM27.3624 63.3135L26.4832 64.5288C26.8287 64.7788 27.2643 64.8699 27.681 64.7793L27.3624 63.3135ZM100.998 47.3098L101.607 48.6809C102.31 48.3688 102.663 47.5752 102.424 46.8439C102.185 46.1126 101.431 45.6807 100.68 45.8441L100.998 47.3098ZM32.032 77.9164L31.4235 76.5453C31.0355 76.7175 30.7385 77.0461 30.6064 77.4496L32.032 77.9164ZM25.3984 98.1778L23.9728 97.7111C23.7805 98.2985 23.9682 98.9437 24.4455 99.3363C24.9228 99.7289 25.5921 99.7886 26.1314 99.4865L25.3984 98.1778ZM109.145 51.275L109.878 52.5838C109.928 52.5555 109.977 52.5243 110.024 52.4903L109.145 51.275ZM110 50.6565L110.879 51.8718C111.406 51.4902 111.627 50.812 111.426 50.193L110 50.6565ZM106.362 39.4623L107.789 38.9988C107.588 38.3795 107.01 37.9608 106.359 37.9623L106.362 39.4623ZM60.0318 87.0259L59.1513 85.8115C58.7629 86.0931 58.5326 86.5436 58.5318 87.0234C58.531 87.5032 58.7598 87.9544 59.1473 88.2374L60.0318 87.0259ZM84.9123 68.9861L86.3378 68.5195C86.1887 68.0639 85.8309 67.7071 85.3749 67.5592C84.919 67.4114 84.4198 67.4904 84.0318 67.7717L84.9123 68.9861ZM84.99 105.248L84.1055 106.459C84.6315 106.843 85.3451 106.844 85.8719 106.461L84.99 105.248ZM94.516 98.3242L95.3979 99.5376C95.9245 99.1549 96.1441 98.4762 95.9416 97.8576L94.516 98.3242ZM64.385 10.4606L73.8797 39.8856L76.7347 38.9644L67.2401 9.53938L64.385 10.4606ZM54.0477 11.5H65.8125V8.5H54.0477V11.5ZM45.9884 39.8853L55.4753 10.4603L52.6201 9.53972L43.1332 38.9647L45.9884 39.8853ZM75.3072 37.925H44.5608V40.925H75.3072V37.925ZM10.1751 52.2426L106.244 40.9527L105.894 37.9732L9.82493 49.2631L10.1751 52.2426ZM28.2416 62.0982L10.8792 49.5376L9.12079 51.9682L26.4832 64.5288L28.2416 62.0982ZM100.68 45.8441L27.0438 61.8477L27.681 64.7793L101.317 48.7756L100.68 45.8441ZM32.6404 79.2874L101.607 48.6809L100.39 45.9388L31.4235 76.5453L32.6404 79.2874ZM26.8239 98.6445L33.4575 78.3831L30.6064 77.4496L23.9728 97.7111L26.8239 98.6445ZM108.412 49.9663L24.6654 96.8691L26.1314 99.4865L109.878 52.5838L108.412 49.9663ZM109.12 49.4412L108.266 50.0597L110.024 52.4903L110.879 51.8718L109.12 49.4412ZM104.936 39.9259L108.573 51.12L111.426 50.193L107.789 38.9988L104.936 39.9259ZM106.073 40.963L106.366 40.9623L106.359 37.9623L106.066 37.963L106.073 40.963ZM60.9123 88.2403L85.7928 70.2005L84.0318 67.7717L59.1513 85.8115L60.9123 88.2403ZM85.8745 104.036L60.9163 85.8144L59.1473 88.2374L84.1055 106.459L85.8745 104.036ZM93.6342 97.1109L84.1081 104.034L85.8719 106.461L95.3979 99.5376L93.6342 97.1109ZM83.4867 69.4528L93.0905 98.7909L95.9416 97.8576L86.3378 68.5195L83.4867 69.4528Z" fill="#EAE41F"/>
</g>
<defs>
<filter id="filter0_d_203_172" x="0.499939" y="0.5" width="119" height="114.248" filterUnits="userSpaceOnUse" color-interpolation-filters="sRGB">
<feFlood flood-opacity="0" result="BackgroundImageFix"/>
<feColorMatrix in="SourceAlpha" type="matrix" values="0 0 0 0 0 0 0 0 0 0 0 0 0 0 0 0 0 0 127 0" result="hardAlpha"/>
<feOffset/>
<feGaussianBlur stdDeviation="4"/>
<feComposite in2="hardAlpha" operator="out"/>
<feColorMatrix type="matrix" values="0 0 0 0 0.870833 0 0 0 0 0.845202 0 0 0 0 0.00362849 0 0 0 0.8 0"/>
<feBlend mode="normal" in2="BackgroundImageFix" result="effect1_dropShadow_203_172"/>
<feBlend mode="normal" in="SourceGraphic" in2="effect1_dropShadow_203_172" result="shape"/>
</filter>
</defs>
</svg>
