<svg width="48" height="48" viewBox="0 0 48 48" fill="none" xmlns="http://www.w3.org/2000/svg">
<path d="M24 44.9879C23.3558 44.9879 22.7105 44.8444 22.1339 44.5731C20.3915 43.753 16.9889 41.9947 13.7791 39.4314C9.60358 36.0968 7.12866 32.5176 6.42297 28.793C5.87482 25.8997 6.65741 22.9461 8.56998 20.6894C10.3413 18.5995 12.8512 17.3783 15.6375 17.2506C15.8013 17.243 15.9673 17.2393 16.1307 17.2393C18.7412 17.2393 21.2056 18.1853 23.0698 19.9032C23.4066 20.2135 23.7171 20.5427 23.9998 20.8883C24.2827 20.5427 24.5931 20.2134 24.9299 19.9031C26.7941 18.1853 29.2585 17.2393 31.8692 17.2393C32.0326 17.2393 32.1986 17.243 32.3625 17.2506C35.1487 17.3783 37.6587 18.5995 39.43 20.6895C41.3426 22.9461 42.125 25.8997 41.5769 28.793C40.8713 32.5174 38.3963 36.0967 34.2209 39.4313C31.0112 41.9945 27.6087 43.753 25.8661 44.573C25.2895 44.8444 24.6442 44.9879 24 44.9879Z" fill="url(#paint0_linear_15_3279)"/>
<path d="M7.42993 31.8838C8.64734 34.5018 10.7722 37.03 13.7791 39.4314C16.9889 41.9947 20.3915 43.7531 22.1339 44.5731C22.7105 44.8444 23.3559 44.9879 24 44.9879C24.6442 44.9879 25.2895 44.8444 25.8661 44.5731C27.6087 43.7531 31.0112 41.9947 34.2209 39.4314C37.2279 37.03 39.3527 34.5018 40.5701 31.8838H7.42993Z" fill="url(#paint1_linear_15_3279)"/>
<path d="M23.0699 19.9032C21.2056 18.1853 18.7413 17.2393 16.1308 17.2393C15.9674 17.2393 15.8014 17.243 15.6375 17.2506C12.8512 17.3783 10.3414 18.5995 8.57006 20.6894C6.6575 22.9461 5.875 25.8997 6.42305 28.793C6.81242 30.8481 7.74164 32.8589 9.19689 34.8089L24 20.8883C23.7172 20.5428 23.4067 20.2135 23.0699 19.9032Z" fill="url(#paint2_linear_15_3279)"/>
<path d="M17.3015 33.1816L27.7491 43.6293C29.5602 42.6685 31.939 41.2535 34.2209 39.4311C35.5819 38.3442 36.7611 37.2311 37.7584 36.0956L26.073 24.4102L17.3015 33.1816Z" fill="url(#paint3_linear_15_3279)"/>
<path d="M7.19273 14.5219C9.00496 16.3341 9.19894 19.0782 7.62614 20.651C6.05334 22.2238 3.30915 22.0298 1.49701 20.2176C-0.315131 18.4054 -0.509202 15.6613 1.0636 14.0885C2.6364 12.5157 5.38049 12.7096 7.19273 14.5219Z" fill="url(#paint4_linear_15_3279)"/>
<path d="M40.8073 14.5219C38.9951 16.3341 38.801 19.0782 40.3738 20.651C41.9466 22.2238 44.6908 22.0298 46.503 20.2176C48.3151 18.4054 48.5092 15.6613 46.9364 14.0885C45.3636 12.5157 42.6195 12.7096 40.8073 14.5219Z" fill="url(#paint5_linear_15_3279)"/>
<path d="M20.9957 7.71377C21.739 10.8898 20.107 13.9874 17.3505 14.6324C14.594 15.2775 11.7568 13.2259 11.0135 10.05C10.2703 6.87405 11.9023 3.77635 14.6588 3.13127C17.4153 2.48619 20.2525 4.53777 20.9957 7.71377Z" fill="url(#paint6_linear_15_3279)"/>
<path d="M27.0042 7.71377C26.2609 10.8898 27.8929 13.9874 30.6495 14.6324C33.406 15.2775 36.2432 13.2259 36.9864 10.05C37.7296 6.87395 36.0976 3.77635 33.3411 3.13127C30.5846 2.48619 27.7474 4.53777 27.0042 7.71377Z" fill="url(#paint7_linear_15_3279)"/>
<path d="M26.385 28.7285V25.2765C26.385 24.5262 25.7768 23.918 25.0265 23.918H22.9734C22.2231 23.918 21.6149 24.5262 21.6149 25.2765V28.7285H18.1629C17.4126 28.7285 16.8044 29.3367 16.8044 30.087V32.1401C16.8044 32.8904 17.4126 33.4986 18.1629 33.4986H21.6149V36.9506C21.6149 37.7009 22.2231 38.3091 22.9734 38.3091H25.0265C25.7768 38.3091 26.385 37.7009 26.385 36.9506V33.4986H29.837C30.5873 33.4986 31.1955 32.8904 31.1955 32.1401V30.087C31.1955 29.3367 30.5873 28.7285 29.837 28.7285H26.385Z" fill="url(#paint8_linear_15_3279)"/>
<defs>
<linearGradient id="paint0_linear_15_3279" x1="18.5151" y1="22.0837" x2="33.9124" y2="37.481" gradientUnits="userSpaceOnUse">
<stop stop-color="#FEAEE1"/>
<stop offset="0.1963" stop-color="#FEA3D7"/>
<stop offset="0.5371" stop-color="#FE87BF"/>
<stop offset="0.9794" stop-color="#FE5996"/>
<stop offset="1" stop-color="#FE5694"/>
</linearGradient>
<linearGradient id="paint1_linear_15_3279" x1="24" y1="36.2856" x2="24" y2="48.0669" gradientUnits="userSpaceOnUse">
<stop stop-color="#FE0364" stop-opacity="0"/>
<stop offset="0.399" stop-color="#F70360" stop-opacity="0.399"/>
<stop offset="0.9738" stop-color="#E40257" stop-opacity="0.974"/>
<stop offset="1" stop-color="#E30256"/>
</linearGradient>
<linearGradient id="paint2_linear_15_3279" x1="18.1589" y1="21.4794" x2="27.7324" y2="15.2634" gradientUnits="userSpaceOnUse">
<stop stop-color="#FE0364" stop-opacity="0"/>
<stop offset="0.399" stop-color="#F70360" stop-opacity="0.399"/>
<stop offset="0.9738" stop-color="#E40257" stop-opacity="0.974"/>
<stop offset="1" stop-color="#E30256"/>
</linearGradient>
<linearGradient id="paint3_linear_15_3279" x1="30.8542" y1="37.9628" x2="18.6686" y2="25.7771" gradientUnits="userSpaceOnUse">
<stop stop-color="#FE0364" stop-opacity="0"/>
<stop offset="0.399" stop-color="#F70360" stop-opacity="0.399"/>
<stop offset="0.9738" stop-color="#E40257" stop-opacity="0.974"/>
<stop offset="1" stop-color="#E30256"/>
</linearGradient>
<linearGradient id="paint4_linear_15_3279" x1="2.44421" y1="15.2726" x2="6.43226" y2="19.6731" gradientUnits="userSpaceOnUse">
<stop stop-color="#FEAEE1"/>
<stop offset="0.1963" stop-color="#FEA3D7"/>
<stop offset="0.5371" stop-color="#FE87BF"/>
<stop offset="0.9794" stop-color="#FE5996"/>
<stop offset="1" stop-color="#FE5694"/>
</linearGradient>
<linearGradient id="paint5_linear_15_3279" x1="42.4242" y1="14.9823" x2="44.6932" y2="19.3829" gradientUnits="userSpaceOnUse">
<stop stop-color="#FEAEE1"/>
<stop offset="0.1963" stop-color="#FEA3D7"/>
<stop offset="0.5371" stop-color="#FE87BF"/>
<stop offset="0.9794" stop-color="#FE5996"/>
<stop offset="1" stop-color="#FE5694"/>
</linearGradient>
<linearGradient id="paint6_linear_15_3279" x1="11.6596" y1="6.19785" x2="18.2974" y2="10.3175" gradientUnits="userSpaceOnUse">
<stop stop-color="#FEAEE1"/>
<stop offset="0.1963" stop-color="#FEA3D7"/>
<stop offset="0.5371" stop-color="#FE87BF"/>
<stop offset="0.9794" stop-color="#FE5996"/>
<stop offset="1" stop-color="#FE5694"/>
</linearGradient>
<linearGradient id="paint7_linear_15_3279" x1="29.9958" y1="5.5612" x2="33.8463" y2="11.9558" gradientUnits="userSpaceOnUse">
<stop stop-color="#FEAEE1"/>
<stop offset="0.1963" stop-color="#FEA3D7"/>
<stop offset="0.5371" stop-color="#FE87BF"/>
<stop offset="0.9794" stop-color="#FE5996"/>
<stop offset="1" stop-color="#FE5694"/>
</linearGradient>
<linearGradient id="paint8_linear_15_3279" x1="20.993" y1="28.1065" x2="26.2774" y2="33.3909" gradientUnits="userSpaceOnUse">
<stop stop-color="#F9F5F3"/>
<stop offset="1" stop-color="#EFE2DD"/>
</linearGradient>
</defs>
</svg>
