<svg width="77" height="60" viewBox="0 0 77 60" fill="none" xmlns="http://www.w3.org/2000/svg">
<g clip-path="url(#clip0_1_18)">
<path d="M70.6167 37.5511H60.8417C60.8014 37.301 60.7583 37.0509 60.718 36.8008C60.7583 36.3571 60.7583 35.908 60.675 35.4213C60.4087 33.9261 59.6746 32.3449 59.7445 30.8175V30.8094C59.7526 30.7799 59.758 30.7583 59.766 30.7288C59.9785 29.9785 60.4437 29.2766 61.1241 28.9405H61.1509C61.7802 28.9835 62.396 29.0561 62.9984 29.2551C63.0979 29.2928 63.8051 29.6128 64.0283 29.6424C65.2089 29.801 65.83 29.2551 65.83 28.2198C66.1016 28.279 66.3598 28.3435 66.6744 28.2198C66.946 28.1149 67.1746 27.9213 67.2687 27.6282C67.4328 27.0769 67.0106 26.2917 66.5534 25.8184C67.0186 25.5495 67.4328 25.1891 67.5968 24.6674C67.7555 24.1673 67.8335 23.2449 67.5269 22.7716C67.2257 22.3279 66.4243 22.2203 65.9537 22.1262C65.2815 21.9971 64.5688 21.7981 63.867 21.6691C63.8401 21.4405 63.8239 21.1985 63.7325 20.9914C63.6169 20.7332 63.4528 20.4912 63.2458 20.2976C62.8801 19.9534 62.4095 19.8055 61.9442 19.6549C61.6431 19.2972 61.1778 18.9826 60.8417 18.8266C60.4706 18.6492 59.9677 18.4636 59.4971 18.3964C59.2175 16.9039 58.4242 15.5378 56.9586 14.9086C56.9021 14.879 56.8161 14.9086 56.8241 14.9785C56.9102 15.6562 57.1683 16.3231 57.1737 17.0088C57.1737 17.4606 56.9156 18.1544 56.5014 18.59C55.1864 17.7322 54.9068 16.1725 53.6133 15.2797C52.8119 14.723 51.54 13.443 50.4831 13.7442C50.4563 13.7522 50.4267 13.7711 50.4186 13.8006C50.3379 14.1798 50.4105 14.4353 50.5396 14.8091C50.8247 15.6454 50.8973 16.3957 51.0344 17.2669C51.1501 18.0468 51.4996 18.7325 51.9487 19.3699C51.7632 20.1981 51.4647 21.0506 51.6422 21.8869C51.7336 22.3225 51.9272 22.7151 52.1504 23.097C51.5292 24.5195 50.9484 25.9771 50.0341 27.2356C49.4962 27.9643 48.8697 28.7522 48.6115 29.637C48.4986 30.0296 48.4636 30.4303 48.434 30.8309C47.5197 31.8958 46.7399 33.227 46.0192 34.3914C45.554 35.1497 45.3254 35.9134 45.234 36.7094C45.0296 36.9622 44.844 37.2472 44.6773 37.5511H40.5468C36.1474 37.5511 33.3991 32.7886 35.5961 28.9781L50.6284 2.92847C52.8281 -0.882033 58.3274 -0.882033 60.5271 2.92847L75.5674 28.9781C77.7671 32.7886 75.0188 37.5511 70.6167 37.5511Z" fill="#00C7A0"/>
<path d="M7.32789 45.9789C7.56992 45.9789 7.79311 46.0407 7.9948 46.159C8.19917 46.2801 8.34976 46.4602 8.45195 46.7022L11.2567 53.1105L10.8372 53.3014L13.6985 46.7211C13.9136 46.2128 14.2524 45.9708 14.7096 45.995C15.0269 45.995 15.285 46.0945 15.4814 46.2908C15.6777 46.4871 15.7772 46.7318 15.7772 47.0249C15.7772 47.1137 15.761 47.2105 15.7288 47.31C15.6965 47.4122 15.6615 47.5063 15.6239 47.595L12.0554 55.4554C11.851 55.9125 11.5283 56.1546 11.0819 56.1815C10.8399 56.2191 10.6086 56.1761 10.3854 56.047C10.1622 55.9206 9.99552 55.7216 9.87988 55.4554L6.33291 47.595C6.30602 47.5305 6.27913 47.4498 6.24686 47.3476C6.21459 47.2455 6.19846 47.1244 6.19846 46.9846C6.19846 46.756 6.30064 46.5301 6.50502 46.3069C6.70939 46.0837 6.98099 45.9735 7.3252 45.9735L7.32789 45.9789Z" fill="#00C7A0"/>
<path d="M22.2069 56.3751C21.1258 56.3751 20.1873 56.1492 19.394 55.6974C18.5981 55.2456 17.9876 54.6325 17.5627 53.8553C17.1352 53.0809 16.9227 52.2015 16.9227 51.2227C16.9227 50.0771 17.154 49.1036 17.6192 48.2942C18.0844 47.4875 18.6895 46.8663 19.4398 46.4333C20.19 46.0004 20.986 45.7852 21.825 45.7852C22.4731 45.7852 23.0862 45.9197 23.6671 46.1859C24.2452 46.4522 24.7562 46.8179 25.2026 47.2831C25.6463 47.7483 26.0013 48.2835 26.2621 48.8939C26.5229 49.5043 26.652 50.1524 26.652 50.8408C26.6386 51.1447 26.5176 51.3948 26.289 51.5857C26.0604 51.7766 25.7942 51.8708 25.4876 51.8708H18.2001L17.6273 49.9642H24.6271L24.2076 50.346V49.8297C24.1834 49.4613 24.0516 49.1305 23.8177 48.8374C23.581 48.5443 23.2906 48.313 22.941 48.1409C22.5914 47.9688 22.2203 47.8828 21.825 47.8828C21.4297 47.8828 21.0882 47.9339 20.7574 48.0361C20.4267 48.1382 20.1416 48.3103 19.8996 48.5524C19.6576 48.7944 19.4667 49.1171 19.3268 49.5258C19.187 49.9319 19.1171 50.4482 19.1171 51.0721C19.1171 51.7578 19.2596 52.3414 19.5473 52.8173C19.8324 53.2933 20.2008 53.6563 20.6526 53.9038C21.1043 54.1512 21.583 54.2749 22.0939 54.2749C22.5645 54.2749 22.9383 54.2372 23.2207 54.1592C23.5004 54.0839 23.7262 53.9898 23.8983 53.8822C24.0705 53.7747 24.2264 53.6832 24.3663 53.6053C24.5948 53.4896 24.81 53.4332 25.0143 53.4332C25.294 53.4332 25.5253 53.5273 25.7108 53.7182C25.8937 53.9091 25.9878 54.1323 25.9878 54.3851C25.9878 54.7293 25.8103 55.0413 25.4527 55.3209C25.1219 55.6006 24.6567 55.8453 24.0597 56.0551C23.4627 56.2648 22.8442 56.3697 22.2096 56.3697L22.2069 56.3751Z" fill="#00C7A0"/>
<path d="M28.6716 46.1698H33.192C33.4986 46.1698 33.7513 46.272 33.9557 46.4737C34.1601 46.678 34.2623 46.9308 34.2623 47.2374C34.2623 47.5439 34.1601 47.7752 33.9557 47.9715C33.7513 48.1678 33.4986 48.2673 33.192 48.2673H28.6716C28.365 48.2673 28.1122 48.1651 27.9078 47.9634C27.7035 47.7591 27.604 47.5063 27.604 47.1997C27.604 46.8932 27.7062 46.6619 27.9078 46.4656C28.1122 46.2693 28.365 46.1698 28.6716 46.1698ZM30.7126 43.7845C31.0434 43.7845 31.3123 43.8948 31.522 44.118C31.7318 44.3412 31.8367 44.6182 31.8367 44.9489V53.4385C31.8367 53.616 31.8716 53.7639 31.9415 53.8769C32.0115 53.9898 32.1056 54.0732 32.2266 54.1243C32.3476 54.1754 32.4767 54.1996 32.6165 54.1996C32.7698 54.1996 32.9096 54.17 33.036 54.1135C33.1624 54.057 33.3103 54.0275 33.4744 54.0275C33.6518 54.0275 33.8132 54.1108 33.9611 54.2749C34.1063 54.4416 34.1816 54.6702 34.1816 54.9606C34.1816 55.3155 33.988 55.6087 33.6007 55.8372C33.2135 56.0658 32.7967 56.1814 32.3503 56.1814C32.0841 56.1814 31.7883 56.1599 31.4629 56.1142C31.1375 56.0712 30.8336 55.9609 30.5459 55.7888C30.2608 55.6167 30.0215 55.3532 29.8306 54.9982C29.6396 54.6433 29.5455 54.1538 29.5455 53.53V44.9462C29.5455 44.6155 29.6558 44.3385 29.879 44.1153C30.1022 43.8921 30.3792 43.7818 30.7099 43.7818L30.7126 43.7845Z" fill="#00C7A0"/>
<path d="M40.7512 8.57297L25.7108 34.6199C23.5111 38.4304 18.0118 38.4304 15.8121 34.6199L0.774477 8.57297C-1.42524 4.76246 1.32575 0 5.72249 0H24.3448C24.0463 0.397992 23.7263 0.779849 23.374 1.13482C22.7555 1.75869 22.2392 2.47132 21.8385 3.25117C21.8116 3.30764 21.782 3.36142 21.7524 3.4152C21.5776 3.7621 21.3975 4.12245 21.1017 4.36985C20.8085 4.61187 20.3998 4.75439 19.8458 4.80011C19.6576 4.81624 19.4694 4.81086 19.2892 4.8028C19.0445 4.79473 18.7944 4.78397 18.5335 4.83507C17.7295 4.98297 16.9604 5.26533 16.2531 5.67139C16.116 5.74937 15.9789 5.83542 15.8471 5.91341C15.4787 6.1393 15.0995 6.37325 14.6881 6.50233C14.3949 6.59107 14.0884 6.63141 13.7845 6.66906C13.607 6.69057 13.4215 6.71477 13.2413 6.74973C12.8406 6.82503 12.4292 6.95679 11.9586 7.16655C11.7031 7.2042 11.4503 7.23109 11.1949 7.24722C11.1868 7.24722 11.1787 7.25529 11.1761 7.26067C11.1761 7.26605 11.1761 7.26873 11.1761 7.27411C11.168 7.27411 11.1626 7.2768 11.1599 7.28218C11.1545 7.28756 11.1519 7.29563 11.1545 7.301C11.332 8.03245 11.9586 8.62675 12.6282 8.71549C12.6282 8.72356 12.6282 8.73162 12.6363 8.737C12.6443 8.74238 12.6497 8.74507 12.6524 8.75045C12.4884 9.12424 12.405 9.54374 12.4023 9.98207V10.0278C12.4023 10.1004 12.405 10.173 12.4104 10.2483C12.4104 10.2644 12.4131 10.2806 12.4157 10.294C12.4184 10.3397 12.4238 10.3881 12.4292 10.4365C12.4292 10.4527 12.4319 10.4688 12.4346 10.4876C12.5072 11.047 12.7062 11.6224 13.0262 12.2033C13.0369 12.2194 13.0477 12.2436 13.0719 12.2598C13.0934 12.2732 13.1122 12.2759 13.1364 12.2732C13.1364 12.2732 13.1364 12.2759 13.1391 12.2786C13.2628 12.4668 13.2494 12.7142 13.2225 12.9105C13.2198 12.9455 13.2144 12.9805 13.209 13.0127C13.1795 13.201 13.1526 13.3946 13.1956 13.5855C13.2225 13.6958 13.2736 13.7764 13.3435 13.8168C13.3838 13.841 13.4349 13.8491 13.4833 13.841C13.6312 13.841 13.7791 13.8275 13.9244 13.7899C13.9244 13.7899 13.927 13.7899 13.9297 13.7899C14.2121 13.9647 14.5509 14.04 14.8844 14.0238C14.9005 14.0238 14.914 14.0212 14.9301 14.0212C15.0054 14.0131 15.078 14.005 15.1506 13.9889C15.1667 13.9862 15.1829 13.9808 15.1963 13.9781C15.3469 13.9405 15.4921 13.884 15.6266 13.8087C15.64 13.8006 15.6535 13.7926 15.6642 13.7872C15.7153 13.7549 15.7637 13.7254 15.8067 13.6877C15.9036 13.6124 15.995 13.5237 16.0784 13.4376C16.159 13.3596 16.2424 13.279 16.3284 13.2063C16.635 12.9589 17.0195 12.8245 17.3906 12.6927C17.4713 12.6658 17.5493 12.6363 17.6273 12.6067C17.9097 12.5018 18.1893 12.3862 18.4071 12.2302C18.59 12.5206 18.8078 12.7895 19.0203 13.0504C19.3349 13.4349 19.6603 13.8356 19.8566 14.2954C20.19 15.0753 20.1766 16.0515 19.8109 17.2831C19.706 17.6461 19.6119 18.0145 19.5204 18.3695C19.3672 18.9745 19.2112 19.6011 18.9799 20.2008C18.5604 21.2953 17.7268 22.2418 16.6968 22.8012C16.6135 22.8469 16.5301 22.8899 16.4468 22.9303C16.1536 23.0809 15.8471 23.2341 15.6185 23.4788C15.32 23.7935 15.0269 24.6432 15.4706 24.6621C15.5809 24.6674 15.6588 24.5195 15.7207 24.4308C15.8794 24.5034 16.0837 24.4953 16.2397 24.42C16.393 24.3447 16.5221 24.221 16.6323 24.0382C16.6673 24.0543 16.7022 24.0651 16.7426 24.0705C16.8259 24.0758 16.9039 24.0436 16.9738 24.0194L18.7379 23.3363C18.6142 23.503 18.5604 23.7289 18.6734 23.9037C18.7971 24.0947 19.0498 24.1296 19.1897 24.1377C19.3188 24.1431 19.4451 24.1377 19.5635 24.1215C19.6307 24.1 19.7006 24.0785 19.7705 24.0624C19.8082 24.0543 19.8458 24.0489 19.8808 24.0489C19.9615 24.0247 20.0368 23.9925 20.1067 23.9575C20.182 23.9199 20.4132 23.8015 20.424 23.7935L20.7628 23.6214C20.8731 23.5434 20.9941 23.4815 21.1151 23.4197C21.1474 23.3982 21.1904 23.3659 21.1985 23.3605C21.263 23.3067 21.3329 23.2583 21.4055 23.2126C21.4862 23.1615 21.5723 23.1239 21.6556 23.0835C22.0294 22.8173 22.3548 22.5161 22.6022 22.137C23.097 21.3813 23.3794 20.5289 23.6671 19.5769C23.9925 18.512 24.3071 17.4256 24.5975 16.3526C24.9122 15.2017 25.208 13.9808 25.0762 12.7842C26.004 11.7919 27.0957 10.9421 28.1526 10.1246C28.6178 9.76425 29.0991 9.39046 29.559 9.00861C32.3288 6.72284 35.3863 3.9853 36.6099 0.430262C36.6476 0.317318 36.6906 0.201685 36.7309 0.0833632C40.571 0.699175 42.7815 5.0502 40.7431 8.58103L40.7512 8.57297Z" fill="#00426E"/>
<path d="M44.6208 45.7879C44.9516 45.7879 45.2259 45.8955 45.441 46.1133C45.6561 46.3311 45.7664 46.6081 45.7664 46.9523V55.0224C45.7664 55.3532 45.6588 55.6302 45.441 55.8534C45.2259 56.0765 44.9516 56.1868 44.6208 56.1868C44.2901 56.1868 44.0158 56.0765 43.8006 55.8534C43.5855 55.6302 43.4753 55.3532 43.4753 55.0224V54.0866L43.8948 54.2587C43.8948 54.4254 43.806 54.6244 43.6285 54.8584C43.4511 55.095 43.209 55.3263 42.9052 55.5549C42.5986 55.7834 42.2409 55.9771 41.8268 56.1357C41.4127 56.2944 40.9663 56.375 40.4822 56.375C39.6056 56.375 38.8096 56.1492 38.097 55.6974C37.3844 55.2456 36.8223 54.6217 36.4082 53.8284C35.9941 53.0351 35.7897 52.1208 35.7897 51.0909C35.7897 50.061 35.9968 49.1305 36.4082 48.3345C36.8223 47.5412 37.379 46.9174 38.0782 46.4656C38.7773 46.0138 39.5545 45.7879 40.4043 45.7879C40.9502 45.7879 41.453 45.8713 41.9102 46.0353C42.3673 46.202 42.7653 46.4118 43.1015 46.6646C43.4376 46.92 43.6985 47.1755 43.884 47.4364C44.0669 47.6972 44.161 47.9177 44.161 48.0952L43.4753 48.3426V46.9496C43.4753 46.6189 43.5828 46.3419 43.8006 46.1187C44.0158 45.8955 44.2901 45.7852 44.6208 45.7852V45.7879ZM40.7673 54.2775C41.3266 54.2775 41.8161 54.1377 42.2356 53.858C42.6551 53.5783 42.9831 53.1965 43.2171 52.7124C43.4511 52.2284 43.5694 51.6879 43.5694 51.0909C43.5694 50.4939 43.4511 49.9346 43.2171 49.4505C42.9805 48.9665 42.6551 48.5846 42.2356 48.3049C41.8161 48.0253 41.3266 47.8854 40.7673 47.8854C40.208 47.8854 39.7374 48.0253 39.3179 48.3049C38.8983 48.5846 38.5703 48.9665 38.3363 49.4505C38.0997 49.9346 37.984 50.4805 37.984 51.0909C37.984 51.7013 38.1024 52.2284 38.3363 52.7124C38.5703 53.1965 38.8983 53.5783 39.3179 53.858C39.7374 54.1377 40.2214 54.2775 40.7673 54.2775Z" fill="#00426E"/>
<path d="M53.5272 45.7879C54.4173 45.7879 55.216 46.0138 55.9206 46.4656C56.6251 46.9174 57.1871 47.5359 57.5986 48.3265C58.0127 49.1144 58.2198 50.0314 58.2198 51.0721C58.2198 52.1128 58.0127 53.0351 57.5986 53.8284C57.1845 54.6244 56.6332 55.2456 55.9394 55.6974C55.2456 56.1492 54.4684 56.3751 53.6025 56.3751C53.0943 56.3751 52.6156 56.2917 52.1719 56.1277C51.7255 55.9636 51.3356 55.7539 50.9994 55.4984C50.6633 55.2429 50.4025 54.9875 50.2169 54.7266C50.0314 54.4658 49.9399 54.2479 49.9399 54.0678L50.5315 53.8204V58.8383C50.5315 59.1691 50.424 59.446 50.2061 59.6692C49.991 59.8924 49.7167 60.0027 49.386 60.0027C49.0552 60.0027 48.7809 59.8951 48.5658 59.6773C48.3506 59.4595 48.2404 59.1825 48.2404 58.8383V47.1459C48.2404 46.8152 48.348 46.5382 48.5658 46.315C48.7809 46.0918 49.0552 45.9815 49.386 45.9815C49.7167 45.9815 49.991 46.0918 50.2061 46.315C50.4213 46.5382 50.5315 46.8152 50.5315 47.1459V48.0818L50.2061 47.9097C50.2061 47.7456 50.2949 47.5439 50.4724 47.3073C50.6499 47.0733 50.8919 46.8367 51.1984 46.6027C51.5023 46.3688 51.8573 46.1725 52.258 46.0219C52.6586 45.8686 53.0808 45.7933 53.5272 45.7933V45.7879ZM53.2422 47.8855C52.6828 47.8855 52.1934 48.0253 51.7739 48.305C51.3544 48.5846 51.0263 48.9638 50.7924 49.4398C50.5557 49.9158 50.4401 50.459 50.4401 51.0694C50.4401 51.6798 50.5584 52.2123 50.7924 52.7017C51.0263 53.1911 51.3544 53.5757 51.7739 53.8553C52.1934 54.135 52.6828 54.2748 53.2422 54.2748C53.8015 54.2748 54.2883 54.135 54.7024 53.8553C55.1165 53.5757 55.4392 53.1911 55.6758 52.7017C55.9098 52.2123 56.0281 51.6691 56.0281 51.0694C56.0281 50.4697 55.9098 49.9158 55.6758 49.4398C55.4392 48.9638 55.1165 48.5846 54.7024 48.305C54.2883 48.0253 53.8015 47.8855 53.2422 47.8855Z" fill="#00426E"/>
<path d="M65.4132 45.7879C66.3033 45.7879 67.102 46.0138 67.8065 46.4656C68.5111 46.9174 69.0731 47.5359 69.4846 48.3265C69.8987 49.1144 70.1058 50.0314 70.1058 51.0721C70.1058 52.1128 69.8987 53.0351 69.4846 53.8284C69.0704 54.6244 68.5192 55.2456 67.8254 55.6974C67.1316 56.1492 66.3544 56.3751 65.4885 56.3751C64.9803 56.3751 64.5016 56.2917 64.0579 56.1277C63.6115 55.9636 63.2216 55.7539 62.8854 55.4984C62.5493 55.2429 62.2884 54.9875 62.1029 54.7266C61.9173 54.4658 61.8259 54.2479 61.8259 54.0678L62.4175 53.8204V58.8383C62.4175 59.1691 62.31 59.446 62.0921 59.6692C61.877 59.8924 61.6027 60.0027 61.2719 60.0027C60.9412 60.0027 60.6669 59.8951 60.4518 59.6773C60.2366 59.4595 60.1264 59.1825 60.1264 58.8383V47.1459C60.1264 46.8152 60.2339 46.5382 60.4518 46.315C60.6669 46.0918 60.9412 45.9815 61.2719 45.9815C61.6027 45.9815 61.877 46.0918 62.0921 46.315C62.3073 46.5382 62.4175 46.8152 62.4175 47.1459V48.0818L62.0921 47.9097C62.0921 47.7456 62.1809 47.5439 62.3584 47.3073C62.5358 47.0733 62.7779 46.8367 63.0844 46.6027C63.3883 46.3688 63.7433 46.1725 64.1439 46.0219C64.5446 45.8686 64.9668 45.7933 65.4132 45.7933V45.7879ZM65.1282 47.8855C64.5688 47.8855 64.0794 48.0253 63.6599 48.305C63.2404 48.5846 62.9123 48.9638 62.6784 49.4398C62.4417 49.9158 62.3261 50.459 62.3261 51.0694C62.3261 51.6798 62.4444 52.2123 62.6784 52.7017C62.9123 53.1911 63.2404 53.5757 63.6599 53.8553C64.0794 54.135 64.5688 54.2748 65.1282 54.2748C65.6875 54.2748 66.1742 54.135 66.5884 53.8553C67.0025 53.5757 67.3252 53.1911 67.5618 52.7017C67.7958 52.2123 67.9141 51.6691 67.9141 51.0694C67.9141 50.4697 67.7958 49.9158 67.5618 49.4398C67.3252 48.9638 67.0025 48.5846 66.5884 48.305C66.1742 48.0253 65.6875 47.8855 65.1282 47.8855Z" fill="#00426E"/>
</g>
<defs>
<clipPath id="clip0_1_18">
<rect width="76.3392" height="60" fill="white"/>
</clipPath>
</defs>
</svg>
