<svg width="48" height="48" viewBox="0 0 48 48" fill="none" xmlns="http://www.w3.org/2000/svg">
<g clip-path="url(#clip0_15_3465)">
<path d="M46.229 35.1576H10.1711C9.19293 35.1576 8.40009 34.3647 8.40009 33.3866V16.3843C8.40009 15.4061 9.19302 14.6133 10.1711 14.6133H46.2289C47.2071 14.6133 48 15.4062 48 16.3843V33.3866C48.0001 34.3647 47.2071 35.1576 46.229 35.1576Z" fill="#738611"/>
<path d="M8.41565 32.958L8.40009 32.9725V33.3865C8.40009 34.3647 9.19302 35.1576 10.1711 35.1576H10.6152L8.41565 32.958Z" fill="#9EB644"/>
<path d="M44.0703 32.9989H8.01243C7.03424 32.9989 6.24139 32.206 6.24139 31.2279V14.2256C6.24139 13.2474 7.03433 12.4546 8.01243 12.4546H44.0703C45.0484 12.4546 45.8413 13.2475 45.8413 14.2256V31.2279C45.8413 32.206 45.0483 32.9989 44.0703 32.9989Z" fill="url(#paint0_linear_15_3465)"/>
<path d="M6.2569 30.7993L6.24133 30.8138V31.2278C6.24133 32.206 7.03427 32.9989 8.01237 32.9989H8.45646L6.2569 30.7993Z" fill="#9EB644"/>
<path d="M41.8537 30.8817H5.79575C4.81756 30.8817 4.02472 30.0888 4.02472 29.1107V12.1084C4.02472 11.1302 4.81766 10.3374 5.79575 10.3374H41.8536C42.8318 10.3374 43.6246 11.1303 43.6246 12.1084V29.1107C43.6247 30.0888 42.8319 30.8817 41.8537 30.8817Z" fill="url(#paint1_linear_15_3465)"/>
<path d="M40.3059 29.5781H7.34343C6.4019 29.5781 5.63586 28.8121 5.63586 27.8706V13.3482C5.63586 12.4067 6.4019 11.6406 7.34343 11.6406H40.3059C41.2474 11.6406 42.0135 12.4067 42.0135 13.3482V27.8706C42.0136 28.8121 41.2475 29.5781 40.3059 29.5781ZM7.34343 13.0524C7.1804 13.0524 7.04765 13.1852 7.04765 13.3482V27.8706C7.04765 28.0336 7.1804 28.1663 7.34343 28.1663H40.3059C40.4689 28.1663 40.6017 28.0336 40.6017 27.8706V13.3483C40.6017 13.1853 40.4689 13.0525 40.3059 13.0525L7.34343 13.0524Z" fill="#9EB644"/>
<path d="M23.825 25.87C26.7302 25.87 29.0854 23.5148 29.0854 20.6095C29.0854 17.7043 26.7302 15.3491 23.825 15.3491C20.9197 15.3491 18.5646 17.7043 18.5646 20.6095C18.5646 23.5148 20.9197 25.87 23.825 25.87Z" fill="#FFE7A5"/>
<path d="M16.0066 14.2134H7.95477V16.0874H16.0066V14.2134Z" fill="#FFE7A5"/>
<path d="M39.6951 25.1309H31.6433V27.0049H39.6951V25.1309Z" fill="#FFE7A5"/>
<path d="M7.7403 35.1577H34.9841L24.8589 25.0325C22.9821 23.1558 20.1612 22.8013 17.926 23.9661L16.2018 22.247C15.1191 21.0846 13.5758 20.3569 11.8618 20.3569C8.75036 20.3569 6.20036 22.7534 5.95248 25.801C4.86235 25.7971 3.77213 26.0932 2.81354 26.6866V30.2311C2.81354 32.9519 5.01929 35.1577 7.7403 35.1577Z" fill="url(#paint2_linear_15_3465)"/>
<path d="M20.6654 35.1575C23.9412 35.1575 26.5967 32.502 26.5967 29.2262C26.5967 25.9505 23.9412 23.2949 20.6654 23.2949C17.3897 23.2949 14.7341 25.9505 14.7341 29.2262C14.7341 32.502 17.3897 35.1575 20.6654 35.1575Z" fill="url(#paint3_linear_15_3465)"/>
<path d="M20.6654 34.8637C23.779 34.8637 26.3031 32.3396 26.3031 29.226C26.3031 26.1124 23.779 23.5884 20.6654 23.5884C17.5518 23.5884 15.0278 26.1124 15.0278 29.226C15.0278 32.3396 17.5518 34.8637 20.6654 34.8637Z" fill="url(#paint4_linear_15_3465)"/>
<path d="M20.6654 33.5957C23.0788 33.5957 25.0353 31.6393 25.0353 29.2258C25.0353 26.8124 23.0788 24.856 20.6654 24.856C18.252 24.856 16.2955 26.8124 16.2955 29.2258C16.2955 31.6393 18.252 33.5957 20.6654 33.5957Z" fill="url(#paint5_linear_15_3465)"/>
<path d="M17.9773 28.7447L18.3077 28.4177C18.4099 28.3165 18.5466 28.2548 18.7177 28.2324C18.8887 28.21 19.0679 28.2137 19.2547 28.2436L19.817 28.3353C20.0044 28.3659 20.1835 28.3721 20.3543 28.354C20.5249 28.3358 20.6581 28.2796 20.7534 28.1852C20.8488 28.0909 20.9012 27.9771 20.9109 27.8438C20.9205 27.7105 20.8657 27.5836 20.7465 27.463C20.6452 27.3607 20.5348 27.3055 20.4153 27.2978C20.2958 27.2899 20.1809 27.3408 20.0703 27.4501C20.0341 27.4859 19.9849 27.4995 19.9231 27.4911C19.861 27.4826 19.8019 27.4499 19.7458 27.3931C19.6378 27.2839 19.6508 27.163 19.7851 27.0303C19.9624 26.8548 20.1754 26.7801 20.4243 26.8064C20.6729 26.8326 20.8918 26.9412 21.0808 27.1323C21.2809 27.3346 21.3881 27.5696 21.402 27.8372C21.4158 28.1047 21.3224 28.3379 21.1214 28.5367C20.9851 28.6715 20.8197 28.7596 20.6252 28.8014C20.4305 28.8431 20.2384 28.8509 20.0487 28.8249C19.8589 28.7988 19.6737 28.7683 19.4931 28.7333C19.3124 28.6982 19.147 28.6796 18.9967 28.6776C18.8463 28.6755 18.736 28.7093 18.6657 28.7789L18.5363 28.9069L19.5286 29.9098C19.5601 29.9416 19.5723 29.9847 19.5652 30.0389C19.5582 30.0932 19.533 30.1417 19.4898 30.1844C19.4466 30.2272 19.3967 30.253 19.3403 30.2619C19.2839 30.2708 19.24 30.2594 19.2088 30.2278L18.0154 29.0217C17.9796 28.9856 17.9558 28.9388 17.9439 28.8813C17.9321 28.824 17.9432 28.7785 17.9773 28.7447Z" fill="#DB9E36"/>
<path d="M20.0749 29.9364C20.1863 29.8262 20.3005 29.8302 20.4175 29.9485C20.539 30.0713 20.5521 30.18 20.4565 30.2745C20.361 30.369 20.3236 30.4813 20.3444 30.6115C20.3652 30.7417 20.4319 30.8636 20.5443 30.9773C20.8143 31.2503 21.0926 31.2449 21.3791 30.9614L21.444 30.8973C21.5873 30.7555 21.6598 30.6139 21.6617 30.4725C21.6636 30.3311 21.6004 30.1956 21.4721 30.066L20.9828 29.5713C20.8815 29.469 20.8774 29.3719 20.9702 29.2799C20.9928 29.2576 21.026 29.2367 21.0698 29.2175L22.0648 28.3657C22.1512 28.2937 22.2179 28.2816 22.2652 28.3294L23.2676 29.3425C23.3035 29.3788 23.3153 29.4225 23.3025 29.4733C23.2897 29.5241 23.2618 29.571 23.2186 29.6138C23.1754 29.6566 23.1282 29.684 23.0773 29.6961C23.0263 29.7083 22.9828 29.6961 22.9469 29.6598L22.1673 28.8716L21.4583 29.4787L21.7587 29.7823C21.9905 30.0166 22.1175 30.2599 22.14 30.5122C22.1624 30.7644 22.0496 31.0133 21.8018 31.2586L21.7369 31.3227C21.4798 31.5771 21.2213 31.6944 20.9614 31.6749C20.7013 31.6554 20.4577 31.5309 20.2304 31.3012C19.9963 31.0646 19.8698 30.8197 19.8508 30.5662C19.832 30.3129 19.9066 30.103 20.0749 29.9364Z" fill="#DB9E36"/>
<path d="M25.6534 32.4344L17.457 24.2378C17.1079 24.4627 16.7768 24.7268 16.4713 25.0323C14.1551 27.3486 14.1551 31.1038 16.4713 33.4201C18.7876 35.7363 22.5427 35.7363 24.8589 33.4201C25.1645 33.1145 25.4285 32.7833 25.6534 32.4344Z" fill="url(#paint6_linear_15_3465)"/>
<path d="M11.8617 32.219C15.1374 32.219 17.7929 29.5635 17.7929 26.2877C17.7929 23.012 15.1374 20.3564 11.8617 20.3564C8.58589 20.3564 5.93036 23.012 5.93036 26.2877C5.93036 29.5635 8.58589 32.219 11.8617 32.219Z" fill="url(#paint7_linear_15_3465)"/>
<path d="M11.8617 31.9252C14.9753 31.9252 17.4993 29.4012 17.4993 26.2876C17.4993 23.174 14.9753 20.6499 11.8617 20.6499C8.74807 20.6499 6.224 23.174 6.224 26.2876C6.224 29.4012 8.74807 31.9252 11.8617 31.9252Z" fill="url(#paint8_linear_15_3465)"/>
<path d="M11.8616 30.6577C14.2751 30.6577 16.2315 28.7013 16.2315 26.2879C16.2315 23.8744 14.2751 21.918 11.8616 21.918C9.44822 21.918 7.49176 23.8744 7.49176 26.2879C7.49176 28.7013 9.44822 30.6577 11.8616 30.6577Z" fill="url(#paint9_linear_15_3465)"/>
<path d="M9.49897 27.196C9.49982 27.0393 9.58344 26.9613 9.74976 26.9622C9.92254 26.9632 10.0086 27.0308 10.0078 27.1651C10.0071 27.2995 10.0601 27.4053 10.1669 27.4826C10.2736 27.56 10.407 27.5992 10.5671 27.5999C10.951 27.602 11.144 27.4014 11.1462 26.9983L11.1466 26.9071C11.1477 26.7056 11.0988 26.5541 11.0003 26.4529C10.9017 26.3515 10.7611 26.3004 10.5788 26.2995L9.88297 26.2958C9.73907 26.2951 9.66744 26.2294 9.6681 26.0987C9.66829 26.0669 9.67701 26.0287 9.69444 25.984L9.79569 24.6781C9.80582 24.5662 9.84454 24.5104 9.91176 24.5107L11.3369 24.5183C11.388 24.5186 11.4272 24.5412 11.4541 24.5861C11.481 24.6311 11.4944 24.684 11.4941 24.7447C11.4938 24.8056 11.4798 24.8583 11.4524 24.9029C11.425 24.9476 11.3856 24.9697 11.3345 24.9695L10.2259 24.9636L10.1538 25.8942L10.5809 25.8965C10.9105 25.8982 11.1724 25.9805 11.3667 26.143C11.5609 26.3056 11.6572 26.5613 11.6553 26.91L11.6549 27.0012C11.6529 27.3628 11.5531 27.6286 11.3555 27.7987C11.1579 27.9688 10.8974 28.053 10.5743 28.0512C10.2415 28.0494 9.97879 27.9657 9.78622 27.8C9.59347 27.634 9.49776 27.4328 9.49897 27.196Z" fill="#DB9E36"/>
<path d="M12.0628 26.9887L12.0702 25.5923C12.0721 25.2244 12.1711 24.9545 12.3672 24.7829C12.5632 24.6111 12.8244 24.5261 13.1508 24.5279C13.4772 24.5296 13.7382 24.6174 13.9341 24.7912C14.13 24.965 14.2269 25.236 14.2249 25.6038L14.2175 27.0002C14.2156 27.3681 14.1157 27.638 13.9181 27.8097C13.7205 27.9813 13.4584 28.0664 13.1321 28.0647C12.8057 28.0629 12.5455 27.9751 12.3512 27.8013C12.1569 27.6275 12.0608 27.3567 12.0628 26.9887ZM12.5714 26.9914C12.5692 27.4041 12.7568 27.6115 13.1343 27.6136C13.3167 27.6145 13.4577 27.5641 13.5575 27.4622C13.6572 27.3604 13.7076 27.2056 13.7087 26.9976L13.7162 25.6012C13.7173 25.3933 13.6684 25.2379 13.5699 25.135C13.4713 25.0321 13.3307 24.9802 13.1484 24.9791C12.7709 24.977 12.581 25.1823 12.5788 25.5951L12.5714 26.9914Z" fill="#DB9E36"/>
<path d="M10.2661 27.6857C9.18807 26.5311 7.65526 25.807 5.95247 25.8008C5.93935 25.9616 5.93091 26.1235 5.93091 26.2876C5.93091 29.5632 8.58629 32.2185 11.8618 32.2185C12.7243 32.2185 13.543 32.0329 14.2824 31.7018L10.2661 27.6857Z" fill="url(#paint10_linear_15_3465)"/>
<path d="M5.93129 37.6629C9.20706 37.6629 11.8626 35.0073 11.8626 31.7316C11.8626 28.4558 9.20706 25.8003 5.93129 25.8003C2.65553 25.8003 0 28.4558 0 31.7316C0 35.0073 2.65553 37.6629 5.93129 37.6629Z" fill="url(#paint11_linear_15_3465)"/>
<path d="M5.93131 37.3691C9.0449 37.3691 11.569 34.845 11.569 31.7314C11.569 28.6178 9.0449 26.0938 5.93131 26.0938C2.81771 26.0938 0.29364 28.6178 0.29364 31.7314C0.29364 34.845 2.81771 37.3691 5.93131 37.3691Z" fill="url(#paint12_linear_15_3465)"/>
<path d="M5.93128 36.1016C8.34471 36.1016 10.3012 34.1451 10.3012 31.7317C10.3012 29.3183 8.34471 27.3618 5.93128 27.3618C3.51786 27.3618 1.5614 29.3183 1.5614 31.7317C1.5614 34.1451 3.51786 36.1016 5.93128 36.1016Z" fill="url(#paint13_linear_15_3465)"/>
<path d="M5.38368 34.4841L5.05668 34.1537C4.95553 34.0515 4.89374 33.9148 4.87134 33.7437C4.84893 33.5727 4.85268 33.3936 4.88259 33.2067L4.97418 32.6444C5.00474 32.457 5.01103 32.2779 4.99284 32.1071C4.97465 31.9365 4.91849 31.8034 4.82409 31.708C4.72978 31.6127 4.61596 31.5603 4.48265 31.5505C4.34934 31.541 4.22249 31.5957 4.10193 31.715C3.99955 31.8162 3.94443 31.9266 3.93665 32.0461C3.92877 32.1656 3.97968 32.2805 4.08899 32.3912C4.12471 32.4273 4.1384 32.4765 4.13006 32.5384C4.12162 32.6004 4.0889 32.6595 4.03209 32.7156C3.92287 32.8236 3.80193 32.8106 3.66927 32.6764C3.49377 32.499 3.41905 32.286 3.4454 32.0372C3.47155 31.7885 3.58021 31.5696 3.77127 31.3806C3.97359 31.1804 4.20862 31.0733 4.47618 31.0595C4.74365 31.0456 4.9769 31.139 5.17565 31.34C5.31046 31.4764 5.39859 31.6417 5.4404 31.8363C5.48212 32.0309 5.4899 32.223 5.46384 32.4127C5.43778 32.6025 5.40731 32.7877 5.37225 32.9683C5.33718 33.1491 5.31862 33.3144 5.31656 33.4647C5.31449 33.6151 5.34825 33.7254 5.4179 33.7957L5.54587 33.9251L6.54881 32.9329C6.58059 32.9014 6.62372 32.8892 6.6779 32.8962C6.73219 32.9032 6.78065 32.9285 6.8234 32.9716C6.86615 33.0148 6.89203 33.0647 6.90084 33.1211C6.90975 33.1775 6.8984 33.2214 6.86681 33.2526L5.66081 34.4458C5.62462 34.4816 5.57784 34.5055 5.52037 34.5173C5.463 34.5293 5.41743 34.5183 5.38368 34.4841Z" fill="#DB9E36"/>
<path d="M6.54654 32.1049L5.56432 31.1123C5.30557 30.8507 5.18473 30.5899 5.20207 30.3298C5.21923 30.0698 5.34392 29.825 5.57585 29.5955C5.80789 29.3659 6.05454 29.2433 6.31592 29.2279C6.57729 29.2123 6.83736 29.3353 7.09611 29.5968L8.07833 30.5894C8.33708 30.851 8.45727 31.1123 8.43889 31.3735C8.42052 31.6347 8.29536 31.8801 8.06333 32.1096C7.8313 32.3392 7.5852 32.4611 7.32505 32.4755C7.0647 32.4899 6.80539 32.3664 6.54654 32.1049ZM6.90814 31.7471C7.19839 32.0405 7.47776 32.0544 7.74608 31.7889C7.87564 31.6607 7.93977 31.5253 7.93827 31.3827C7.93677 31.2402 7.86289 31.0951 7.71664 30.9473L6.73451 29.9546C6.58826 29.8068 6.44389 29.7315 6.30139 29.7284C6.15889 29.7254 6.02276 29.7879 5.8932 29.9163C5.62489 30.1818 5.63576 30.4613 5.92601 30.7546L6.90814 31.7471Z" fill="#DB9E36"/>
</g>
<defs>
<linearGradient id="paint0_linear_15_3465" x1="31.9758" y1="46.1128" x2="25.3595" y2="20.0427" gradientUnits="userSpaceOnUse">
<stop stop-color="#9EB644"/>
<stop offset="1" stop-color="#738611"/>
</linearGradient>
<linearGradient id="paint1_linear_15_3465" x1="18.7921" y1="15.5781" x2="45.4495" y2="42.2354" gradientUnits="userSpaceOnUse">
<stop stop-color="#9EB644"/>
<stop offset="1" stop-color="#738611"/>
</linearGradient>
<linearGradient id="paint2_linear_15_3465" x1="22.6462" y1="42.9203" x2="16.411" y2="26.6703" gradientUnits="userSpaceOnUse">
<stop stop-color="#738611" stop-opacity="0"/>
<stop offset="1" stop-color="#738611"/>
</linearGradient>
<linearGradient id="paint3_linear_15_3465" x1="18.8551" y1="31.0365" x2="27.3679" y2="22.5237" gradientUnits="userSpaceOnUse">
<stop stop-color="#FFE7A5"/>
<stop offset="0.966" stop-color="#FFBF5C"/>
</linearGradient>
<linearGradient id="paint4_linear_15_3465" x1="22.3846" y1="27.5071" x2="14.2925" y2="35.5982" gradientUnits="userSpaceOnUse">
<stop stop-color="#FFE7A5"/>
<stop offset="0.966" stop-color="#FFBF5C"/>
</linearGradient>
<linearGradient id="paint5_linear_15_3465" x1="19.3313" y1="30.5598" x2="25.6041" y2="24.2879" gradientUnits="userSpaceOnUse">
<stop stop-color="#FFE7A5"/>
<stop offset="0.966" stop-color="#FFBF5C"/>
</linearGradient>
<linearGradient id="paint6_linear_15_3465" x1="19.5478" y1="31.3507" x2="11.323" y2="23.3264" gradientUnits="userSpaceOnUse">
<stop stop-color="#FF5D00" stop-opacity="0"/>
<stop offset="1" stop-color="#D54003"/>
</linearGradient>
<linearGradient id="paint7_linear_15_3465" x1="17.9901" y1="30.2012" x2="-0.86504" y2="18.1628" gradientUnits="userSpaceOnUse">
<stop stop-color="#FFE7A5"/>
<stop offset="0.966" stop-color="#FFBF5C"/>
</linearGradient>
<linearGradient id="paint8_linear_15_3465" x1="18.0512" y1="22.5314" x2="-0.80397" y2="33.9749" gradientUnits="userSpaceOnUse">
<stop stop-color="#FFE7A5"/>
<stop offset="0.966" stop-color="#FFBF5C"/>
</linearGradient>
<linearGradient id="paint9_linear_15_3465" x1="18.3139" y1="29.3239" x2="-0.541232" y2="20.4535" gradientUnits="userSpaceOnUse">
<stop stop-color="#FFE7A5"/>
<stop offset="0.966" stop-color="#FFBF5C"/>
</linearGradient>
<linearGradient id="paint10_linear_15_3465" x1="12.7011" y1="32.8158" x2="4.71914" y2="24.8338" gradientUnits="userSpaceOnUse">
<stop stop-color="#FF5D00" stop-opacity="0"/>
<stop offset="1" stop-color="#D54003"/>
</linearGradient>
<linearGradient id="paint11_linear_15_3465" x1="7.74004" y1="33.5409" x2="-0.772262" y2="25.0281" gradientUnits="userSpaceOnUse">
<stop stop-color="#FFE7A5"/>
<stop offset="0.966" stop-color="#FFBF5C"/>
</linearGradient>
<linearGradient id="paint12_linear_15_3465" x1="4.21131" y1="30.012" x2="12.3031" y2="38.1031" gradientUnits="userSpaceOnUse">
<stop stop-color="#FFE7A5"/>
<stop offset="0.966" stop-color="#FFBF5C"/>
</linearGradient>
<linearGradient id="paint13_linear_15_3465" x1="7.2644" y1="33.0651" x2="0.991771" y2="26.7932" gradientUnits="userSpaceOnUse">
<stop stop-color="#FFE7A5"/>
<stop offset="0.966" stop-color="#FFBF5C"/>
</linearGradient>
<clipPath id="clip0_15_3465">
<rect width="48" height="48" fill="white"/>
</clipPath>
</defs>
</svg>
