<svg width="128" height="128" viewBox="0 0 128 128" fill="none" xmlns="http://www.w3.org/2000/svg">
<g clip-path="url(#clip0_15_2799)">
<path d="M39.2125 46.584V54.5768C39.2125 60.0538 41.3237 65.3188 45.0562 69.2763C41.358 71.4425 38.333 74.5453 36.2487 78.333C35.7497 79.2403 36.0805 80.3803 36.9877 80.8798C37.2742 81.0375 37.5842 81.1123 37.8897 81.1123C38.5512 81.1123 39.1927 80.7615 39.5342 80.1407C40.3217 78.7095 41.2707 77.3963 42.3567 76.2158C41.89 77.7238 41.5892 79.3055 41.4822 80.9425L40.6572 93.5782C40.578 94.7927 40.7012 96.003 41.005 97.1633C39.5272 97.6473 38.1945 98.4288 37.0697 99.4325V89.7635C37.0697 88.9457 37.1205 88.117 37.2207 87.3005C37.3467 86.2727 36.6157 85.337 35.588 85.2113C34.5597 85.0863 33.6245 85.8165 33.4987 86.844C33.38 87.8113 33.32 88.7935 33.32 89.7635V126.125C33.32 127.161 34.1592 128 35.195 128C36.2307 128 37.07 127.161 37.07 126.125V116.097C39.0412 117.85 41.635 118.919 44.4747 118.919C45.0635 118.919 45.6415 118.872 46.2057 118.784V126.125C46.2057 127.161 47.045 128 48.0807 128C49.1165 128 49.9557 127.161 49.9557 126.125V117.474C52.5905 115.981 54.5602 113.448 55.3037 110.436C58.6502 113.278 63.3085 114.716 69.213 114.716C75.1177 114.716 79.776 113.278 83.1225 110.436C83.866 113.448 85.8357 115.98 88.4702 117.474V126.125C88.4702 127.161 89.3095 128 90.3452 128C91.381 128 92.2202 127.161 92.2202 126.125V118.784C92.7845 118.872 93.3625 118.919 93.9512 118.919C96.7907 118.919 99.3845 117.851 101.356 116.097V126.125C101.356 127.161 102.195 128 103.231 128C104.266 128 105.106 127.161 105.106 126.125V89.7635C105.106 81.26 100.642 73.536 93.3692 69.277C97.1022 65.3193 99.2137 60.054 99.2137 54.5768L99.1825 46.2505C99.6127 45.2337 99.8507 44.1167 99.8507 42.945C99.8507 41.8037 99.6232 40.715 99.2137 39.7197V30.0007C99.2137 23.2052 96.8765 16.5473 92.633 11.2528C91.9847 10.4448 90.805 10.3147 89.9972 10.9622C89.1892 11.61 89.0592 12.7902 89.7067 13.598C93.473 18.297 95.4637 23.9687 95.4637 30.0007V35.506C94.2757 34.8453 92.914 34.4617 91.4657 34.4405L91.4662 25.6845C91.4662 24.6487 90.627 23.8095 89.5912 23.8095C88.5555 23.8095 87.7162 24.6487 87.7162 25.6845V30.4125H79.8632C79.6547 30.4125 79.4607 30.3095 79.344 30.1373L76.114 25.3598C75.7672 24.8468 75.1897 24.538 74.5705 24.5347C74.5672 24.5347 74.564 24.5347 74.5607 24.5347C73.9452 24.5347 73.3687 24.8368 73.0185 25.3433L69.6995 30.1435C69.5835 30.3117 69.3922 30.4123 69.1885 30.4123H56.6302L59.564 24.5303C60.9232 21.806 61.1397 18.715 60.174 15.8278C59.2085 12.9403 57.1762 10.6018 54.4517 9.2425C54.18 9.107 53.9045 8.98675 53.6277 8.875C58.1217 5.55275 63.5547 3.75 69.2132 3.75C74.5465 3.75 79.6807 5.341 84.0612 8.35125C84.9147 8.938 86.0817 8.721 86.6685 7.868C87.2552 7.0145 87.0385 5.84725 86.1852 5.26075C81.177 1.819 75.3082 0 69.2132 0C61.5892 0 54.3222 2.86275 48.7507 8.06125C44.8447 8.28075 41.1492 10.507 39.2362 14.2137C36.547 12.918 33.5137 12.7247 30.6762 13.6737C27.7887 14.6392 25.4502 16.6715 24.091 19.396C21.286 25.0202 23.5795 31.8782 29.2035 34.6835L39.1175 39.6287C38.6755 40.671 38.4407 41.7935 38.4407 42.945C38.441 44.2097 38.7155 45.504 39.2125 46.584V46.584ZM101.356 89.7635V99.432C100.231 98.4285 98.8987 97.647 97.4212 97.1633C97.7247 96.0033 97.8482 94.7933 97.7692 93.579L96.9452 80.944C96.838 79.3008 96.5357 77.713 96.066 76.1998C99.4205 79.827 101.356 84.6262 101.356 89.7635V89.7635ZM90.2647 67.0912C89.001 65.9372 87.5952 64.9398 86.0775 64.1263C89.091 60.563 90.9532 56.1078 91.3732 51.4543C92.8562 51.4488 94.2505 51.0613 95.4637 50.386V54.5765C95.464 59.276 93.5792 63.7865 90.2647 67.0912ZM96.1007 42.945C96.1007 45.5275 94.0325 47.6315 91.4657 47.6987V38.1937C94.0325 38.261 96.1007 40.364 96.1007 42.945V42.945ZM27.4467 21.0697C28.3587 19.2415 29.928 17.878 31.8655 17.2302C32.6622 16.9637 33.482 16.8315 34.2982 16.8315C35.4667 16.8315 36.6282 17.1025 37.7047 17.6392L39.2397 18.405C40.1665 18.8678 41.292 18.4908 41.7545 17.5643L42.5202 16.0292H42.5205C44.403 12.2552 49.005 10.7175 52.7782 12.5985C56.5522 14.481 58.091 19.0828 56.2085 22.8565L48.016 39.2812C47.9347 39.4443 47.804 39.5165 47.7087 39.5482C47.613 39.5802 47.4645 39.6012 47.302 39.5197L30.8777 31.3275C27.1035 29.4452 25.5647 24.8435 27.4467 21.0697V21.0697ZM45.628 42.876C46.0117 43.0672 46.415 43.1977 46.826 43.2677L46.824 47.6987C44.2585 47.632 42.1907 45.5277 42.1907 42.945C42.1907 42.3797 42.2917 41.8275 42.4825 41.307L45.628 42.876ZM42.9625 50.4603C44.1365 51.0858 45.4727 51.4442 46.891 51.4535C47.2552 56.195 49.0935 60.618 52.1877 64.2148C50.732 65.012 49.3807 65.9787 48.1622 67.0915C44.8475 63.7867 42.9625 59.2762 42.9625 54.5765V50.4603ZM51.5132 105.594C51.6735 106.206 51.8797 107.125 51.8797 107.764C51.8797 111.847 48.558 115.169 44.475 115.169C40.3922 115.169 37.0705 111.847 37.0705 107.764C37.0705 104.408 39.3532 101.468 42.557 100.612C42.8927 101.113 43.2687 101.589 43.685 102.034C45.7172 104.203 48.551 105.485 51.5132 105.594V105.594ZM69.2132 110.966C62.77 110.966 58.2032 109.037 55.6397 105.234C49.0765 95.4957 56.6517 76.4545 56.7475 76.2172C57.137 75.2575 56.675 74.164 55.7155 73.7745C54.7552 73.385 53.6622 73.8475 53.2727 74.8065C52.9777 75.5333 47.1207 90.2172 50.0385 101.619C48.6662 101.269 47.4205 100.536 46.4215 99.4695C44.9802 97.9312 44.262 95.9255 44.3995 93.822L45.2245 81.1862C45.8007 72.3572 53.1827 65.4413 62.0307 65.4413H64.6137C65.6495 65.4413 66.4887 64.602 66.4887 63.5662C66.4887 62.5305 65.6495 61.6912 64.6137 61.6912H62.0307C59.88 61.6912 57.8022 62.0302 55.8447 62.6507C52.4432 59.1655 50.5732 54.5918 50.5732 49.698L50.5765 42.0602C50.8942 41.74 51.1645 41.3703 51.3717 40.9548L54.7597 34.1623H69.1885C70.6262 34.1623 71.9715 33.4552 72.7857 32.2735L74.5435 29.7315L76.2377 32.2375C77.053 33.4425 78.4082 34.162 79.8632 34.162H87.7157V49.4417C87.7157 54.329 85.785 59.0845 82.4057 62.593C80.5 62.0082 78.4822 61.6908 76.3962 61.6908H72.861C71.8252 61.6908 70.986 62.53 70.986 63.5658C70.986 64.6015 71.8252 65.4408 72.861 65.4408H76.3962C85.2447 65.4408 92.627 72.3575 93.2027 81.1872L94.0267 93.8223C94.164 95.9255 93.4457 97.931 92.0045 99.4693C91.0057 100.535 89.76 101.269 88.3877 101.619C91.3055 90.2165 85.4482 75.5325 85.1532 74.8057C84.7637 73.8467 83.6712 73.3848 82.7115 73.7738C81.7522 74.1628 81.2895 75.256 81.6782 76.2155C81.7557 76.4072 89.3575 95.483 82.7862 105.233C80.2235 109.037 75.6565 110.966 69.2132 110.966V110.966ZM86.9132 105.594C89.8752 105.485 92.7087 104.203 94.7412 102.034C95.1577 101.589 95.5335 101.113 95.8695 100.612C99.0732 101.468 101.356 104.408 101.356 107.764C101.356 111.847 98.0342 115.169 93.9515 115.169C89.8687 115.169 86.547 111.847 86.547 107.764C86.547 107.199 86.7877 106.139 86.9132 105.594Z" fill="white"/>
<path d="M61.739 43.7355V42.572C61.739 41.5363 60.8997 40.697 59.864 40.697C58.8282 40.697 57.989 41.5363 57.989 42.572V43.7355C57.989 44.7713 58.8282 45.6105 59.864 45.6105C60.8997 45.6105 61.739 44.7713 61.739 43.7355Z" fill="white"/>
<path d="M78.4252 45.6105C79.461 45.6105 80.3002 44.7713 80.3002 43.7355V42.572C80.3002 41.5363 79.461 40.697 78.4252 40.697C77.3895 40.697 76.5502 41.5363 76.5502 42.572V43.7355C76.5502 44.7713 77.3897 45.6105 78.4252 45.6105Z" fill="white"/>
<path d="M76.8047 54.87C77.508 54.1097 77.4612 52.9235 76.7007 52.2205C75.9405 51.5172 74.754 51.5637 74.0512 52.3245C72.7705 53.7097 71.028 54.4727 69.1447 54.4727C67.2617 54.4727 65.519 53.7097 64.238 52.3242C63.5347 51.564 62.3485 51.5172 61.5882 52.2205C60.828 52.9237 60.7815 54.11 61.4845 54.8702C63.4545 57.0007 66.2465 58.2227 69.1447 58.2227C72.043 58.2227 74.835 57.001 76.8047 54.87V54.87Z" fill="white"/>
<path d="M69.2132 93.2677C63.27 93.2677 62.808 97.2134 62.808 98.4229C62.808 101.963 65.6057 106.078 69.2132 106.078C72.8207 106.078 75.6185 101.963 75.6185 98.4229C75.6185 97.2134 75.1565 93.2677 69.2132 93.2677ZM69.2132 102.328C68.022 102.328 66.558 100.175 66.558 98.4232C66.558 97.8974 66.558 97.0179 69.2132 97.0179C71.8685 97.0179 71.8685 97.8977 71.8685 98.4232C71.8685 100.175 70.4042 102.328 69.2132 102.328Z" fill="white"/>
<path d="M59.9327 85.4855C58.897 85.4855 58.0577 86.3247 58.0577 87.3605V88.524C58.0577 89.5597 58.897 90.399 59.9327 90.399C60.9685 90.399 61.8077 89.5597 61.8077 88.524V87.3605C61.8077 86.325 60.9682 85.4855 59.9327 85.4855Z" fill="white"/>
<path d="M78.494 85.4855C77.4582 85.4855 76.619 86.3247 76.619 87.3605V88.524C76.619 89.5597 77.4582 90.399 78.494 90.399C79.5297 90.399 80.369 89.5597 80.369 88.524V87.3605C80.369 86.325 79.5295 85.4855 78.494 85.4855Z" fill="white"/>
</g>
<defs>
<clipPath id="clip0_15_2799">
<rect width="128" height="128" fill="white"/>
</clipPath>
</defs>
</svg>
