<svg width="30" height="30" viewBox="0 0 30 30" fill="none" xmlns="http://www.w3.org/2000/svg">
<g opacity="0.8" clip-path="url(#clip0_203_102)">
<path d="M8.74756 0C3.92381 0 0 3.92744 0 8.75244V21.2524C0 26.0762 3.92744 30 8.75244 30H21.2524C26.0762 30 30 26.0726 30 21.2476V8.74756C30 3.92381 26.0726 0 21.2476 0H8.74756ZM23.75 5C24.44 5 25 5.56 25 6.25C25 6.94 24.44 7.5 23.75 7.5C23.06 7.5 22.5 6.94 22.5 6.25C22.5 5.56 23.06 5 23.75 5ZM15 7.5C19.1362 7.5 22.5 10.8638 22.5 15C22.5 19.1362 19.1362 22.5 15 22.5C10.8638 22.5 7.5 19.1362 7.5 15C7.5 10.8638 10.8638 7.5 15 7.5ZM15 10C12.2386 10 10 12.2386 10 15C10 17.7614 12.2386 20 15 20C17.7614 20 20 17.7614 20 15C20 12.2386 17.7614 10 15 10Z" fill="#EAE41F"/>
</g>
<defs>
<clipPath id="clip0_203_102">
<rect width="30" height="30" fill="white"/>
</clipPath>
</defs>
</svg>
