<?xml version="1.0" encoding="UTF-8"?>
<svg width="22px" height="39px" viewBox="0 0 22 39" version="1.1" xmlns="http://www.w3.org/2000/svg" xmlns:xlink="http://www.w3.org/1999/xlink">
    <title>arrow_forward_ios_FILL0_wght400_GRAD0_opsz48</title>
    <g id="landing" stroke="none" stroke-width="1" fill="none" fill-rule="evenodd">
        <g transform="translate(-1280.000000, -8024.000000)" fill="#FFFFFF" fill-rule="nonzero" id="arrow_forward_ios_FILL0_wght400_GRAD0_opsz48">
            <g transform="translate(1280.000000, 8024.000000)">
                <path d="M0.576,37.726 C0.209333333,37.326 0.0176666667,36.8593333 0.001,36.326 C-0.0156666667,35.7926667 0.176,35.326 0.576,34.926 L16.326,19.176 L0.576,3.426 C0.209333333,3.05933333 0.0176666667,2.601 0.001,2.051 C-0.0156666667,1.501 0.176,1.026 0.576,0.626 C0.942666667,0.226 1.401,0.0176666667 1.951,0.001 C2.501,-0.0156666667 2.976,0.176 3.376,0.576 L20.926,18.126 C21.0926667,18.2926667 21.2093333,18.4593333 21.276,18.626 C21.3426667,18.7926667 21.376,18.976 21.376,19.176 C21.376,19.376 21.3426667,19.5593333 21.276,19.726 C21.2093333,19.8926667 21.0926667,20.0593333 20.926,20.226 L3.376,37.776 C3.00933333,38.1426667 2.551,38.326 2.001,38.326 C1.451,38.326 0.976,38.126 0.576,37.726 Z" id="Path"></path>
            </g>
        </g>
    </g>
</svg>