<svg width="92" height="92" fill="none" xmlns="http://www.w3.org/2000/svg"><circle cx="46" cy="46" r="45" stroke="#EBC317" stroke-width="2"/><g clip-path="url(#a)" fill="#EBC317"><path d="M63.142 22.256c-1.677 0-3.155.871-4.005 2.184a4.996 4.996 0 0 0-4.274-2.415 5.011 5.011 0 0 0-4.638 3.145 4.713 4.713 0 0 0-3.984 4.65c0 1.474.704 2.881 1.885 3.766l.374.281h12.801l.394-.332a4.18 4.18 0 0 0 1.227-1.755 4.77 4.77 0 0 0 4.984-4.76 4.77 4.77 0 0 0-4.764-4.764zm-2.864 8.57a1.33 1.33 0 0 1-.114.232H49.51a1.898 1.898 0 0 1 1.645-3.122l1.363.147.181-1.359a2.188 2.188 0 0 1 2.164-1.89 2.185 2.185 0 0 1 2.152 2.553l-.348 2.049 2.031-.44a1.342 1.342 0 0 1 .293-.032 1.378 1.378 0 0 1 1.287 1.861zm2.864-1.85c-.067 0-.131-.004-.196-.01a4.206 4.206 0 0 0-1.745-2.179 1.956 1.956 0 0 1 1.94-1.721c1.079 0 1.955.876 1.955 1.954a1.957 1.957 0 0 1-1.954 1.956zM29.401 39.477h-2.81v2.81h2.81v-2.81zM33.569 39.477h-2.81v2.81h2.81v-2.81zM29.401 43.756h-2.81v2.81h2.81v-2.81zM33.569 43.756h-2.81v2.81h2.81v-2.81zM29.401 48.034h-2.81v2.81h2.81v-2.81zM33.569 48.034h-2.81v2.81h2.81v-2.81zM29.401 52.31h-2.81v2.81h2.81v-2.81zM33.569 52.31h-2.81v2.81h2.81v-2.81zM29.401 56.589h-2.81v2.81h2.81v-2.81zM33.569 56.589h-2.81v2.81h2.81v-2.81zM45.366 44.595h-5.525v2.81h5.525v-2.81zM45.366 49.434h-5.525v2.81h5.525v-2.81zM45.366 54.273h-5.525v2.81h5.525v-2.81zM45.366 59.11h-5.525v2.81h5.525v-2.81z"/><path d="M70 58.804v-7.748a5.037 5.037 0 0 0-5.031-5.031H63.33a5.037 5.037 0 0 0-5.03 5.03v7.75a5.037 5.037 0 0 0 4.445 4.996v3.365H49.96V39.81h-11.8v-5.036H22v35.2h47.95v-2.81h-4.395v-3.364A5.038 5.038 0 0 0 70 58.804zm-34.648 8.362H24.81V37.585h10.542v29.58zm11.8 0h-8.99V42.62h8.99v24.546zm15.593-14.709v8.49a2.224 2.224 0 0 1-1.636-2.143v-7.748c0-1.225.996-2.222 2.221-2.222h1.639c1.225 0 2.221.997 2.221 2.222v7.748a2.224 2.224 0 0 1-1.636 2.143v-8.49h-2.81z"/></g><defs><clipPath id="a"><path fill="#fff" transform="translate(22 22)" d="M0 0h48v48H0z"/></clipPath></defs></svg>