<svg width="36" height="36" viewBox="0 0 36 36" fill="none" xmlns="http://www.w3.org/2000/svg">
<g clip-path="url(#clip0_9_73)">
<path d="M1.49065 9.9L9.91408 1.49063L18.3516 9.91406" stroke="#2F3136" stroke-width="2.10937" stroke-miterlimit="10" stroke-linecap="square"/>
<path d="M16.2422 7.80469V16.2422H3.58594V7.80469" stroke="#2F3136" stroke-width="2.10937" stroke-miterlimit="10"/>
<path d="M9.91406 12.0234V16.2422" stroke="#2F3136" stroke-width="2.10937" stroke-miterlimit="10" stroke-linecap="square"/>
<path d="M28.6172 11.7422L30.7266 13.8516L32.8359 11.7422" stroke="#2F3136" stroke-width="2.10937" stroke-miterlimit="10" stroke-linecap="square"/>
<path d="M3.30469 24.3984L5.41406 22.2891L7.52344 24.3984" stroke="#2F3136" stroke-width="2.10937" stroke-miterlimit="10" stroke-linecap="square"/>
<path d="M13.8516 32.8359C9.19167 32.8359 5.41406 29.0583 5.41406 24.3984" stroke="#2F3136" stroke-width="2.10937" stroke-miterlimit="10" stroke-linecap="square"/>
<path d="M22.2891 3.30469H24.3984C27.8934 3.30469 30.7266 6.13786 30.7266 9.63281V11.7422" stroke="#2F3136" stroke-width="2.10937" stroke-miterlimit="10" stroke-linecap="square"/>
<path d="M34.9453 30.7266H18.0703V22.2891H34.9453V30.7266Z" stroke="#2F3136" stroke-width="2.10937" stroke-miterlimit="10"/>
<path d="M34.9453 30.7266V34.9453H18.0703V30.7266" stroke="#2F3136" stroke-width="2.10937" stroke-miterlimit="10"/>
<path d="M28.6172 26.5078C28.6172 27.6727 27.6728 28.6172 26.5078 28.6172C25.3429 28.6172 24.3984 27.6727 24.3984 26.5078C24.3984 25.3429 25.3429 24.3984 26.5078 24.3984C27.6728 24.3984 28.6172 25.3429 28.6172 26.5078Z" stroke="#2F3136" stroke-width="2.10937" stroke-miterlimit="10"/>
</g>
<defs>
<clipPath id="clip0_9_73">
<rect width="36" height="36" fill="white"/>
</clipPath>
</defs>
</svg>
