<svg width="36" height="36" fill="none" xmlns="http://www.w3.org/2000/svg"><g clip-path="url(#a)" stroke="#2F3136" stroke-width="2.109" stroke-miterlimit="10"><path d="m1.49 9.9 8.424-8.41 8.438 8.424" stroke-linecap="square"/><path d="M16.242 7.805v8.437H3.586V7.805"/><path d="M9.914 12.023v4.22M28.617 11.742l2.11 2.11 2.109-2.11M3.305 24.398l2.11-2.109 2.108 2.11" stroke-linecap="square"/><path d="M13.852 32.836a8.438 8.438 0 0 1-8.438-8.438M22.29 3.305h2.108a6.328 6.328 0 0 1 6.329 6.328v2.11" stroke-linecap="square"/><path d="M34.945 30.727H18.07v-8.438h16.875v8.438z"/><path d="M34.945 30.727v4.218H18.07v-4.218M28.617 26.508a2.11 2.11 0 1 1-4.219 0 2.11 2.11 0 0 1 4.22 0z"/></g><defs><clipPath id="a"><path fill="#fff" d="M0 0h36v36H0z"/></clipPath></defs></svg>