<svg width="32" height="35" fill="none" xmlns="http://www.w3.org/2000/svg"><path d="M31.666 31.618H.198a.203.203 0 0 0-.198.207v2.704c0 .114.089.207.198.207h31.468c.11 0 .198-.093.198-.207v-2.705a.203.203 0 0 0-.198-.206zM30.369 29.58H1.492a.203.203 0 0 0-.198.208v1.35c0 .115.088.208.198.208h28.877c.109 0 .197-.093.197-.207v-1.351a.203.203 0 0 0-.197-.207zM29.084 3.112H2.86a.207.207 0 0 0-.202.211v1.12c0 .117.09.211.202.211h26.225a.207.207 0 0 0 .202-.21v-1.12a.207.207 0 0 0-.202-.212zM2.467 2.8c.03.042.076.069.126.069h26.755c.05 0 .097-.027.126-.07L31.06.352C31.156.203 31.053 0 30.881 0H1.059C.886 0 .786.2.881.351L2.465 2.8h.002zM4.246 29.313h6.192a.443.443 0 0 0 .432-.453.443.443 0 0 0-.432-.452H4.246a.443.443 0 0 0-.432.452c0 .25.194.453.432.453zM4.783 27.71c0 .25.194.452.433.452h4.205a.443.443 0 0 0 .433-.452.443.443 0 0 0-.433-.452H5.216a.443.443 0 0 0-.433.452zM10.847 5.332a.443.443 0 0 0-.432-.453H4.223a.443.443 0 0 0-.433.453c0 .25.194.452.433.452h6.192a.443.443 0 0 0 .432-.452zM9.433 6.03H5.228a.443.443 0 0 0-.433.452c0 .25.194.453.433.453h4.205a.443.443 0 0 0 .433-.453.443.443 0 0 0-.433-.452zM9.361 27.028a.248.248 0 0 0 .243-.261L9.09 7.43a.268.268 0 0 0-.262-.266H5.722c-.143 0-.26.12-.262.268l-.403 19.337c-.002.142.107.26.242.26h4.062zM8.374 7.89a.13.13 0 0 1 .128.13l.167 18.111a.13.13 0 0 1-.124.134.13.13 0 0 1-.128-.13L8.25 8.025a.13.13 0 0 1 .124-.134zm-1.176.132c0-.073.057-.132.126-.132.07 0 .127.059.127.132v18.111a.129.129 0 0 1-.127.132.129.129 0 0 1-.126-.131V8.022zm-1.051 0c0-.073.058-.132.128-.13.07 0 .126.061.124.134l-.167 18.112a.127.127 0 0 1-.128.13.129.129 0 0 1-.124-.134l.167-18.112zM12.858 29.313h6.192a.443.443 0 0 0 .433-.453.443.443 0 0 0-.433-.452h-6.192a.443.443 0 0 0-.432.452c0 .25.194.453.432.453zM13.396 27.71c0 .25.194.452.432.452h4.206a.443.443 0 0 0 .432-.452.443.443 0 0 0-.432-.452h-4.206a.443.443 0 0 0-.432.452zM19.46 5.332a.443.443 0 0 0-.433-.453h-6.192a.443.443 0 0 0-.432.453c0 .25.194.452.432.452h6.192a.443.443 0 0 0 .432-.452zM18.045 6.03H13.84a.443.443 0 0 0-.432.452c0 .25.193.453.432.453h4.205a.443.443 0 0 0 .433-.453.443.443 0 0 0-.433-.452zM17.974 27.028a.248.248 0 0 0 .242-.261L17.702 7.43a.268.268 0 0 0-.262-.266h-3.105c-.144 0-.26.12-.262.268l-.404 19.337c-.002.142.107.26.243.26h4.062zM16.986 7.89a.13.13 0 0 1 .128.13l.167 18.111a.13.13 0 0 1-.124.134.13.13 0 0 1-.128-.13l-.167-18.111a.13.13 0 0 1 .124-.134zm-1.175.132c0-.073.056-.132.126-.132s.126.059.126.132v18.111a.129.129 0 0 1-.126.132.129.129 0 0 1-.126-.131V8.022zm-1.052 0c0-.073.059-.132.128-.13.07 0 .127.061.125.134l-.167 18.112a.127.127 0 0 1-.128.13.129.129 0 0 1-.124-.134l.166-18.112zM21.508 29.313H27.7a.443.443 0 0 0 .432-.453.443.443 0 0 0-.433-.452h-6.191a.443.443 0 0 0-.433.452c0 .25.194.453.433.453zM22.045 27.71c0 .25.194.452.433.452h4.205a.443.443 0 0 0 .433-.452.443.443 0 0 0-.433-.452h-4.205a.443.443 0 0 0-.433.452zM28.109 5.332a.443.443 0 0 0-.433-.453h-6.191a.443.443 0 0 0-.433.453c0 .25.194.452.433.452h6.191a.443.443 0 0 0 .433-.452zM26.695 6.03h-4.206a.443.443 0 0 0-.432.452c0 .25.194.453.432.453h4.206a.443.443 0 0 0 .432-.453.443.443 0 0 0-.432-.452zM26.623 27.028a.248.248 0 0 0 .242-.261L26.351 7.43a.267.267 0 0 0-.261-.266h-3.106c-.144 0-.26.12-.262.268l-.403 19.337c-.002.142.106.26.242.26h4.062zM25.636 7.89a.13.13 0 0 1 .128.13l.166 18.111a.13.13 0 0 1-.124.134c-.07.002-.126-.056-.128-.13l-.167-18.111a.13.13 0 0 1 .125-.134zm-1.176.132c0-.073.056-.132.126-.132s.126.059.126.132v18.111a.129.129 0 0 1-.126.132.129.129 0 0 1-.126-.131V8.022zm-1.051 0c0-.073.058-.132.128-.13.07 0 .126.061.124.134l-.167 18.112a.127.127 0 0 1-.128.13.128.128 0 0 1-.124-.134l.167-18.112z" fill="#000"/></svg>