<svg width="30" height="24" viewBox="0 0 30 24" fill="none" xmlns="http://www.w3.org/2000/svg">
<path d="M25.3963 2.19449C23.4842 1.31714 21.4337 0.670747 19.2899 0.30053C19.2508 0.293385 19.2118 0.311241 19.1917 0.346953C18.928 0.815972 18.6359 1.42785 18.4314 1.90878C16.1255 1.56356 13.8315 1.56356 11.5729 1.90878C11.3683 1.41716 11.0656 0.815972 10.8007 0.346953C10.7806 0.312432 10.7416 0.294576 10.7026 0.30053C8.55989 0.669564 6.50945 1.31596 4.59617 2.19449C4.57961 2.20163 4.56541 2.21355 4.55599 2.22901C0.66674 8.03947 -0.398688 13.7071 0.123975 19.3045C0.12634 19.3318 0.141712 19.358 0.162998 19.3747C2.72901 21.2591 5.21463 22.4031 7.6541 23.1614C7.69314 23.1733 7.73451 23.159 7.75935 23.1269C8.33641 22.3389 8.8508 21.5079 9.29185 20.6341C9.31787 20.583 9.29303 20.5223 9.23983 20.502C8.42391 20.1925 7.647 19.8151 6.89966 19.3866C6.84055 19.3521 6.83582 19.2675 6.8902 19.2271C7.04747 19.1092 7.20477 18.9866 7.35494 18.8628C7.38211 18.8402 7.41997 18.8354 7.45192 18.8497C12.3616 21.0913 17.6769 21.0913 22.5287 18.8497C22.5606 18.8342 22.5985 18.839 22.6268 18.8616C22.7771 18.9854 22.9343 19.1092 23.0928 19.2271C23.1472 19.2675 23.1436 19.3521 23.0845 19.3866C22.3372 19.8235 21.5602 20.1925 20.7431 20.5008C20.6899 20.5211 20.6663 20.583 20.6923 20.6341C21.1428 21.5067 21.6572 22.3376 22.2236 23.1257C22.2473 23.159 22.2898 23.1733 22.3289 23.1614C24.7802 22.4031 27.2658 21.2591 29.8318 19.3747C29.8543 19.358 29.8685 19.333 29.8708 19.3057C30.4964 12.8345 28.8231 7.21332 25.4353 2.2302C25.427 2.21355 25.4128 2.20163 25.3963 2.19449ZM10.025 15.8963C8.54687 15.8963 7.32892 14.5392 7.32892 12.8726C7.32892 11.206 8.52325 9.84893 10.025 9.84893C11.5386 9.84893 12.7448 11.2179 12.7211 12.8726C12.7211 14.5392 11.5268 15.8963 10.025 15.8963ZM19.9934 15.8963C18.5153 15.8963 17.2974 14.5392 17.2974 12.8726C17.2974 11.206 18.4917 9.84893 19.9934 9.84893C21.507 9.84893 22.7132 11.2179 22.6896 12.8726C22.6896 14.5392 21.507 15.8963 19.9934 15.8963Z" fill="white"/>
</svg>
