<svg width="30" height="30" viewBox="0 0 30 30" fill="none" xmlns="http://www.w3.org/2000/svg">
<path d="M25.3963 5.19434C23.4842 4.31699 21.4337 3.6706 19.2899 3.30038C19.2508 3.29324 19.2118 3.31109 19.1917 3.3468C18.928 3.81582 18.6359 4.4277 18.4314 4.90863C16.1255 4.56342 13.8315 4.56342 11.5729 4.90863C11.3683 4.41701 11.0656 3.81582 10.8007 3.3468C10.7806 3.31228 10.7416 3.29443 10.7026 3.30038C8.55989 3.66941 6.50945 4.31581 4.59617 5.19434C4.57961 5.20149 4.56541 5.2134 4.55599 5.22887C0.66674 11.0393 -0.398688 16.707 0.123975 22.3043C0.12634 22.3317 0.141712 22.3579 0.162998 22.3745C2.72901 24.259 5.21463 25.403 7.6541 26.1613C7.69314 26.1732 7.73451 26.1589 7.75935 26.1267C8.33641 25.3387 8.8508 24.5078 9.29185 23.634C9.31787 23.5828 9.29303 23.5221 9.23983 23.5019C8.42391 23.1924 7.647 22.815 6.89966 22.3865C6.84055 22.3519 6.83582 22.2674 6.8902 22.2269C7.04747 22.1091 7.20477 21.9864 7.35494 21.8626C7.38211 21.84 7.41997 21.8353 7.45192 21.8495C12.3616 24.0911 17.6769 24.0911 22.5287 21.8495C22.5606 21.8341 22.5985 21.8389 22.6268 21.8615C22.7771 21.9853 22.9343 22.1091 23.0928 22.2269C23.1472 22.2674 23.1436 22.3519 23.0845 22.3865C22.3372 22.8233 21.5602 23.1924 20.7431 23.5007C20.6899 23.5209 20.6663 23.5828 20.6923 23.634C21.1428 24.5066 21.6572 25.3375 22.2236 26.1256C22.2473 26.1589 22.2898 26.1732 22.3289 26.1613C24.7802 25.403 27.2658 24.259 29.8318 22.3745C29.8543 22.3579 29.8685 22.3329 29.8708 22.3055C30.4964 15.8343 28.8231 10.2132 25.4353 5.23005C25.427 5.2134 25.4128 5.20149 25.3963 5.19434ZM10.025 18.8961C8.54687 18.8961 7.32892 17.539 7.32892 15.8724C7.32892 14.2058 8.52325 12.8488 10.025 12.8488C11.5386 12.8488 12.7448 14.2178 12.7211 15.8724C12.7211 17.539 11.5268 18.8961 10.025 18.8961ZM19.9934 18.8961C18.5153 18.8961 17.2974 17.539 17.2974 15.8724C17.2974 14.2058 18.4917 12.8488 19.9934 12.8488C21.507 12.8488 22.7132 14.2178 22.6896 15.8724C22.6896 17.539 21.507 18.8961 19.9934 18.8961Z" fill="white" fill-opacity="0.3"/>
</svg>
