<svg width="92" height="92" fill="none" xmlns="http://www.w3.org/2000/svg"><circle cx="46" cy="46" r="45" stroke="#EBC317" stroke-width="2"/><path d="M62.734 51.188c-.45 0-.894.033-1.328.096v-18.69h-8v-6h-9V20H29.594v6.594h-4V68h35.812v-.002c4.976-.075 9-4.145 9-9.139v-7.672h-7.672zm4.86 7.671a6.335 6.335 0 0 1-6.328 6.328H58.74l5.421-5.765-1.989-1.99-3.514 3.515a7.32 7.32 0 0 0-1.547-3.515A6.333 6.333 0 0 1 62.734 54h4.86v4.86zM28.406 29.406h22.188v25.282h-5.167v5.96c0 1.713.59 3.289 1.575 4.54H28.406V29.406zm13.188-6.593v3.78h-9.188v-3.78h9.188zm17 29.367a9.207 9.207 0 0 0-3.675 3.413 7.3 7.3 0 0 0-1.513-.622V35.406h5.188V52.18zm-10.355 8.468V57.5h3.149a4.544 4.544 0 0 1 4.539 4.539v3.148h-3.148a4.544 4.544 0 0 1-4.54-4.538z" fill="#EBC317"/><path d="M34.094 34.297h2.812v6h-2.812v-6zM42.094 34.297h2.812v6h-2.812v-6zM34.094 44.297h2.812v6h-2.812v-6zM42.094 44.297h2.812v6h-2.812v-6zM34.094 54.297h2.812v6h-2.812v-6z" fill="#EBC317"/></svg>