<svg width="10" height="30" fill="none" xmlns="http://www.w3.org/2000/svg"><path d="M5.02.816c1.347 0 2.49.479 3.427 1.436.957.937 1.436 2.08 1.436 3.428 0 1.347-.479 2.5-1.436 3.457-.937.937-2.08 1.406-3.427 1.406-1.348 0-2.5-.469-3.457-1.406C.625 8.18.155 7.027.155 5.68c0-1.348.469-2.49 1.407-3.428C2.52 1.295 3.671.816 5.02.816zm-.03 19.16c1.367 0 2.52.48 3.457 1.436.957.957 1.436 2.11 1.436 3.457 0 1.348-.479 2.5-1.436 3.457-.957.938-2.11 1.406-3.457 1.406s-2.5-.468-3.457-1.406C.596 27.37.127 26.216.127 24.87c0-1.348.469-2.5 1.406-3.457.957-.957 2.11-1.435 3.457-1.435z" fill="#EBC317"/></svg>