<svg width="92" height="92" fill="none" xmlns="http://www.w3.org/2000/svg"><circle cx="46" cy="46" r="45" stroke="#EBC317" stroke-width="2"/><path d="M70 63.498a6.059 6.059 0 0 0-6.052-6.051 6.015 6.015 0 0 0-3.28.969v-13.34l2.944 2.322 1.742-2.207-6.405-5.057V29.625l-8.944.012L50 33.068l-4.118-3.25-19.294 15.597 1.768 2.187 2.98-2.409V58.42a6.014 6.014 0 0 0-3.283-.972A6.059 6.059 0 0 0 22 63.498v4.481h.03V68h47.94v-.021H70v-4.48zm-9.291 0a3.243 3.243 0 0 1 3.24-3.239 3.243 3.243 0 0 1 3.239 3.24v1.667h-6.48V63.5zm-7.896-31.052 3.323-.005v5.472l-3.329-2.627.006-2.84zm-6.91.971 11.953 9.438v22.333h-5.89V51.483H40.034v13.703h-5.885V42.92l11.754-9.503zm-3.057 31.718V54.296h6.308v10.84h-6.308zm-18.033-1.637a3.243 3.243 0 0 1 3.239-3.239 3.243 3.243 0 0 1 3.24 3.24v1.667h-6.48V63.5z" fill="#EBC317"/><path d="M46 45.862a4.248 4.248 0 0 0 4.243-4.243A4.248 4.248 0 0 0 46 37.376a4.248 4.248 0 0 0-4.243 4.243A4.248 4.248 0 0 0 46 45.862zm0-5.673c.789 0 1.43.641 1.43 1.43 0 .79-.641 1.43-1.43 1.43-.789 0-1.43-.64-1.43-1.43 0-.789.641-1.43 1.43-1.43zM30.542 35.249l6.967-7.106a4.796 4.796 0 0 0-.067-6.773 4.758 4.758 0 0 0-3.4-1.37 4.758 4.758 0 0 0-3.373 1.436l-.26.266-.266-.26a4.795 4.795 0 0 0-6.773.066 4.758 4.758 0 0 0-1.37 3.4 4.759 4.759 0 0 0 1.436 3.374l7.106 6.967zm-5.164-11.772c.387-.394.9-.592 1.412-.592.5 0 1 .188 1.384.565l2.274 2.229 2.229-2.273c.37-.378.864-.588 1.392-.593h.02c.521 0 1.012.2 1.384.565a1.98 1.98 0 0 1 .028 2.796l-4.998 5.097-5.098-4.997a1.965 1.965 0 0 1-.592-1.393 1.965 1.965 0 0 1 .565-1.404z" fill="#EBC317"/></svg>