<?xml version="1.0" encoding="UTF-8"?>
<svg width="32px" height="26px" viewBox="0 0 32 26" version="1.1" xmlns="http://www.w3.org/2000/svg" xmlns:xlink="http://www.w3.org/1999/xlink">
    <title>ic_sc_tw</title>
    <g id="landing" stroke="none" stroke-width="1" fill="none" fill-rule="evenodd">
        <g transform="translate(-1081.000000, -10026.000000)" fill="#FF9500" id="ic_sc_tw">
            <path d="M1113,10029.0799 C1111.82083,10029.6004 1110.55572,10029.9537 1109.22855,10030.1113 C1110.58437,10029.2995 1111.62509,10028.0103 1112.11204,10026.4775 C1110.84216,10027.232 1109.43861,10027.7763 1107.94435,10028.0724 C1106.74608,10026.7974 1105.04177,10026 1103.15128,10026 C1099.52782,10026 1096.58705,10028.9414 1096.58705,10032.5657 C1096.58705,10033.0814 1096.64434,10033.5827 1096.75891,10034.0602 C1091.30225,10033.7881 1086.46621,10031.1713 1083.22945,10027.1985 C1082.66612,10028.1679 1082.34149,10029.2948 1082.34149,10030.4981 C1082.34149,10032.7758 1083.50157,10034.786 1085.26317,10035.9607 C1084.18902,10035.9273 1083.17694,10035.6312 1082.28898,10035.1394 C1082.28898,10035.168 1082.28898,10035.1919 1082.28898,10035.2206 C1082.28898,10038.4007 1084.55184,10041.0556 1087.55468,10041.6573 C1087.00567,10041.8053 1086.42324,10041.8865 1085.8265,10041.8865 C1085.40161,10041.8865 1084.99105,10041.8435 1084.59003,10041.7671 C1085.42548,10044.3743 1087.85066,10046.2747 1090.71983,10046.3273 C1088.47128,10048.0893 1085.64508,10049.1398 1082.56587,10049.1398 C1082.03595,10049.1398 1081.51559,10049.1063 1081,10049.049 C1083.90258,10050.9113 1087.35417,10052 1091.06355,10052 C1103.13695,10052 1109.73937,10041.9963 1109.73937,10033.3201 C1109.73937,10033.0336 1109.7346,10032.7519 1109.72027,10032.4702 C1111.00448,10031.5438 1112.11681,10030.3882 1112.99523,10029.0703 L1113,10029.0799 Z"></path>
        </g>
    </g>
</svg>