<?xml version="1.0" encoding="UTF-8"?>
<svg width="37px" height="26px" viewBox="0 0 37 26" version="1.1" xmlns="http://www.w3.org/2000/svg" xmlns:xlink="http://www.w3.org/1999/xlink">
    <title>ic_sc_yt</title>
    <g id="design" stroke="none" stroke-width="1" fill="none" fill-rule="evenodd">
        <g id="kaps-landing" transform="translate(-1143.000000, -6671.000000)" fill="#9789E7" fill-rule="nonzero">
            <path d="M1162.04964,6671.00094 C1163.18373,6671.00676 1165.85557,6671.03077 1168.60094,6671.1298 L1169.2605,6671.15504 C1172.00827,6671.26645 1174.71244,6671.45743 1175.9088,6671.78482 C1177.50483,6672.21817 1178.75159,6673.46918 1179.18347,6675.07065 C1180.40553,6680.00655 1180.12315,6687.80207 1179.2072,6692.92845 C1178.77531,6694.52993 1177.52856,6695.78093 1175.93253,6696.21429 C1173.34839,6696.92145 1163.72941,6696.99217 1161.83146,6696.99924 L1161.54278,6697 C1161.51785,6697.00003 1161.50501,6697.00003 1161.50501,6697.00003 L1161.49548,6697.00003 C1161.48915,6697.00002 1161.47971,6697.00001 1161.46724,6697 L1161.17857,6696.99924 C1159.28061,6696.99217 1149.66163,6696.92145 1147.0775,6696.21429 C1145.48146,6695.78093 1144.23471,6694.52993 1143.80283,6692.92845 C1142.57364,6688.01399 1142.9106,6680.2137 1143.7791,6675.09446 C1144.21098,6673.49299 1145.45773,6672.24198 1147.05377,6671.80863 C1149.63791,6671.10146 1159.25688,6671.01146 1161.15484,6671.00053 Z M1157.80322,6678.42792 L1157.80322,6689.57119 L1167.38992,6683.99955 L1157.80322,6678.42792 Z" id="ic_sc_yt"></path>
        </g>
    </g>
</svg>