<?xml version="1.0" encoding="UTF-8"?>
<svg width="37px" height="26px" viewBox="0 0 37 26" version="1.1" xmlns="http://www.w3.org/2000/svg" xmlns:xlink="http://www.w3.org/1999/xlink">
    <title>ic_sc_yt</title>
    <g id="landing" stroke="none" stroke-width="1" fill="none" fill-rule="evenodd">
        <g transform="translate(-1183.000000, -10026.000000)" fill="#FF9500" fill-rule="nonzero" id="ic_sc_yt">
            <path d="M1202.04964,10026.0009 C1203.18373,10026.0068 1205.85557,10026.0308 1208.60094,10026.1298 L1209.2605,10026.155 C1212.00827,10026.2664 1214.71244,10026.4574 1215.9088,10026.7848 C1217.50483,10027.2182 1218.75159,10028.4692 1219.18347,10030.0707 C1220.40553,10035.0065 1220.12315,10042.8021 1219.2072,10047.9285 C1218.77531,10049.5299 1217.52856,10050.7809 1215.93253,10051.2143 C1213.34839,10051.9215 1203.72941,10051.9922 1201.83146,10051.9992 L1201.54278,10052 C1201.51785,10052 1201.50501,10052 1201.50501,10052 L1201.49548,10052 C1201.48915,10052 1201.47971,10052 1201.46724,10052 L1201.17857,10051.9992 C1199.28061,10051.9922 1189.66163,10051.9215 1187.0775,10051.2143 C1185.48146,10050.7809 1184.23471,10049.5299 1183.80283,10047.9285 C1182.57364,10043.014 1182.9106,10035.2137 1183.7791,10030.0945 C1184.21098,10028.493 1185.45773,10027.242 1187.05377,10026.8086 C1189.63791,10026.1015 1199.25688,10026.0115 1201.15484,10026.0005 Z M1197.80322,10033.4279 L1197.80322,10044.5712 L1207.38992,10038.9996 L1197.80322,10033.4279 Z"></path>
        </g>
    </g>
</svg>