<?xml version="1.0" encoding="UTF-8"?>
<svg width="30px" height="30px" viewBox="0 0 30 30" version="1.1" xmlns="http://www.w3.org/2000/svg" xmlns:xlink="http://www.w3.org/1999/xlink">
    <title>icons8-instagram</title>
    <g id="landing" stroke="none" stroke-width="1" fill="none" fill-rule="evenodd">
        <g transform="translate(-1133.000000, -10024.000000)" fill="#FF9500" fill-rule="nonzero" id="icons8-instagram">
            <g transform="translate(1133.000000, 10024.000000)">
                <path d="M8.74755862,0 C3.92380863,0 0,3.92744137 0,8.75244125 L0,21.2524413 C0,26.0761913 3.92744137,30 8.75244125,30 L21.2524413,30 C26.0761913,30 30,26.0725587 30,21.2475587 L30,8.74755862 C30,3.92380863 26.0725587,0 21.2475587,0 L8.74755862,0 Z M23.75,5 C24.44,5 25,5.56 25,6.25 C25,6.94 24.44,7.5 23.75,7.5 C23.06,7.5 22.5,6.94 22.5,6.25 C22.5,5.56 23.06,5 23.75,5 Z M15,7.5 C19.13625,7.5 22.5,10.86375 22.5,15 C22.5,19.13625 19.13625,22.5 15,22.5 C10.86375,22.5 7.5,19.13625 7.5,15 C7.5,10.86375 10.86375,7.5 15,7.5 Z M15,10 C12.2385763,10 10,12.2385763 10,15 C10,17.7614237 12.2385763,20 15,20 C17.7614237,20 20,17.7614237 20,15 C20,12.2385763 17.7614237,10 15,10 Z" id="Shape"></path>
            </g>
        </g>
    </g>
</svg>