<svg width="30" height="30" fill="none" xmlns="http://www.w3.org/2000/svg"><path d="M25.47 0A4.53 4.53 0 0 1 30 4.53v20.94A4.53 4.53 0 0 1 25.47 30H4.53A4.53 4.53 0 0 1 0 25.47V4.53A4.53 4.53 0 0 1 4.53 0h20.94zM9.599 11.544H5.068v13.634h4.53V11.544zm11.123-.32c-2.354 0-3.437 1.267-4.046 2.192l-.038.058v-1.93h-4.531c.015.331.023 1.403.025 2.81l.001.58V17.162l-.002.669-.001.673c-.006 2.92-.02 5.792-.022 6.505l-.001.126v.043h4.531v-7.614c0-.407.03-.814.15-1.105.327-.814 1.072-1.658 2.324-1.658 1.64 0 2.296 1.25 2.296 3.083v7.294h4.53v-7.817c0-4.188-2.235-6.137-5.216-6.137zM7.364 4.971C5.814 4.97 4.8 5.989 4.8 7.327c0 1.308.984 2.355 2.504 2.355h.03c1.58 0 2.563-1.047 2.563-2.355-.029-1.338-.983-2.356-2.533-2.356z" fill="#EBC317"/></svg>