<svg width="89" height="60" fill="none" xmlns="http://www.w3.org/2000/svg"><g clip-path="url(#a)" fill="#fff"><path d="M59.736 30.227H28.268a.198.198 0 0 0-.198.198v2.585c0 .11.088.198.198.198h31.468c.11 0 .198-.088.198-.197v-2.586a.198.198 0 0 0-.198-.198zM58.438 28.28H29.562a.198.198 0 0 0-.198.197v1.292c0 .11.088.198.198.198h28.876c.11 0 .198-.089.198-.198v-1.292a.198.198 0 0 0-.198-.198zM57.154 2.974H30.93a.202.202 0 0 0-.202.201v1.071c0 .111.09.202.202.202h26.225c.112 0 .202-.09.202-.202v-1.07a.202.202 0 0 0-.202-.202zM30.537 2.675c.03.04.076.066.126.066h26.755c.05 0 .097-.025.126-.066L59.13.334a.215.215 0 0 0-.178-.336H29.129a.215.215 0 0 0-.178.336l1.584 2.34h.002zM32.316 28.023h6.192a.433.433 0 0 0 0-.865h-6.192a.433.433 0 0 0 0 .865zM32.853 26.491c0 .239.194.433.433.433h4.205a.433.433 0 0 0 0-.866h-4.205a.433.433 0 0 0-.433.433zM38.917 5.096a.433.433 0 0 0-.433-.433h-6.191a.433.433 0 0 0 0 .865h6.191a.433.433 0 0 0 .433-.432zM37.503 5.763h-4.205a.433.433 0 0 0 0 .865h4.205a.433.433 0 0 0 0-.865zM37.431 25.84a.242.242 0 0 0 .243-.251L37.16 7.101a.262.262 0 0 0-.262-.254h-3.106a.26.26 0 0 0-.262.256l-.403 18.488a.244.244 0 0 0 .242.248h4.062zm-.987-18.298c.07 0 .126.054.128.124l.167 17.316c0 .07-.055.126-.124.128a.127.127 0 0 1-.129-.124L36.32 7.67c0-.07.054-.126.124-.128zm-1.176.126a.126.126 0 1 1 .252 0v17.316a.126.126 0 1 1-.252 0V7.668zm-1.051 0c0-.07.058-.126.128-.124.07 0 .126.058.124.128l-.167 17.316c0 .07-.058.126-.128.124a.126.126 0 0 1-.124-.128l.167-17.316zM40.928 28.023h6.192a.433.433 0 0 0 0-.865H40.93a.433.433 0 0 0 0 .865zM41.466 26.491c0 .239.194.433.432.433h4.206a.433.433 0 0 0 0-.866h-4.206a.433.433 0 0 0-.432.433zM47.53 5.096a.433.433 0 0 0-.433-.433h-6.192a.433.433 0 0 0 0 .865h6.192a.433.433 0 0 0 .432-.432zM46.115 5.763H41.91a.433.433 0 0 0 0 .865h4.205a.433.433 0 0 0 0-.865zM46.044 25.84a.242.242 0 0 0 .242-.251l-.514-18.488a.262.262 0 0 0-.262-.254h-3.105a.26.26 0 0 0-.262.256l-.404 18.488a.244.244 0 0 0 .243.248h4.062zm-.988-18.298c.07 0 .126.054.128.124l.167 17.316c0 .07-.054.126-.124.128a.127.127 0 0 1-.128-.124L44.932 7.67c0-.07.054-.126.124-.128zm-1.175.126a.126.126 0 1 1 .252 0v17.316a.126.126 0 1 1-.252 0V7.668zm-1.052 0c0-.07.059-.126.129-.124.07 0 .126.058.124.128l-.167 17.316c0 .07-.058.126-.128.124a.126.126 0 0 1-.124-.128l.166-17.316zM49.578 28.023h6.191a.433.433 0 0 0 0-.865h-6.191a.433.433 0 0 0 0 .865zM50.115 26.491c0 .239.194.433.433.433h4.205a.433.433 0 0 0 0-.866h-4.205a.433.433 0 0 0-.433.433zM56.179 5.096a.433.433 0 0 0-.433-.433h-6.192a.433.433 0 0 0 0 .865h6.192a.433.433 0 0 0 .433-.432zM54.765 5.763h-4.206a.433.433 0 0 0 0 .865h4.206a.433.433 0 0 0 0-.865zM54.693 25.84a.242.242 0 0 0 .242-.251l-.514-18.488a.262.262 0 0 0-.262-.254h-3.105a.26.26 0 0 0-.262.256l-.403 18.488a.244.244 0 0 0 .242.248h4.062zm-.987-18.298c.07 0 .126.054.128.124L54 24.982a.126.126 0 1 1-.252.004L53.581 7.67c0-.07.055-.126.124-.128zm-1.176.126a.126.126 0 1 1 .252 0v17.316a.126.126 0 1 1-.252 0V7.668zm-1.051 0c0-.07.058-.126.128-.124.07 0 .126.058.124.128l-.167 17.316c0 .07-.058.126-.128.124a.125.125 0 0 1-.124-.128l.167-17.316zM5.25 44.172v2.969c0 .573.034.934.102 1.086a.798.798 0 0 0 .375.351c.177.089.507.133.992.133V49H1.297v-.29c.49 0 .82-.043.992-.132a.792.792 0 0 0 .367-.36c.073-.145.11-.505.11-1.077v-6.875c0-.573-.037-.933-.11-1.078a.748.748 0 0 0-.367-.36c-.177-.088-.508-.133-.992-.133v-.289h4.922c1.281 0 2.218.089 2.812.266a2.825 2.825 0 0 1 1.453.984c.375.474.563 1.032.563 1.672 0 .781-.281 1.427-.844 1.938-.36.323-.862.565-1.508.726l2.547 3.586c.333.464.57.753.711.867.214.162.461.25.742.266V49H9.36l-3.414-4.828H5.25zm0-5.195v4.64h.445c.724 0 1.266-.065 1.625-.195.36-.136.64-.375.844-.719.208-.349.313-.802.313-1.36 0-.807-.19-1.403-.57-1.788-.376-.386-.983-.578-1.821-.578H5.25zm11.672.039v4.312h.21c.673 0 1.16-.21 1.462-.633.302-.422.494-1.044.578-1.867h.297v5.547h-.297c-.063-.604-.195-1.099-.399-1.484-.197-.386-.43-.644-.695-.774-.265-.135-.65-.203-1.156-.203v2.984c0 .584.023.94.07 1.07.052.131.146.238.281.321.136.083.355.125.657.125h.633c.99 0 1.78-.23 2.375-.687.599-.459 1.028-1.157 1.289-2.094h.289L22.039 49h-9.156v-.29h.351c.308 0 .555-.054.743-.163a.712.712 0 0 0 .312-.375c.057-.125.086-.453.086-.984v-6.97c0-.478-.013-.773-.04-.882a.747.747 0 0 0-.288-.422c-.198-.146-.469-.219-.813-.219h-.351v-.289h8.867v3.133h-.297c-.15-.766-.364-1.315-.64-1.648-.271-.334-.657-.578-1.157-.735-.291-.093-.838-.14-1.64-.14h-1.094zm12.969 6.968h-3.743l-.445 1.032c-.146.343-.219.627-.219.851 0 .297.12.516.36.656.14.084.487.146 1.039.188V49h-3.524v-.29c.38-.056.693-.213.938-.468.245-.26.547-.794.906-1.601l3.79-8.453h.148l3.82 8.687c.364.823.664 1.341.898 1.555.177.161.427.255.75.28V49h-5.125v-.29h.211c.412 0 .7-.056.867-.17a.417.417 0 0 0 .172-.36.956.956 0 0 0-.047-.29 7.271 7.271 0 0 0-.234-.585l-.562-1.32zm-.266-.578-1.578-3.648-1.625 3.648h3.203zm15.273-.125L44.5 49h-9.406v-.29h.351c.308 0 .555-.054.742-.163a.711.711 0 0 0 .313-.375c.057-.125.086-.453.086-.984v-6.97c0-.54-.029-.88-.086-1.015-.057-.135-.175-.253-.352-.351-.171-.105-.406-.157-.703-.157h-.351v-.289h5.648v.29h-.46c-.308 0-.555.054-.743.163a.746.746 0 0 0-.32.375c-.058.125-.086.453-.086.985v6.75c0 .541.031.888.094 1.039.062.146.184.255.367.328.13.047.445.07.945.07h.883c.562 0 1.031-.099 1.406-.297.375-.198.698-.51.969-.937.276-.427.536-1.057.781-1.89h.32zm5.516.852H45.86v-1.617h4.555v1.617zm10.477-7.727v2.867h-.282c-.166-.661-.351-1.135-.554-1.421a2.123 2.123 0 0 0-.836-.696c-.198-.093-.544-.14-1.04-.14h-.788v8.172c0 .541.028.88.086 1.015.062.136.18.255.351.36.177.098.417.148.719.148h.351V49h-5.546v-.29h.351c.307 0 .555-.054.742-.163a.747.747 0 0 0 .32-.375c.058-.125.087-.453.087-.984v-8.172h-.766c-.714 0-1.232.15-1.555.453-.453.422-.74 1.023-.86 1.804h-.296v-2.867h9.516zm6.46-.148c1.688-.063 3.058.43 4.11 1.476 1.057 1.047 1.586 2.357 1.586 3.93 0 1.344-.393 2.526-1.18 3.547-1.041 1.354-2.513 2.031-4.414 2.031-1.906 0-3.38-.646-4.422-1.937-.823-1.021-1.234-2.232-1.234-3.633 0-1.573.534-2.883 1.601-3.93 1.073-1.052 2.391-1.547 3.954-1.484zm.094.5c-.968 0-1.705.495-2.21 1.484-.412.813-.618 1.98-.618 3.5 0 1.808.318 3.143.953 4.008.443.604 1.063.906 1.86.906.536 0 .984-.13 1.343-.39.459-.334.816-.865 1.07-1.594.256-.734.384-1.69.384-2.867 0-1.401-.13-2.448-.391-3.14-.26-.699-.594-1.191-1-1.477a2.33 2.33 0 0 0-1.39-.43zM80.29 42.46l3.727 4.664c.526.656.979 1.102 1.359 1.336.276.167.568.25.875.25V49h-5.516v-.29c.35-.03.573-.085.672-.163a.35.35 0 0 0 .156-.29c0-.218-.24-.63-.718-1.234l-2.43-3.054-.39.328v2.89c0 .553.03.896.093 1.032.063.135.182.252.36.351.177.094.46.14.851.14V49h-5.344v-.29h.352c.307 0 .555-.054.742-.163a.711.711 0 0 0 .313-.375c.057-.125.086-.453.086-.984v-6.97c0-.54-.03-.88-.086-1.015-.058-.135-.175-.253-.352-.351-.172-.105-.406-.157-.703-.157h-.352v-.289h5.274v.29c-.36 0-.633.051-.82.156a.75.75 0 0 0-.32.367c-.063.13-.095.463-.095 1v3.297l3.93-3.18c.547-.443.82-.797.82-1.063 0-.198-.111-.354-.335-.468-.115-.058-.399-.094-.852-.11v-.289h4.133v.29c-.37.025-.662.093-.875.202-.209.105-.693.464-1.453 1.079l-3.102 2.484z"/></g><defs><clipPath id="a"><path fill="#fff" d="M0 0h88.512v60H0z"/></clipPath></defs></svg>