<svg xmlns="http://www.w3.org/2000/svg" xmlns:xlink="http://www.w3.org/1999/xlink" width="176px" height="80px" viewBox="0 0 176 80" version="1.1">
    <title>kaps_logo</title>
    <defs>
        <path d="M40.5980729,10.420737 L62.955042,23.3285391 C64.2539457,24.0784615 65.0526797,25.4657105 65.0491183,26.9655511 L64.9874704,52.9276852 C64.9839342,54.4168685 64.1899033,55.7921705 62.9020007,56.5398246 L40.448957,69.5742803 C39.1518377,70.3272848 37.5510778,70.3291854 36.2521741,69.579263 L13.8952051,56.6714609 C12.5963014,55.9215385 11.7975674,54.5342895 11.8011288,53.0344489 L11.8627767,27.0723148 C11.8663128,25.5831315 12.6603438,24.2078295 13.9482464,23.4601754 L36.40129,10.4257197 C37.6984094,9.67271517 39.2991692,9.67081465 40.5980729,10.420737 Z" id="path-1"/>
    </defs>
    <g id="assets" stroke="none" stroke-width="1" fill="none" fill-rule="evenodd">
        <g id="kaps_logo" transform="translate(1.000000, -0.000000)">
            <g id="Kaps-Limited" transform="translate(86.044751, 17.301727)" fill="#222128" fill-rule="nonzero">
                <polygon id="Path" points="17.2938988 0 9.91416311 10.3424032 17.3073654 20.6982732 13.9406977 20.6982732 7.53056236 11.7160037 3.19429433 11.7160037 3.19429433 20.6982732 0.447093473 20.6982732 0.447093473 0 3.19429433 0 3.19429433 8.96880281 7.53056236 8.96880281 13.927231 0"/>
                <path d="M23.3673673,7.87800247 L21.6032334,9.62866968 L18.8560326,8.49746933 L22.2227003,5.11733494 L31.0568364,5.11733494 L34.4235041,8.49746933 L34.4235041,20.6982732 L31.6763033,20.6982732 L31.6763033,19.109206 L29.683236,20.6982732 L22.2227003,20.6982732 L18.8560326,17.3316054 L18.8560326,14.4228045 L22.2227003,11.0426701 L29.683236,11.0426701 L31.6763033,12.7798707 L31.6763033,9.62866968 L29.9121694,7.87800247 L23.3673673,7.87800247 Z M31.6224366,15.3116048 L29.844836,13.5340042 L23.3673673,13.5340042 L21.6032334,15.2846715 L21.6032334,16.4562718 L23.3673673,18.206939 L29.844836,18.206939 L31.6224366,16.4428052 L31.6224366,15.3116048 Z" id="Shape"/>
                <path d="M40.0256392,25.8290748 L37.2649717,25.8290748 L37.2649717,15.958005 L37.2649717,15.9445383 C37.2649717,14.7415157 37.2649717,12.9369818 37.2649717,10.5309366 L37.2649717,5.11733494 L40.0256392,5.11733494 L40.0256392,7.11040223 L42.0187065,5.11733494 L49.4657755,5.11733494 L52.8324432,8.49746933 L52.8324432,17.3316054 L49.4657755,20.6982732 L42.0187065,20.6982732 L40.0256392,18.7052059 L40.0256392,25.8290748 Z M40.0256392,14.813338 L43.1499069,17.9376056 L48.3211085,17.9376056 L50.0852424,16.1869384 L50.0852424,9.62866968 L48.3211085,7.87800247 L43.1499069,7.87800247 L40.0256392,11.0022701 L40.0256392,14.813338 Z" id="Shape"/>
                <polygon id="Path" points="68.4941815 10.3424032 68.4941815 9.62866968 66.7300476 7.87800247 60.1852455 7.87800247 58.4211116 9.62866968 58.4211116 9.77680306 60.1852455 11.5274703 67.8747146 11.5274703 71.2413823 14.9076047 71.2413823 17.3316054 67.8747146 20.6982732 59.0405785 20.6982732 55.6739108 17.3316054 55.6739108 15.4732048 58.4211116 15.4732048 58.4211116 16.1869384 60.1852455 17.9376056 66.7300476 17.9376056 68.4941815 16.1869384 68.4941815 16.038805 66.7300476 14.2881378 59.0405785 14.2881378 55.6739108 10.9214701 55.6739108 8.49746933 59.0405785 5.11733494 67.8747146 5.11733494 71.2413823 8.49746933 71.2413823 10.3424032"/>
                <polygon id="Path" points="11.3025769 42.7580267 8.54056268 45.5200409 -1.42108547e-14 45.5200409 -1.42108547e-14 31.0312497 1.9230406 31.0312497 1.9230406 43.5875737 7.73929576 43.5875737 9.93570978 41.4005863"/>
                <path d="M23.8023408,43.5875737 L23.8023408,45.5200409 L12.9051107,45.5200409 L12.9051107,43.5875737 L17.3922055,43.5875737 L17.3922055,36.5458515 L12.9051107,36.5458515 L12.9051107,34.6133842 L19.3152461,34.6133842 L19.3152461,43.5875737 L23.8023408,43.5875737 Z M19.3152461,31.0312497 L19.3152461,32.9542903 L17.3922055,32.9542903 L17.3922055,31.0312497 L19.3152461,31.0312497 Z" id="Shape"/>
                <polygon id="Path" points="32.2015034 45.5200409 30.2784628 45.5200409 30.2784628 37.5827851 29.8354094 36.6212648 27.7144087 38.7422655 27.7144087 45.5200409 25.7913681 45.5200409 25.7913681 34.6133842 27.7144087 34.6133842 27.7144087 36.017958 29.1189825 34.6133842 31.0231697 34.6133842 31.84329 36.3761714 33.5966505 34.6133842 35.5102645 34.6133842 36.6885982 37.1680116 36.6885982 45.5200409 34.7655576 45.5200409 34.7655576 37.5827851 34.3225041 36.6212648 32.2015034 38.7422655"/>
                <path d="M49.5748555,43.5875737 L49.5748555,45.5200409 L38.6776255,45.5200409 L38.6776255,43.5875737 L43.1647202,43.5875737 L43.1647202,36.5458515 L38.6776255,36.5458515 L38.6776255,34.6133842 L45.0877608,34.6133842 L45.0877608,43.5875737 L49.5748555,43.5875737 Z M45.0877608,31.0312497 L45.0877608,32.9542903 L43.1647202,32.9542903 L43.1647202,31.0312497 L45.0877608,31.0312497 Z" id="Shape"/>
                <polygon id="Path" points="51.5638828 36.5458515 51.5638828 34.6133842 54.2599103 34.6133842 54.2599103 31.0312497 56.1829509 31.0312497 56.1829509 34.6133842 62.4611129 34.6133842 62.4611129 36.5458515 56.1829509 36.5458515 56.1829509 42.3621066 57.4178447 43.5875737 59.3031786 43.5875737 61.4995926 41.4005863 62.8664597 42.7580267 60.1044455 45.5200409 56.6165777 45.5200409 54.2599103 43.1633735 54.2599103 36.5458515"/>
                <path d="M72.9907029,45.5200409 L66.8068076,45.5200409 L64.4501402,43.1633735 L64.4501402,36.9794783 L66.8068076,34.6133842 L72.9907029,34.6133842 L75.3473703,36.9794783 L75.3473703,41.0329462 L66.3731808,41.0329462 L66.3731808,42.3621066 L67.6080745,43.5875737 L72.189436,43.5875737 L73.7071298,42.0793065 L75.0645702,43.4367469 L72.9907029,45.5200409 Z M66.3731808,39.1004789 L73.4243297,39.1004789 L73.4243297,37.7713185 L72.189436,36.5458515 L67.6080745,36.5458515 L66.3731808,37.7713185 L66.3731808,39.1004789 Z" id="Shape"/>
                <path d="M86.3011604,31.0312497 L88.2336277,31.0312497 L88.2336277,45.5200409 L86.3011604,45.5200409 L86.3011604,44.1248938 L84.9060133,45.5200409 L79.6836383,45.5200409 L77.3269709,43.1633735 L77.3269709,36.9794783 L79.6836383,34.6133842 L84.9060133,34.6133842 L86.3011604,36.017958 L86.3011604,31.0312497 Z M80.4849052,36.5458515 L79.2500115,37.7713185 L79.2500115,42.3621066 L80.4849052,43.5875737 L84.1047464,43.5875737 L86.3011604,41.4005863 L86.3011604,38.7422655 L84.1047464,36.5458515 L80.4849052,36.5458515 Z" id="Shape"/>
            </g>
            <g id="Group-2">
                <mask id="mask-2" fill="white">
                    <use xlink:href="#path-1" transform="translate(38.425124, 40.000000) rotate(-30.000000) translate(-38.425124, -40.000000) "/>
                </mask>
                <use id="Polygon" fill="#9789E7" transform="translate(38.425124, 40.000000) rotate(-30.000000) translate(-38.425124, -40.000000) " xlink:href="#path-1"/>
                <path d="M48.9209039,16.1738695 L27.929655,16.1738695 C25.9322231,16.1738695 24.0868974,17.2407349 23.0902429,18.9717503 L12.5968619,37.1969258 L12.5968619,37.1969258 L33.5881107,37.1969258 C35.5855427,37.1969258 37.4308684,36.1300604 38.4275229,34.3990451 L48.9209039,16.1738695 L48.9209039,16.1738695 Z" id="Path" fill="#2DCFC7" fill-rule="nonzero" mask="url(#mask-2)"/>
                <path d="M24.0319554,21.9802508 C25.9634566,18.6439093 30.2338869,17.5050613 33.5702284,19.4365625 L33.5702284,19.4365625 L43.6736423,25.2855068 L38.4275229,34.3990451 C37.4723957,36.0579348 35.7378464,37.1068673 33.8369471,37.1913984 L33.5881107,37.1969258 L23.0926423,37.1965068 L23.0926423,25.4775432 C23.0926423,24.351788 23.3648987,23.2442977 23.8842167,22.2488794 Z" id="Combined-Shape" fill="#FFFFFF" fill-rule="nonzero" opacity="0.699999988" mask="url(#mask-2)"/>
                <path d="M53.7576048,18.9685345 L43.2497736,37.2159335 C42.2563661,38.9410376 42.2564273,41.0645333 43.2499342,42.7895801 L53.7576048,61.0342686 L53.7576048,61.0342686 L64.2631344,42.7890985 C65.2562715,41.0642968 65.2563326,38.9412741 64.263295,37.2164152 L53.7576048,18.9685345 L53.7576048,18.9685345 Z" id="Path" fill="#4B3E81" fill-rule="nonzero" mask="url(#mask-2)"/>
                <path d="M48.5078164,28.0843268 L58.6553145,33.9590194 C59.7108839,34.570118 60.5879042,35.4471383 61.1990028,36.5027076 C63.130504,39.8390491 61.991656,44.1094794 58.6553145,46.0409806 L58.6553145,46.0409806 L48.5058164,51.9163268 L43.2499342,42.7895801 C42.2996233,41.1395353 42.2582494,39.1249362 43.1258327,37.4431409 L43.2497736,37.2159335 L48.5078164,28.0843268 Z" id="Combined-Shape" fill="#B3AAEE" fill-rule="nonzero" opacity="0.900000036" mask="url(#mask-2)"/>
                <path d="M33.585323,42.8030742 L12.5940742,42.8030742 L12.5940742,42.8030742 L23.0874551,61.0282497 C24.0841096,62.7592651 25.9294354,63.8261305 27.9268673,63.8261305 L48.9181162,63.8261305 L48.9181162,63.8261305 L38.4247352,45.6009549 C37.4280807,43.8699396 35.5827549,42.8030742 33.585323,42.8030742 Z" id="Path" fill="#B3AAEE" fill-rule="nonzero" mask="url(#mask-2)"/>
                <path d="M33.585323,42.8030742 C35.5827549,42.8030742 37.4280807,43.8699396 38.4247352,45.6009549 L38.4247352,45.6009549 L43.6716423,54.7148029 L33.5702284,60.5634375 C32.5959621,61.1274674 31.5010958,61.4467264 30.3794368,61.4960194 L30.072936,61.5027506 C26.2178262,61.5027506 23.0926423,58.3775666 23.0926423,54.5224568 L23.0926423,54.5224568 L23.0926423,42.8028029 Z" id="Combined-Shape" fill="#4B3E81" fill-rule="nonzero" opacity="0.699999988" mask="url(#mask-2)"/>
            </g>
        </g>
    </g>
</svg>