<svg width="181" height="50" viewBox="0 0 181 50" fill="none" xmlns="http://www.w3.org/2000/svg">
<path d="M52.7246 18.0761H51.7206L45.9498 32.064H47.0442L52.2181 19.484L57.392 32.064H58.4864L52.7246 18.0761Z" fill="white"/>
<path d="M22.3779 18.0761C23.6714 18.0761 24.7387 18.4849 25.5799 19.3114C26.4211 20.138 26.8553 21.1553 26.8553 22.3724C26.8553 23.5895 26.4302 24.6068 25.5799 25.4334C24.7296 26.2599 23.6623 26.6687 22.3779 26.6687H18.407V32.064H17.403V18.0761H22.3779ZM18.407 19.0843V25.6786H22.3779C23.4181 25.6786 24.2593 25.3698 24.9015 24.7431C25.5437 24.1163 25.8693 23.3352 25.8693 22.3724C25.8693 21.4096 25.5437 20.6285 24.9015 20.0108C24.2593 19.3932 23.4181 19.0843 22.3779 19.0843H18.407Z" fill="white"/>
<path d="M37.601 18.0761C38.8312 18.0761 39.8533 18.4667 40.6583 19.2569C41.4633 20.0471 41.8704 21.019 41.8704 22.1726C41.8704 22.7811 41.7618 23.3352 41.5538 23.8348C41.3457 24.3343 41.0834 24.7067 40.7849 24.9792C40.4864 25.2517 40.1789 25.4697 39.8804 25.6514C39.5819 25.833 39.3286 25.942 39.1206 25.9965L38.804 26.0874L42.1869 32.0822H41.0925L37.809 26.2872H33.3407V32.0822H32.3367V18.0943H37.6101L37.601 18.0761ZM33.3226 19.0843V25.279H37.601C38.5869 25.279 39.3829 24.9883 39.9799 24.407C40.5769 23.8257 40.8844 23.0809 40.8844 22.1817C40.8844 21.2824 40.5859 20.5285 39.9799 19.9563C39.3739 19.3841 38.5869 19.0843 37.601 19.0843H33.3226Z" fill="white"/>
<path d="M72.9045 31.074V32.0731H63.3528V18.0852H72.7055V19.0934H64.3477V24.2798H71.1136V25.2881H64.3477V31.083H72.8955L72.9045 31.074Z" fill="white"/>
<path d="M79.0734 19.9745V32.064H78.0693V18.0761H78.8653L85.0342 26.269L91.203 18.0761H91.999V32.064H90.995V19.9745L85.0251 27.9676L79.0553 19.9745H79.0734Z" fill="white"/>
<path d="M98.5749 18.0761H99.5789V32.064H98.5749V18.0761Z" fill="white"/>
<path d="M117.199 30.1657C115.824 31.5644 114.16 32.2638 112.197 32.2638C110.234 32.2638 108.579 31.5644 107.204 30.1657C105.82 28.7669 105.133 27.0683 105.133 25.0701C105.133 23.0718 105.82 21.3733 107.204 19.9745C108.588 18.5757 110.252 17.8763 112.197 17.8763C114.142 17.8763 115.824 18.5757 117.199 19.9745C118.574 21.3733 119.261 23.0718 119.261 25.0701C119.261 27.0683 118.574 28.7669 117.199 30.1657ZM116.503 20.6648C115.327 19.4749 113.888 18.8754 112.197 18.8754C110.506 18.8754 109.067 19.4749 107.891 20.6648C106.716 21.8547 106.128 23.3261 106.128 25.0701C106.128 26.814 106.716 28.2855 107.891 29.4753C109.067 30.6652 110.506 31.2647 112.197 31.2647C113.888 31.2647 115.327 30.6652 116.503 29.4753C117.678 28.2855 118.266 26.814 118.266 25.0701C118.266 23.3261 117.678 21.8547 116.503 20.6648Z" fill="white"/>
<path d="M2.54171 25.8966L0 32.064H1.09447L3.09347 27.2137L2.54171 25.8966Z" fill="white"/>
<path d="M6.77488 18.0761H5.68945L11.4422 32.064H12.5367L6.77488 18.0761Z" fill="white"/>
<path d="M155.397 49.1401C168.635 49.1401 179.367 38.3636 179.367 25.0701C179.367 11.7765 168.635 1 155.397 1C142.159 1 131.427 11.7765 131.427 25.0701C131.427 38.3636 142.159 49.1401 155.397 49.1401Z" stroke="white" stroke-width="1.4" stroke-miterlimit="10"/>
<path d="M149.328 24.6068L145.185 34.6527H146.976L150.214 26.7504L149.328 24.6068Z" fill="white"/>
<path d="M156.22 11.8542H154.456L163.827 34.6527H165.6L156.22 11.8542Z" fill="white"/>
</svg>
