<svg width="100" height="100" viewBox="0 0 100 100" fill="none" xmlns="http://www.w3.org/2000/svg">
<path fill-rule="evenodd" clip-rule="evenodd" d="M50 2.82604C23.9584 2.82604 2.83746 23.9409 2.83746 50C2.83746 76.0591 23.9584 97.174 50 97.174C76.0416 97.174 97.1625 76.0591 97.1625 50C97.1625 23.9409 76.0416 2.82604 50 2.82604ZM0 50C0 22.3914 22.3802 0 50 0C77.6198 0 100 22.3914 100 50C100 77.6086 77.6198 100 50 100C22.3802 100 0 77.6086 0 50ZM37.6988 49.0649L29.3025 69.3431H32.9324L39.4955 53.3919L37.6988 49.0649ZM48.0934 23.323H51.6683L70.6791 69.3431H67.0859L48.0934 23.323Z" fill="#F7C257"/>
</svg>
