<svg width="200" height="260" viewBox="0 0 200 260" fill="none" xmlns="http://www.w3.org/2000/svg">
<rect x="0.5" y="0.5" width="199" height="259" rx="2.5" fill="#093462" stroke="#0C4078"/>
<rect x="4" width="7" height="260" fill="url(#paint0_linear_0_1)"/>
<g filter="url(#filter0_i_0_1)">
<path fill-rule="evenodd" clip-rule="evenodd" d="M100 82.826C73.9584 82.826 52.8375 103.941 52.8375 130C52.8375 156.059 73.9584 177.174 100 177.174C126.042 177.174 147.163 156.059 147.163 130C147.163 103.941 126.042 82.826 100 82.826ZM50 130C50 102.391 72.3802 80 100 80C127.62 80 150 102.391 150 130C150 157.609 127.62 180 100 180C72.3802 180 50 157.609 50 130ZM87.6988 129.065L79.3025 149.343H82.9324L89.4955 133.392L87.6988 129.065ZM98.0934 103.323H101.668L120.679 149.343H117.086L98.0934 103.323Z" fill="#1A599C"/>
</g>
<defs>
<filter id="filter0_i_0_1" x="50" y="80" width="100" height="100" filterUnits="userSpaceOnUse" color-interpolation-filters="sRGB">
<feFlood flood-opacity="0" result="BackgroundImageFix"/>
<feBlend mode="normal" in="SourceGraphic" in2="BackgroundImageFix" result="shape"/>
<feColorMatrix in="SourceAlpha" type="matrix" values="0 0 0 0 0 0 0 0 0 0 0 0 0 0 0 0 0 0 127 0" result="hardAlpha"/>
<feOffset dy="-1"/>
<feComposite in2="hardAlpha" operator="arithmetic" k2="-1" k3="1"/>
<feColorMatrix type="matrix" values="0 0 0 0 1 0 0 0 0 1 0 0 0 0 1 0 0 0 0.25 0"/>
<feBlend mode="normal" in2="shape" result="effect1_innerShadow_0_1"/>
</filter>
<linearGradient id="paint0_linear_0_1" x1="11" y1="71.5" x2="4" y2="71.5" gradientUnits="userSpaceOnUse">
<stop stop-color="#257AD7"/>
<stop offset="1" stop-color="#0254AD" stop-opacity="0"/>
</linearGradient>
</defs>
</svg>
