<svg width="92" height="92" fill="none" xmlns="http://www.w3.org/2000/svg"><circle cx="46" cy="46" r="45" stroke="#EBC317" stroke-width="2"/><g clip-path="url(#a)"><path d="M68.594 68.594H23.406M50.16 68.594h-8.32V41h8.32v27.594zM35.16 68.594h-8.32V48h8.32v20.594zM65.16 68.594h-8.32V54h8.32v14.594z" stroke="#EBC317" stroke-width="2.813" stroke-miterlimit="10" stroke-linecap="square"/><path d="M51.544 31.685c0-1.236-.406-1.605-.812-1.605s-.812.37-.812 1.605c0 1.236.406 1.605.812 1.605s.812-.369.812-1.605zm-4.243 0c0-2.287 1.475-3.597 3.43-3.597 1.956 0 3.432 1.31 3.432 3.597 0 2.306-1.476 3.598-3.431 3.598-1.956 0-3.431-1.292-3.431-3.598zm-5.221-6.087c0-1.236-.406-1.605-.812-1.605s-.812.369-.812 1.605.406 1.605.812 1.605.812-.37.812-1.605zm6.77-3.413h3.118L43.15 35.098h-3.118l8.818-12.913zm-11.013 3.413c0-2.288 1.476-3.598 3.431-3.598 1.956 0 3.431 1.31 3.431 3.598 0 2.306-1.475 3.597-3.43 3.597-1.956 0-3.432-1.291-3.432-3.597z" fill="#EBC317"/></g><defs><clipPath id="a"><path fill="#fff" transform="translate(22 22)" d="M0 0h48v48H0z"/></clipPath></defs></svg>