<svg width="92" height="92" viewBox="0 0 92 92" fill="none" xmlns="http://www.w3.org/2000/svg">
<circle cx="46" cy="46" r="45" stroke="#EBC317" stroke-width="2"/>
<g clip-path="url(#clip0_0_1)">
<path d="M70 30.4706V22H61.5294V24.8235H30.4706V22H22V30.4706H24.8235V61.5294H22V70H30.4706V67.1765H61.5294V70H70V61.5294H67.1765V30.4706H70ZM64.3529 24.8235H67.1765V27.6471H64.3529V24.8235ZM24.8235 24.8235H27.6471V27.6471H24.8235V24.8235ZM27.6471 67.1765H24.8235V64.3529H27.6471V67.1765ZM67.1765 67.1765H64.3529V64.3529H67.1765V67.1765ZM64.3529 61.5294H61.5294V64.3529H30.4706V61.5294H27.6471V30.4706H30.4706V27.6471H61.5294V30.4706H64.3529V61.5294Z" fill="#EBC317"/>
<path d="M34.0179 44.0078L43.9991 34.0266L45.9953 36.0229L36.0141 46.004L34.0179 44.0078Z" fill="#EBC317"/>
<path d="M45.9945 55.9871L55.9758 46.0058L57.972 48.0021L47.9907 57.9833L45.9945 55.9871Z" fill="#EBC317"/>
<path d="M37.0118 52.9917L52.9817 37.0218L54.9779 39.0181L39.008 54.9879L37.0118 52.9917Z" fill="#EBC317"/>
</g>
<defs>
<clipPath id="clip0_0_1">
<rect width="48" height="48" fill="white" transform="translate(22 22)"/>
</clipPath>
</defs>
</svg>
