<svg width="92" height="92" fill="none" xmlns="http://www.w3.org/2000/svg"><circle cx="46" cy="46" r="45" stroke="#EBC317" stroke-width="2"/><g clip-path="url(#a)" fill="#EBC317"><path d="M70 30.47V22h-8.47v2.823H30.47V22H22v8.47h2.823v31.06H22V70h8.47v-2.823h31.06V70H70v-8.47h-2.823V30.47H70zm-5.647-5.646h2.824v2.823h-2.824v-2.823zm-39.53 0h2.824v2.823h-2.823v-2.823zm2.824 42.353h-2.823v-2.824h2.823v2.824zm39.53 0h-2.824v-2.824h2.824v2.824zm-2.824-5.648h-2.824v2.824H30.471v-2.824h-2.824V30.471h2.824v-2.824h31.058v2.824h2.824v31.058z"/><path d="m34.018 44.008 9.981-9.981 1.996 1.996-9.98 9.981-1.997-1.996zM45.995 55.987l9.98-9.981 1.997 1.996-9.981 9.981-1.996-1.996zM37.012 52.992l15.97-15.97 1.996 1.996-15.97 15.97-1.996-1.996z"/></g><defs><clipPath id="a"><path fill="#fff" transform="translate(22 22)" d="M0 0h48v48H0z"/></clipPath></defs></svg>