<svg width="485" height="431" viewBox="0 0 485 431" fill="none" xmlns="http://www.w3.org/2000/svg">
<path d="M404.384 289.95C363.743 386.999 255.485 441.368 161.604 426.701C146.328 424.314 104.447 417.205 67.3683 383.67C-4.01369 319.111 -19.2777 191.275 38.3028 101.186C80.2113 35.6158 155.336 -1.55188 226.719 0.307112C242.096 0.707207 301.023 3.17623 352.809 46.4838C360.416 52.8442 377.193 67.9611 392.313 91.9409C427.818 148.251 430.869 226.703 404.384 289.951V289.95Z" fill="#EAE41F"/>
<path d="M263.153 372.361C263.153 372.361 326.933 239.991 411.594 179.187C417.285 175.1 425.183 178.985 425.498 186.05C427.61 233.293 420.629 373.533 263.151 372.361H263.153Z" fill="#5B8D36"/>
<path opacity="0.5" d="M278.897 366.488C278.486 366.745 278.814 367.375 279.255 367.175C295.518 359.858 360.843 320.568 403.607 222.264C403.745 221.947 403.293 221.713 403.13 222.016C391.065 244.31 343.868 325.899 278.897 366.488V366.488Z" fill="white"/>
<path d="M270.504 317.037C270.504 317.037 265.698 164.969 329.877 66.7562C334.191 60.1539 346.046 59.6123 350.763 65.8237C382.307 107.356 460.052 237.428 270.504 317.037V317.037Z" fill="#5B8D36"/>
<path opacity="0.5" d="M285.776 303.674C285.441 304.117 286.221 304.516 286.628 304.111C301.637 289.18 355.839 220.28 346.751 109.703C346.722 109.349 346.037 109.367 346.026 109.723C345.249 136.014 338.757 233.781 285.776 303.673V303.674Z" fill="#5B8D36"/>
<path d="M298.785 346.886C362.983 346.886 415.026 294.105 415.026 228.997C415.026 163.888 362.983 111.107 298.785 111.107C234.587 111.107 182.544 163.888 182.544 228.997C182.544 294.105 234.587 346.886 298.785 346.886Z" fill="#5B8D36"/>
<path opacity="0.69" d="M294.953 328.231C351.39 328.231 397.142 280.322 397.142 221.225C397.142 162.127 351.39 114.218 294.953 114.218C238.515 114.218 192.764 162.127 192.764 221.225C192.764 280.322 238.515 328.231 294.953 328.231Z" fill="#2C4C3B"/>
<path d="M290.954 283.743L239.615 263.677C238.653 263.301 237.962 262.433 237.801 261.4L229.266 206.277C229.106 205.244 229.502 204.203 230.304 203.546L273.108 168.488C273.911 167.831 274.997 167.658 275.958 168.035L327.297 188.1C328.259 188.476 328.95 189.345 329.111 190.378L337.646 245.501C337.806 246.534 337.41 247.574 336.608 248.232L293.804 283.289C293.001 283.947 291.915 284.12 290.954 283.743V283.743Z" fill="#FFFDB5"/>
<path d="M437.595 268.714L386.256 248.649C385.295 248.273 384.603 247.404 384.443 246.371L375.908 191.248C375.747 190.215 376.143 189.174 376.946 188.517L419.75 153.46C420.552 152.802 421.638 152.629 422.6 153.006L473.939 173.072C474.9 173.448 475.592 174.316 475.752 175.349L484.287 230.472C484.448 231.505 484.052 232.546 483.249 233.203L440.445 268.261C439.643 268.918 438.557 269.091 437.595 268.714V268.714Z" fill="#FFFDB5"/>
<path d="M344.093 153.157L292.754 133.091C291.792 132.716 291.101 131.847 290.94 130.814L282.405 75.6907C282.245 74.6577 282.641 73.6172 283.443 72.96L326.247 37.9023C327.05 37.2451 328.136 37.0717 329.097 37.449L380.436 57.5145C381.398 57.8903 382.089 58.7589 382.25 59.7919L390.785 114.915C390.945 115.948 390.549 116.989 389.747 117.646L346.943 152.703C346.14 153.361 345.054 153.534 344.093 153.157V153.157Z" fill="#FFFDB5"/>
<path d="M376.281 388.936L324.942 368.87C323.981 368.494 323.289 367.626 323.129 366.593L314.594 311.469C314.433 310.436 314.829 309.396 315.632 308.739L358.436 273.681C359.238 273.024 360.324 272.85 361.286 273.228L412.625 293.293C413.586 293.669 414.278 294.538 414.438 295.571L422.973 350.694C423.134 351.727 422.738 352.767 421.935 353.425L379.131 388.482C378.329 389.139 377.243 389.313 376.281 388.936Z" fill="#FFFDB5"/>
<path d="M228.743 409.623L179.756 384.223C178.838 383.746 178.241 382.811 178.188 381.766L175.385 326.039C175.332 324.995 175.833 324.002 176.699 323.433L222.882 293.108C223.748 292.539 224.846 292.482 225.764 292.959L274.751 318.359C275.669 318.835 276.266 319.771 276.32 320.816L279.123 376.543C279.176 377.587 278.675 378.58 277.809 379.149L231.626 409.474C230.76 410.043 229.662 410.099 228.744 409.623H228.743Z" fill="#FFFDB5"/>
<path d="M206.648 181.658L155.309 161.592C154.347 161.217 153.656 160.348 153.495 159.315L144.96 104.192C144.8 103.159 145.196 102.118 145.998 101.461L188.802 66.4033C189.605 65.7461 190.691 65.5727 191.652 65.95L242.991 86.0155C243.953 86.3913 244.644 87.2599 244.805 88.2929L253.34 143.416C253.5 144.449 253.104 145.49 252.302 146.147L209.498 181.204C208.695 181.862 207.609 182.035 206.648 181.658Z" fill="#FFFDB5"/>
<path d="M165.261 307.061L113.922 286.995C112.961 286.619 112.269 285.751 112.109 284.718L103.574 229.595C103.413 228.562 103.809 227.521 104.612 226.864L147.416 191.806C148.218 191.149 149.304 190.976 150.266 191.353L201.605 211.418C202.566 211.794 203.258 212.663 203.418 213.696L211.953 268.819C212.114 269.852 211.718 270.893 210.915 271.55L168.111 306.607C167.309 307.265 166.223 307.438 165.261 307.061V307.061Z" fill="#FFFDB5"/>
<path d="M391.429 292.868C409.001 275.047 409.001 246.155 391.429 228.334C373.858 210.514 345.369 210.514 327.798 228.334C310.227 246.155 310.227 275.047 327.798 292.868C345.369 310.688 373.858 310.688 391.429 292.868Z" fill="url(#paint0_linear_90_247)"/>
<path d="M322.512 242.163C322.434 242.163 322.356 242.145 322.283 242.107C322.031 241.978 321.93 241.666 322.056 241.412C329.256 226.946 343.647 217.958 359.613 217.958C362.16 217.958 364.712 218.191 367.197 218.651C367.475 218.702 367.659 218.972 367.608 219.253C367.557 219.534 367.293 219.726 367.014 219.67C364.589 219.223 362.097 218.994 359.613 218.994C344.036 218.994 329.994 227.763 322.968 241.877C322.878 242.058 322.698 242.162 322.512 242.162V242.163Z" fill="white"/>
<path opacity="0.78" d="M387.522 288.905C402.394 273.822 402.394 249.368 387.522 234.285C372.65 219.202 348.538 219.202 333.666 234.285C318.794 249.368 318.794 273.822 333.666 288.905C348.538 303.988 372.65 303.988 387.522 288.905Z" fill="white"/>
<path d="M356.858 290.307V286.105C352.539 285.93 348.267 284.896 345.233 283.549C344.15 283.069 343.598 281.835 343.908 280.677L344.961 276.763C345.348 275.327 346.887 274.585 348.24 275.16C351.251 276.439 354.966 277.452 358.974 277.452C362.982 277.452 366.237 276.022 366.237 273.089C366.237 270.444 363.84 268.871 358.058 267.298C349.809 265.01 343.886 261.362 343.886 253.997C343.886 247.346 348.68 242.27 357 240.911V236.71C357 235.357 358.08 234.262 359.414 234.262H361.848C363.182 234.262 364.262 235.359 364.262 236.71V240.482C368.258 240.645 371.168 241.337 373.476 242.16C374.66 242.582 375.305 243.875 374.978 245.101L374.01 248.72C373.637 250.117 372.165 250.88 370.832 250.369C368.706 249.554 365.7 248.705 361.794 248.705C356.859 248.705 355.449 250.778 355.449 252.637C355.449 254.925 358.41 256.498 364.827 258.5C373.994 261.289 377.801 265.15 377.801 272.087C377.801 278.45 373.148 284.172 364.122 285.602V290.304C364.122 291.656 363.042 292.752 361.709 292.752H359.274C357.941 292.752 356.861 291.655 356.861 290.304L356.858 290.307Z" fill="url(#paint1_linear_90_247)"/>
<path d="M347.43 196.336C361.966 181.594 361.966 157.693 347.43 142.951C332.894 128.209 309.327 128.209 294.792 142.951C280.256 157.693 280.256 181.594 294.792 196.336C309.327 211.078 332.894 211.078 347.43 196.336Z" fill="url(#paint2_linear_90_247)"/>
<path d="M290.42 154.48C290.342 154.48 290.264 154.462 290.19 154.424C289.938 154.295 289.838 153.983 289.964 153.729C295.935 141.731 307.871 134.278 321.113 134.278C323.226 134.278 325.343 134.471 327.402 134.851C327.68 134.903 327.864 135.172 327.813 135.454C327.762 135.735 327.497 135.925 327.219 135.871C325.22 135.501 323.165 135.314 321.113 135.314C308.259 135.314 296.673 142.549 290.876 154.194C290.786 154.375 290.606 154.479 290.42 154.479V154.48Z" fill="white"/>
<path opacity="0.78" d="M344.199 193.058C356.501 180.581 356.501 160.352 344.199 147.875C331.896 135.397 311.949 135.397 299.647 147.875C287.344 160.352 287.344 180.581 299.647 193.058C311.949 205.535 331.896 205.535 344.199 193.058Z" fill="white"/>
<path d="M318.831 194.217V190.741C315.258 190.597 311.724 189.742 309.215 188.627C308.318 188.228 307.862 187.209 308.12 186.251L308.99 183.013C309.309 181.825 310.583 181.211 311.703 181.687C314.193 182.745 317.268 183.582 320.583 183.582C323.898 183.582 326.591 182.399 326.591 179.974C326.591 177.785 324.608 176.484 319.824 175.182C312.999 173.289 308.1 170.271 308.1 164.178C308.1 158.676 312.066 154.477 318.95 153.353V149.877C318.95 148.759 319.844 147.852 320.946 147.852H322.959C324.062 147.852 324.956 148.759 324.956 149.877V152.999C328.262 153.132 330.669 153.706 332.579 154.387C333.557 154.736 334.092 155.805 333.821 156.82L333.02 159.814C332.711 160.969 331.494 161.601 330.39 161.178C328.632 160.505 326.145 159.802 322.914 159.802C318.831 159.802 317.664 161.518 317.664 163.056C317.664 164.948 320.114 166.25 325.422 167.907C333.005 170.215 336.155 173.408 336.155 179.146C336.155 184.411 332.306 189.144 324.839 190.328V194.217C324.839 195.336 323.945 196.242 322.842 196.242H320.828C319.725 196.242 318.831 195.336 318.831 194.217V194.217Z" fill="url(#paint3_linear_90_247)"/>
<path d="M291.65 122.836C303.803 110.51 303.803 90.5265 291.65 78.2009C279.497 65.8752 259.792 65.8752 247.639 78.2009C235.486 90.5265 235.486 110.51 247.639 122.836C259.792 135.162 279.497 135.162 291.65 122.836Z" fill="url(#paint4_linear_90_247)"/>
<path d="M243.983 87.9262C243.905 87.9262 243.827 87.908 243.753 87.8699C243.501 87.7406 243.401 87.4288 243.527 87.1747C248.534 77.1146 258.542 70.8652 269.645 70.8652C271.415 70.8652 273.189 71.0264 274.919 71.3459C275.196 71.3976 275.381 71.6669 275.33 71.9483C275.279 72.2298 275.015 72.423 274.736 72.3651C273.066 72.0578 271.353 71.9012 269.645 71.9012C258.93 71.9012 249.272 77.9315 244.439 87.6402C244.349 87.8213 244.169 87.9247 243.983 87.9247V87.9262Z" fill="white"/>
<path opacity="0.78" d="M288.947 120.094C299.233 109.663 299.233 92.7495 288.947 82.3178C278.661 71.8861 261.984 71.8861 251.699 82.3178C241.413 92.7495 241.413 109.663 251.699 120.094C261.984 130.526 278.661 130.526 288.947 120.094Z" fill="white"/>
<path d="M267.737 121.066V118.16C264.749 118.038 261.795 117.323 259.697 116.392C258.947 116.059 258.566 115.207 258.78 114.405L259.508 111.699C259.775 110.706 260.84 110.193 261.776 110.59C263.858 111.476 266.427 112.175 269.199 112.175C271.971 112.175 274.223 111.186 274.223 109.159C274.223 107.329 272.565 106.241 268.566 105.153C262.86 103.571 258.764 101.047 258.764 95.954C258.764 91.3537 262.08 87.8426 267.834 86.9024V83.9953C267.834 83.0597 268.581 82.3021 269.504 82.3021H271.187C272.109 82.3021 272.856 83.0597 272.856 83.9953V86.6043C275.621 86.7168 277.632 87.196 279.23 87.765C280.047 88.0571 280.494 88.9501 280.268 89.7989L279.599 92.3029C279.341 93.2689 278.324 93.7968 277.401 93.4439C275.931 92.8795 273.852 92.2923 271.151 92.2923C267.737 92.2923 266.762 93.7268 266.762 95.0123C266.762 96.5944 268.809 97.6837 273.248 99.068C279.588 100.997 282.221 103.668 282.221 108.465C282.221 112.867 279.002 116.823 272.76 117.813V121.066C272.76 122.001 272.013 122.759 271.091 122.759H269.406C268.484 122.759 267.737 122.001 267.737 121.066V121.066Z" fill="url(#paint5_linear_90_247)"/>
<path d="M243.363 52.7955C244.665 115.137 248.891 330.173 246.873 406.377C246.66 414.45 241.205 420.929 234.401 421.194C200.748 422.501 77.3778 425.813 22.3323 423.073C10.8678 422.502 1.74929 411.484 1.51229 397.873C0.369286 332.437 -2.15371 148.394 3.84479 64.0834C4.56329 53.9821 11.2458 45.9376 19.7478 44.9275C56.3973 40.5782 180.297 29.9445 227.853 33.6062C236.43 34.2664 243.15 42.6015 243.363 52.7955V52.7955Z" fill="#CEF989"/>
<path d="M228.348 71.9225C230.16 122.242 235.874 289.639 234.06 351.538C233.795 360.585 227.784 367.901 220.167 368.43C188.804 370.609 81.8013 375.41 35.8008 371.039C27.5178 370.253 21.0168 362.304 20.5698 352.459C18.2388 301.123 11.5458 145.252 13.2843 84.0455C13.5618 74.2819 19.9368 66.3074 28.1388 65.4342C62.0688 61.8197 175.77 53.22 214.862 55.7498C222.2 56.2245 228.036 63.2101 228.35 71.9209L228.348 71.9225Z" fill="#5B8D36"/>
<path opacity="0.5" d="M160.194 44.5C160.194 46.4123 158.937 47.9914 157.328 48.0902C149.379 48.5847 126.987 49.9812 116.981 50.6703C115.008 50.8057 113.459 48.7018 113.834 46.3986L113.898 46.0061C114.153 44.4346 115.251 43.2526 116.595 43.1066C123.36 42.3718 143.771 40.3318 157.293 40.9053C158.918 40.9737 160.196 42.5711 160.196 44.5H160.194Z" fill="white"/>
<path d="M198.24 89.8187L136.922 99.5152C132.597 100.2 129.414 103.983 129.432 108.422C129.48 120.401 129.524 133.659 129.561 148.144C129.62 171.263 129.656 194.45 129.678 214.067C129.684 219.022 133.646 223.033 138.531 223.033H199.754C205.182 223.033 209.585 218.57 209.585 213.063V99.6689C209.585 93.5503 204.201 88.8755 198.24 89.8187Z" fill="white"/>
<path d="M113.726 114.882C113.702 108.728 108.282 104.046 102.288 104.993L40.0969 114.828C35.0134 115.632 31.4014 120.275 31.8124 125.476L38.7964 213.86C39.2059 219.04 43.4704 223.033 48.5959 223.033H104.04C109.518 223.033 113.957 218.527 113.951 212.972C113.913 179.825 113.841 145.1 113.727 114.882H113.726Z" fill="white"/>
<path d="M121.241 154.301C124.583 154.301 127.292 151.553 127.292 148.164C127.292 144.775 124.583 142.027 121.241 142.027C117.899 142.027 115.19 144.775 115.19 148.164C115.19 151.553 117.899 154.301 121.241 154.301Z" fill="white"/>
<path d="M121.847 181.916C125.189 181.916 127.898 179.169 127.898 175.78C127.898 172.39 125.189 169.643 121.847 169.643C118.505 169.643 115.796 172.39 115.796 175.78C115.796 179.169 118.505 181.916 121.847 181.916Z" fill="white"/>
<path opacity="0.69" d="M205.971 258.012H41.7152C38.8127 258.012 36.4247 255.697 36.2927 252.756L36.1757 250.129C36.0377 247.045 38.4257 244.45 41.4677 244.375L205.841 240.351C208.889 240.277 211.4 242.763 211.4 245.855V252.506C211.4 255.547 208.97 258.012 205.971 258.012V258.012Z" fill="white"/>
<path d="M110.532 254.329H44.4258C43.0728 254.329 41.9748 253.215 41.9748 251.843C41.9748 250.495 43.0353 249.392 44.3643 249.357L110.624 247.649C112.089 247.611 113.259 248.878 113.127 250.358L112.974 252.067C112.859 253.348 111.801 254.327 110.534 254.327L110.532 254.329Z" fill="#2C4C3B"/>
<path d="M168.318 246.966H129.834C129.433 246.966 129.108 247.296 129.108 247.702V252.98C129.108 253.386 129.433 253.716 129.834 253.716H168.318C168.719 253.716 169.044 253.386 169.044 252.98V247.702C169.044 247.296 168.719 246.966 168.318 246.966Z" fill="white"/>
<path d="M202.808 246.966H177.03C176.629 246.966 176.304 247.296 176.304 247.702V252.98C176.304 253.386 176.629 253.716 177.03 253.716H202.808C203.209 253.716 203.534 253.386 203.534 252.98V247.702C203.534 247.296 203.209 246.966 202.808 246.966Z" fill="#2C4C3B"/>
<path opacity="0.69" d="M205.971 278.263H41.7152C38.8127 278.263 36.4247 275.948 36.2927 273.007L36.1757 270.38C36.0377 267.296 38.4257 264.701 41.4677 264.626L205.841 260.603C208.889 260.528 211.4 263.014 211.4 266.107V272.758C211.4 275.799 208.97 278.263 205.971 278.263V278.263Z" fill="white"/>
<path d="M110.532 274.58H44.4258C43.0728 274.58 41.9748 273.466 41.9748 272.094C41.9748 270.746 43.0353 269.644 44.3643 269.609L110.624 267.9C112.089 267.862 113.259 269.129 113.127 270.61L112.974 272.318C112.859 273.599 111.801 274.579 110.534 274.579L110.532 274.58Z" fill="#2C4C3B"/>
<path d="M168.318 267.217H129.834C129.433 267.217 129.108 267.547 129.108 267.953V273.231C129.108 273.637 129.433 273.967 129.834 273.967H168.318C168.719 273.967 169.044 273.637 169.044 273.231V267.953C169.044 267.547 168.719 267.217 168.318 267.217Z" fill="white"/>
<path d="M202.808 267.217H177.03C176.629 267.217 176.304 267.547 176.304 267.953V273.231C176.304 273.637 176.629 273.967 177.03 273.967H202.808C203.209 273.967 203.534 273.637 203.534 273.231V267.953C203.534 267.547 203.209 267.217 202.808 267.217Z" fill="#2C4C3B"/>
<path opacity="0.69" d="M205.971 298.514H41.7152C38.8127 298.514 36.4247 296.199 36.2927 293.258L36.1757 290.631C36.0377 287.547 38.4257 284.952 41.4677 284.878L205.841 280.854C208.889 280.779 211.4 283.265 211.4 286.358V293.009C211.4 296.05 208.97 298.514 205.971 298.514V298.514Z" fill="white"/>
<path d="M110.532 294.831H44.4258C43.0728 294.831 41.9748 293.718 41.9748 292.345C41.9748 290.998 43.0353 289.895 44.3643 289.86L110.624 288.151C112.089 288.113 113.259 289.38 113.127 290.861L112.974 292.569C112.859 293.85 111.801 294.83 110.534 294.83L110.532 294.831Z" fill="#2C4C3B"/>
<path d="M168.318 287.468H129.834C129.433 287.468 129.108 287.798 129.108 288.205V293.482C129.108 293.888 129.433 294.218 129.834 294.218H168.318C168.719 294.218 169.044 293.888 169.044 293.482V288.205C169.044 287.798 168.719 287.468 168.318 287.468Z" fill="white"/>
<path d="M202.808 287.468H177.03C176.629 287.468 176.304 287.798 176.304 288.205V293.482C176.304 293.888 176.629 294.218 177.03 294.218H202.808C203.209 294.218 203.534 293.888 203.534 293.482V288.205C203.534 287.798 203.209 287.468 202.808 287.468Z" fill="#2C4C3B"/>
<path opacity="0.69" d="M157.299 346.381H84.5733C79.4268 346.381 75.2538 342.149 75.2538 336.929V332.09C75.2538 327.038 79.1718 322.879 84.1473 322.648L157.415 319.248C162.969 318.991 167.51 323.691 167.139 329.318L166.598 337.556C166.271 342.522 162.206 346.38 157.299 346.38V346.381Z" fill="white"/>
<path d="M93.4878 164.618C93.4878 193.957 82.2393 204.895 70.7568 204.895C59.2743 204.895 48.0258 193.957 48.0258 164.618C48.0258 135.279 56.9133 122.909 70.7568 122.909C84.6003 122.909 93.4878 136.71 93.4878 164.618ZM60.0588 164.618C60.0588 174.228 60.5313 191.913 70.7553 191.913C80.9793 191.913 81.4518 174.228 81.4518 164.618C81.4518 155.008 81.2943 135.892 70.7553 135.892C60.2163 135.892 60.0588 154.906 60.0588 164.618Z" fill="#2C4C3B"/>
<path d="M186.732 204.778H152.451C148.857 204.778 145.944 201.824 145.944 198.179V186.947C145.944 185.65 146.327 184.382 147.029 183.298C161.894 160.296 178.674 152.27 178.674 136.479C178.674 130.009 175.539 124.857 170.376 124.857C164.849 124.857 162.099 129.058 160.632 134.596C159.729 138.002 156.314 140.062 152.922 139.281L151.535 138.962C148.178 138.191 145.946 134.891 146.55 131.454C148.992 117.579 158.355 110.117 169.914 110.117C186.141 110.117 193.424 122.698 193.424 137.317C193.424 161.642 174.615 166.434 160.509 188.961H186.731C190.325 188.961 193.238 191.916 193.238 195.561V198.179C193.238 201.824 190.325 204.778 186.731 204.778H186.732Z" fill="#2C4C3B"/>
<path d="M279.285 370.706C276.425 371.283 260.126 381.119 260.126 369.874V357.311C260.126 357.311 280.107 370.54 279.285 370.706V370.706Z" fill="url(#paint6_linear_90_247)"/>
<path d="M269.085 349.592C269.085 349.592 276.249 337.333 277.145 325.299C278.04 313.266 276.585 307.999 277.928 304.503C279.27 301.008 285.8 287.727 286.098 291.717C286.397 295.709 284.009 299.871 284.009 299.871C284.009 299.871 288.15 303.213 287.441 307.061C286.731 310.908 285.276 311.299 285.276 311.299C285.276 311.299 285.053 319.623 284.679 319.623C284.306 319.623 291.246 361.397 283.485 362.306C275.724 363.214 269.457 368.814 269.084 349.592H269.085Z" fill="url(#paint7_linear_90_247)"/>
<path d="M289.556 304.102C289.628 303.548 294.645 292.481 293.747 291.223C292.848 289.965 291.941 288.842 290.534 292.574C289.125 296.305 287.445 306.457 287.987 306.518C288.528 306.579 289.298 306.087 289.557 304.103L289.556 304.102Z" fill="url(#paint8_linear_90_247)"/>
<path d="M336.501 424.682C336.501 424.682 340.289 421.494 345.324 421.959C348.836 422.583 352.955 425.732 355.61 428.069C356.073 428.476 356.228 429.124 356.001 429.693C355.773 430.262 355.211 430.631 354.59 430.618C348.006 430.48 335.124 430.083 335.124 429.099C335.124 427.777 336.503 424.682 336.503 424.682H336.501Z" fill="#16261D"/>
<path d="M333.893 419.064L336.915 424.854C336.915 424.854 343.743 425.422 343.52 422.697C343.296 419.973 341.616 416.68 341.616 416.68L333.893 419.064V419.064Z" fill="url(#paint9_linear_90_247)"/>
<path d="M256.724 423.006C261.459 396.788 264.908 379.952 264.908 379.952C264.908 379.952 317.384 345.619 322.755 354.019C328.128 362.42 343.524 419.746 343.524 419.746L333.258 422.585C333.258 422.585 313.634 395.626 311.843 372.609C306.791 389.397 302.082 429.511 263.208 430.661C261.278 430.719 259.427 429.888 258.168 428.402C256.91 426.917 256.376 424.932 256.724 423.006V423.006Z" fill="#16261D"/>
<path d="M370.157 422.356L376.425 428.373L381.35 423.377L374.859 415.772L370.157 422.356Z" fill="url(#paint10_linear_90_247)"/>
<path d="M232.223 291.778L226.989 311.339C226.749 312.235 227.046 313.205 227.735 313.735C230.255 315.668 236.84 319.514 245.874 315.776C246.908 315.349 247.616 314.267 247.704 313.038L248.945 295.997L232.221 291.778H232.223Z" fill="url(#paint11_linear_90_247)"/>
<path d="M262.856 276.001C262.856 276.001 261.83 294.507 255.377 300.731C248.924 306.953 235.074 303.886 229.356 290.496L236.454 266.14L262.854 276.001H262.856Z" fill="url(#paint12_linear_90_247)"/>
<path d="M238.508 282.73C239.049 282.856 239.571 282.466 239.607 281.903C239.715 280.194 240.059 276.8 241.131 274.414C241.131 274.414 240.269 272.073 247.212 275.122C254.156 278.172 264.575 282.632 270.179 278.954C275.643 275.368 280.133 259.311 265.247 263.502C264.68 263.662 264.113 263.242 264.105 262.646C264.077 260.073 263.331 254.213 257.3 252.834C251.655 251.542 248.859 254.318 247.746 255.945C247.419 256.422 246.741 256.472 246.354 256.042C244.524 254.005 239.664 249.751 233.33 253.263C228.113 256.154 227.555 259.614 227.822 261.716C227.909 262.398 227.262 262.92 226.626 262.687C224.901 262.055 222.197 261.884 219.912 265.355C216.753 270.155 222.135 273.614 223.737 274.506C224 274.652 224.178 274.916 224.205 275.217C224.417 277.553 225.224 287.963 230.745 293.278C231.224 293.737 232.427 293.276 232.629 292.641L235.719 282.932C235.863 282.482 236.322 282.217 236.778 282.323L238.508 282.728V282.73Z" fill="url(#paint13_linear_90_247)"/>
<path d="M239.271 284.058C239.271 284.058 236.079 274.478 232.749 277.966C229.418 281.455 234.543 288.054 238.776 289.031L239.271 284.058Z" fill="url(#paint14_linear_90_247)"/>
<path d="M262.856 344.37C262.856 344.37 286.769 354.587 291.246 349.364C295.724 344.142 293.261 314.86 293.261 314.86L303.335 312.131C303.335 312.131 315.722 363.819 294.678 371.538C279.402 377.143 250.28 358.9 250.28 358.9L262.856 344.37Z" fill="url(#paint15_linear_90_247)"/>
<path d="M240.371 309.028C244.226 309.887 248.453 313.622 251.759 317.205C255.534 321.295 258.062 326.425 259.004 331.946C259.034 332.125 259.065 332.306 259.095 332.486C267.417 341.737 274.748 347.726 279.678 349.939C271.022 362.408 266.339 367.145 266.339 367.145C266.339 367.145 265.341 366.927 263.666 366.489C265.293 381.367 266.174 392.886 266.174 392.886C266.174 392.886 249.266 409.906 228.789 414.75C210.14 400.826 207.288 360.99 207.288 360.99C205.827 313.744 227.345 306.122 240.369 309.028H240.371Z" fill="#EAE41F"/>
<path d="M228.791 414.75C228.791 414.75 237.186 440.064 278.619 425.875C298.71 418.994 326.841 379.107 326.841 379.107C326.841 379.107 333.78 398.404 370.046 424.287L378.105 416.947C378.105 416.947 341.393 352.772 322.589 359.432C303.785 366.092 223.046 398.331 228.792 414.753L228.791 414.75Z" fill="#5B8D36"/>
<path d="M373.368 425.438C374.901 425.457 381.35 422.583 381.35 422.583L387.357 424.211C392.592 423.394 397.089 425.203 400.119 427.039C400.781 427.44 401.099 428.239 400.899 428.995C400.7 429.751 400.031 430.281 399.26 430.294C393.33 430.393 383.595 430.494 378.663 430.195C371.276 429.747 370.157 429.963 373.368 425.44V425.438Z" fill="#16261D"/>
<path d="M255.401 364.267C255.519 364.267 255.627 364.185 255.657 364.063C255.692 363.918 255.606 363.774 255.464 363.737C255.401 363.722 249.047 362.108 242.219 358.15C235.938 354.508 227.955 348.077 225.599 338.119C225.564 337.975 225.422 337.886 225.279 337.921C225.137 337.956 225.05 338.101 225.084 338.245C227.487 348.394 235.593 354.929 241.968 358.624C248.859 362.618 255.273 364.244 255.338 364.261C255.359 364.267 255.38 364.268 255.401 364.268V364.267Z" fill="#3B6039"/>
<path d="M308.658 288.471C308.831 288.021 308.798 287.517 308.568 287.094C308.339 286.671 307.935 286.375 307.467 286.285L295.797 284.027C295.344 283.939 294.899 284.211 294.762 284.659L285.786 314.007C285.747 314.133 285.761 314.27 285.822 314.387C285.884 314.504 285.989 314.591 286.113 314.629L295.869 317.599C296.669 317.842 297.518 317.422 297.821 316.634L308.66 288.471H308.658Z" fill="black"/>
<path d="M304.977 288.761C305.072 288.504 305.048 288.218 304.913 287.981C304.778 287.744 304.545 287.579 304.278 287.534L296.531 286.207C296.082 286.131 295.649 286.402 295.514 286.842L287.891 311.844C287.85 311.974 287.867 312.117 287.933 312.236C288 312.355 288.113 312.441 288.243 312.473L295.184 314.167C295.425 314.226 295.671 314.092 295.757 313.858L304.974 288.761H304.977Z" fill="#2C4C3B"/>
<path d="M301.241 286.34C301.221 286.431 301.067 286.477 300.893 286.44L298.346 285.895C298.173 285.859 298.049 285.754 298.068 285.663L298.086 285.573C298.106 285.482 298.26 285.436 298.434 285.472L300.981 286.017C301.154 286.054 301.278 286.159 301.259 286.25L301.241 286.34Z" fill="#3B6039"/>
<path d="M303.465 312.694C303.615 311.393 307.925 303.105 306.246 299.928C304.568 296.75 303.896 291.3 302.273 292.832C300.65 294.364 302.664 299.701 301.937 301.289C301.209 302.879 298.415 306.916 298.049 310.062C297.683 313.208 295.613 317.693 299.978 318.317C304.343 318.94 303.465 312.694 303.465 312.694V312.694Z" fill="url(#paint16_linear_90_247)"/>
<path d="M257.333 331.471C257.384 331.471 257.436 331.456 257.483 331.424C257.604 331.34 257.634 331.173 257.552 331.051C257.058 330.321 245.376 313.198 238.65 316.085C238.515 316.143 238.452 316.301 238.509 316.438C238.566 316.575 238.721 316.637 238.857 316.581C245.189 313.856 256.998 331.181 257.115 331.355C257.166 331.432 257.249 331.473 257.334 331.473L257.333 331.471Z" fill="#3B6039"/>
<path d="M283.425 315.414C283.307 315.327 283.28 315.16 283.365 315.04C285.239 312.407 284.024 309.321 283.506 308.004C283.305 307.494 283.238 307.322 283.332 307.157C283.481 306.889 284.519 303.884 284.234 302.15C284.219 302.056 284.196 302.016 284.199 302.01H284.195C283.794 302.01 282.353 303.82 281.027 305.994C280.95 306.121 280.787 306.16 280.662 306.081C280.538 306.004 280.499 305.838 280.577 305.711C281.39 304.379 283.388 301.301 284.307 301.484C284.474 301.517 284.688 301.645 284.757 302.063C285.054 303.875 284.079 306.781 283.829 307.348C283.854 307.44 283.931 307.633 283.998 307.806C284.549 309.206 285.839 312.483 283.796 315.356C283.745 315.429 283.662 315.467 283.581 315.467C283.527 315.467 283.473 315.451 283.427 315.417L283.425 315.414Z" fill="#F8A570"/>
<defs>
<linearGradient id="paint0_linear_90_247" x1="393.627" y1="208.486" x2="205.397" y2="488.872" gradientUnits="userSpaceOnUse">
<stop stop-color="#FDF53F"/>
<stop offset="1" stop-color="#D93C65"/>
</linearGradient>
<linearGradient id="paint1_linear_90_247" x1="388.121" y1="216.591" x2="287.77" y2="382.706" gradientUnits="userSpaceOnUse">
<stop stop-color="#FDF53F"/>
<stop offset="1" stop-color="#D93C65"/>
</linearGradient>
<linearGradient id="paint2_linear_90_247" x1="349.251" y1="126.531" x2="193.534" y2="358.486" gradientUnits="userSpaceOnUse">
<stop stop-color="#FDF53F"/>
<stop offset="1" stop-color="#D93C65"/>
</linearGradient>
<linearGradient id="paint3_linear_90_247" x1="344.696" y1="133.234" x2="261.679" y2="270.657" gradientUnits="userSpaceOnUse">
<stop stop-color="#FDF53F"/>
<stop offset="1" stop-color="#D93C65"/>
</linearGradient>
<linearGradient id="paint4_linear_90_247" x1="293.17" y1="64.4736" x2="162.979" y2="258.403" gradientUnits="userSpaceOnUse">
<stop stop-color="#FDF53F"/>
<stop offset="1" stop-color="#D93C65"/>
</linearGradient>
<linearGradient id="paint5_linear_90_247" x1="289.361" y1="70.0787" x2="219.954" y2="184.974" gradientUnits="userSpaceOnUse">
<stop stop-color="#FDF53F"/>
<stop offset="1" stop-color="#D93C65"/>
</linearGradient>
<linearGradient id="paint6_linear_90_247" x1="263.346" y1="361.544" x2="276.7" y2="381.578" gradientUnits="userSpaceOnUse">
<stop stop-color="#FDF53F"/>
<stop offset="0.66" stop-color="#E57A58"/>
<stop offset="1" stop-color="#D93C65"/>
</linearGradient>
<linearGradient id="paint7_linear_90_247" x1="279.111" y1="323.665" x2="277.96" y2="353.86" gradientUnits="userSpaceOnUse">
<stop stop-color="#F9B776"/>
<stop offset="1" stop-color="#F47960"/>
</linearGradient>
<linearGradient id="paint8_linear_90_247" x1="286.811" y1="291.918" x2="300.839" y2="315.486" gradientUnits="userSpaceOnUse">
<stop stop-color="#F9B776"/>
<stop offset="1" stop-color="#F47960"/>
</linearGradient>
<linearGradient id="paint9_linear_90_247" x1="335.195" y1="415.578" x2="344.267" y2="426.825" gradientUnits="userSpaceOnUse">
<stop stop-color="#F9B776"/>
<stop offset="1" stop-color="#F47960"/>
</linearGradient>
<linearGradient id="paint10_linear_90_247" x1="378.257" y1="413.959" x2="372.505" y2="433.856" gradientUnits="userSpaceOnUse">
<stop stop-color="#F9B776"/>
<stop offset="1" stop-color="#F47960"/>
</linearGradient>
<linearGradient id="paint11_linear_90_247" x1="236.595" y1="318.925" x2="239.371" y2="294.285" gradientUnits="userSpaceOnUse">
<stop stop-color="#F9B776"/>
<stop offset="1" stop-color="#F47960"/>
</linearGradient>
<linearGradient id="paint12_linear_90_247" x1="251.346" y1="296.498" x2="237.28" y2="261.728" gradientUnits="userSpaceOnUse">
<stop stop-color="#F9B776"/>
<stop offset="1" stop-color="#F47960"/>
</linearGradient>
<linearGradient id="paint13_linear_90_247" x1="237.923" y1="232.754" x2="253.155" y2="289.504" gradientUnits="userSpaceOnUse">
<stop stop-color="#5B8D36"/>
<stop offset="1" stop-color="#150E42"/>
</linearGradient>
<linearGradient id="paint14_linear_90_247" x1="242.85" y1="301.552" x2="228.784" y2="266.783" gradientUnits="userSpaceOnUse">
<stop stop-color="#F9B776"/>
<stop offset="1" stop-color="#F47960"/>
</linearGradient>
<linearGradient id="paint15_linear_90_247" x1="295.674" y1="294.635" x2="264.228" y2="403.416" gradientUnits="userSpaceOnUse">
<stop stop-color="#F9B776"/>
<stop offset="1" stop-color="#F47960"/>
</linearGradient>
<linearGradient id="paint16_linear_90_247" x1="301.365" y1="314.316" x2="295.381" y2="373.327" gradientUnits="userSpaceOnUse">
<stop stop-color="#F9B776"/>
<stop offset="1" stop-color="#F47960"/>
</linearGradient>
</defs>
</svg>
