<svg width="36" height="36" fill="none" xmlns="http://www.w3.org/2000/svg"><g clip-path="url(#a)" fill="#2F3136"><path d="m23.157 14.232-.582-.29c-.095-.048-2.354-1.164-4.68-1.164-2.327 0-4.586 1.116-4.68 1.164l-.582.29v2.756H5.264v18.944h25.26V16.988h-7.368v-2.755zm-8.42 1.34c.706-.278 1.95-.69 3.158-.69s2.452.412 3.157.69v1.416h-6.315v-1.415zM28.42 33.828H7.37v-8.211l9.472 1.722v2.28h2.105v-2.28l9.472-1.722v8.21zm0-10.35L17.895 25.39 7.37 23.477v-4.384h21.05v4.384zM9.194 15.086l.04-3.68 2.13-3-3.487-1.174-2.195-2.954-2.195 2.954L0 8.406l2.13 3 .04 3.68 3.512-1.1 3.512 1.1zm-4.966-4.361-.872-1.228 1.428-.481.898-1.209.898 1.209 1.427.48-.872 1.229-.016 1.506-1.437-.45-1.437.45-.017-1.506zM14.383 10.876l3.512-1.1 3.511 1.1.04-3.68 2.13-3-3.486-1.174L17.895.068 15.7 3.022l-3.487 1.174 2.13 3 .04 3.68zm2.614-6.07.898-1.209.898 1.209 1.427.48-.872 1.229-.016 1.506-1.437-.45-1.438.45-.016-1.506-.872-1.228 1.428-.481zM32.513 7.232l-2.195-2.954-2.195 2.954-3.487 1.174 2.13 3 .04 3.68 3.512-1.1 3.512 1.1.04-3.68 2.13-3-3.487-1.174zm-.741 3.493-.017 1.506-1.437-.45-1.437.45-.016-1.506-.872-1.228 1.427-.481.898-1.209.898 1.209 1.428.48-.872 1.229z"/></g><defs><clipPath id="a"><path fill="#fff" d="M0 0h36v36H0z"/></clipPath></defs></svg>