<svg width="30" height="22" viewBox="0 0 30 22" fill="none" xmlns="http://www.w3.org/2000/svg">
<path d="M29.7012 5.00006C29.7012 5.00006 29.4082 2.9317 28.5059 2.02349C27.3633 0.828182 26.0859 0.822323 25.5 0.75201C21.3047 0.447323 15.0059 0.447323 15.0059 0.447323H14.9941C14.9941 0.447323 8.69531 0.447323 4.5 0.75201C3.91406 0.822323 2.63672 0.828182 1.49414 2.02349C0.591797 2.9317 0.304688 5.00006 0.304688 5.00006C0.304688 5.00006 0 7.4317 0 9.85748V12.1309C0 14.5567 0.298828 16.9883 0.298828 16.9883C0.298828 16.9883 0.591797 19.0567 1.48828 19.9649C2.63086 21.1602 4.13086 21.1192 4.79883 21.2481C7.20117 21.4766 15 21.5469 15 21.5469C15 21.5469 21.3047 21.5352 25.5 21.2364C26.0859 21.1661 27.3633 21.1602 28.5059 19.9649C29.4082 19.0567 29.7012 16.9883 29.7012 16.9883C29.7012 16.9883 30 14.5626 30 12.1309V9.85748C30 7.4317 29.7012 5.00006 29.7012 5.00006ZM11.9004 14.8907V6.45904L20.0039 10.6895L11.9004 14.8907Z" fill="white"/>
</svg>
